<svg width="575" height="193" viewBox="0 0 575 193" fill="none" xmlns="http://www.w3.org/2000/svg">
<ellipse cx="112.16" cy="85.1943" rx="61.9309" ry="59.1338" fill="#EE2346"/>
<path d="M434.909 192.997H0.65918L18.6164 165.699L148.652 73.9638L188.385 10.8806L203.756 0L203.904 0.120895L203.854 0L271.471 61.1489L272.407 61.9951L288.96 50.2925L416.952 166.038L434.909 192.997Z" fill="#293896"/>
<path d="M132.951 156.924L148.926 131.568L86.4644 175.67L132.951 156.924Z" fill="white"/>
<path d="M262.668 84.6553L229.232 71.3475L140.017 170.781L219.04 45.1738L262.668 84.6553Z" fill="white"/>
<path d="M296.013 96.498L245.049 177.473L255.399 139.494L208.17 158.528L296.013 96.498Z" fill="white"/>
<path d="M574.253 192.997H140.003L157.961 165.699L287.997 73.9638L327.729 10.8806L343.1 0L343.248 0.120895L343.199 0L410.815 61.1489L411.751 61.9951L428.305 50.2925L538.415 158.605L574.253 192.997Z" fill="#293896"/>
<path d="M271.177 79.9546L287.99 74.7402L236.224 139.051L271.177 79.9546Z" fill="white"/>
<path d="M402.013 84.6593L368.577 71.3514L279.361 170.785L358.384 45.1777L402.013 84.6593Z" fill="white"/>
<path d="M435.356 96.498L384.392 177.473L394.743 139.494L347.514 158.528L435.356 96.498Z" fill="white"/>
</svg>
