<svg width="1276" height="195" viewBox="0 0 1276 195" fill="none" xmlns="http://www.w3.org/2000/svg">
<path d="M0 193.205L33.6822 114.683H59.2191L92.9013 193.205H66.0436L41.1672 127.247H51.2939L26.4174 193.205H0ZM20.0332 179.52L26.6376 160.45H62.081L68.6853 179.52H20.0332Z" fill="#293896"/>
<path d="M97.0471 193.205V114.683H138.214C148.855 114.683 156.706 116.628 161.77 120.516C166.833 124.33 169.365 129.229 169.365 135.211C169.365 139.175 168.264 142.727 166.063 145.868C163.935 148.934 160.816 151.364 156.706 153.159C152.597 154.954 147.534 155.851 141.516 155.851L143.718 149.794C149.735 149.794 154.909 150.654 159.238 152.374C163.641 154.094 167.017 156.599 169.365 159.889C171.786 163.105 172.997 166.994 172.997 171.555C172.997 178.361 170.209 183.67 164.632 187.484C159.128 191.298 151.056 193.205 140.416 193.205H97.0471ZM122.584 174.696H138.214C141.076 174.696 143.204 174.173 144.598 173.126C146.066 172.079 146.8 170.546 146.8 168.527C146.8 166.508 146.066 164.975 144.598 163.928C143.204 162.881 141.076 162.357 138.214 162.357H120.823V144.858H134.692C137.627 144.858 139.755 144.372 141.076 143.4C142.47 142.353 143.168 140.895 143.168 139.025C143.168 137.081 142.47 135.623 141.076 134.65C139.755 133.678 137.627 133.192 134.692 133.192H122.584V174.696Z" fill="#293896"/>
<path d="M222.688 195C216.377 195 210.543 193.99 205.187 191.971C199.903 189.952 195.317 187.11 191.428 183.446C187.538 179.707 184.493 175.332 182.291 170.322C180.163 165.311 179.099 159.852 179.099 153.944C179.099 147.962 180.163 142.502 182.291 137.567C184.493 132.556 187.538 128.219 191.428 124.555C195.317 120.816 199.903 117.936 205.187 115.917C210.543 113.898 216.341 112.889 222.578 112.889C228.889 112.889 234.686 113.898 239.97 115.917C245.253 117.936 249.839 120.816 253.729 124.555C257.618 128.219 260.626 132.556 262.755 137.567C264.956 142.502 266.057 147.962 266.057 153.944C266.057 159.852 264.956 165.311 262.755 170.322C260.626 175.332 257.618 179.707 253.729 183.446C249.839 187.11 245.253 189.952 239.97 191.971C234.686 193.99 228.926 195 222.688 195ZM222.578 173.575C225 173.575 227.238 173.126 229.292 172.228C231.421 171.331 233.255 170.06 234.796 168.415C236.411 166.695 237.658 164.638 238.539 162.245C239.419 159.777 239.859 157.01 239.859 153.944C239.859 150.878 239.419 148.149 238.539 145.756C237.658 143.288 236.411 141.231 234.796 139.586C233.255 137.866 231.421 136.557 229.292 135.66C227.238 134.763 225 134.314 222.578 134.314C220.156 134.314 217.882 134.763 215.754 135.66C213.699 136.557 211.864 137.866 210.25 139.586C208.709 141.231 207.498 143.288 206.618 145.756C205.737 148.149 205.297 150.878 205.297 153.944C205.297 157.01 205.737 159.777 206.618 162.245C207.498 164.638 208.709 166.695 210.25 168.415C211.864 170.06 213.699 171.331 215.754 172.228C217.882 173.126 220.156 173.575 222.578 173.575Z" fill="#293896"/>
<path d="M312.359 195C300.545 195 291.336 191.747 284.731 185.241C278.127 178.735 274.825 169.611 274.825 157.87V114.683H300.802V157.085C300.802 163.068 301.866 167.33 303.994 169.873C306.122 172.341 308.984 173.575 312.58 173.575C316.249 173.575 319.111 172.341 321.165 169.873C323.293 167.33 324.357 163.068 324.357 157.085V114.683H349.894V157.87C349.894 169.611 346.592 178.735 339.988 185.241C333.383 191.747 324.174 195 312.359 195Z" fill="#293896"/>
<path d="M377.458 193.205V135.211H354.893V114.683H426V135.211H403.435V193.205H377.458Z" fill="#293896"/>
<path d="M955.304 188.424L955.272 188.413C950.194 186.479 945.735 183.748 941.916 180.214L941.902 180.201C938.147 176.659 935.224 172.465 933.137 167.638C931.035 162.779 930 157.443 930 151.66C930 145.877 931.035 140.541 933.137 135.682C935.227 130.847 938.19 126.649 942.019 123.106C945.846 119.564 950.349 116.865 955.502 115.001C960.735 113.065 966.437 112.109 972.588 112.109C979.918 112.109 986.515 113.344 992.34 115.863C998.22 118.376 1003.1 121.985 1006.94 126.697C1007.62 127.53 1007.52 128.75 1006.71 129.46L991.233 143.106C990.833 143.458 990.309 143.637 989.777 143.601C989.245 143.566 988.749 143.319 988.399 142.916C986.293 140.488 984.041 138.719 981.654 137.555C981.635 137.546 981.617 137.537 981.598 137.527C979.315 136.324 976.736 135.706 973.818 135.706C971.364 135.706 969.184 136.082 967.254 136.805C965.401 137.525 963.844 138.56 962.555 139.909C961.252 141.273 960.229 142.918 959.497 144.872C958.776 146.797 958.394 149.049 958.394 151.66C958.394 154.117 958.77 156.342 959.5 158.355C960.232 160.305 961.254 161.947 962.555 163.308C963.86 164.674 965.402 165.748 967.198 166.533C969.046 167.243 971.142 167.615 973.511 167.615C975.836 167.615 978.106 167.265 980.325 166.564V149.711C980.325 148.606 981.221 147.711 982.325 147.711H1003.34C1004.44 147.711 1005.34 148.606 1005.34 149.711V180.072V180.08C1005.34 180.091 1005.34 180.102 1005.34 180.113L955.304 188.424ZM955.304 188.424C960.465 190.29 966.061 191.211 972.076 191.211C977.538 191.211 983.153 190.394 988.913 188.777C994.697 187.153 999.881 184.813 1004.45 181.744M955.304 188.424L1004.45 181.739M1004.45 181.744C1004.45 181.742 1004.45 181.741 1004.45 181.739M1004.45 181.744C1004.04 182.017 1003.54 182.131 1003.05 182.059L1000.72 181.717C997.001 183.873 992.887 185.584 988.373 186.851C982.77 188.424 977.337 189.211 972.076 189.211C966.268 189.211 960.904 188.322 955.984 186.543C951.133 184.697 946.896 182.097 943.275 178.746C939.721 175.394 936.954 171.427 934.972 166.845C932.991 162.262 932 157.2 932 151.66C932 146.12 932.991 141.058 934.972 136.476C936.954 131.893 939.756 127.926 943.377 124.574C946.999 121.223 951.269 118.658 956.189 116.88L1004.45 181.739M1004.45 181.744C1004.45 181.742 1004.45 181.741 1004.45 181.739M1133.92 188.424L1133.89 188.413C1128.81 186.479 1124.35 183.748 1120.53 180.214L1120.52 180.201C1116.76 176.659 1113.84 172.465 1111.75 167.638C1109.65 162.779 1108.61 157.443 1108.61 151.66C1108.61 145.877 1109.65 140.541 1111.75 135.682L1113.59 136.476L1111.75 135.682C1113.84 130.847 1116.81 126.649 1120.63 123.106C1124.46 119.564 1128.96 116.865 1134.12 115.001C1139.35 113.065 1145.05 112.109 1151.2 112.109C1158.53 112.109 1165.13 113.344 1170.95 115.863C1176.83 118.376 1181.71 121.985 1185.55 126.697C1186.23 127.53 1186.13 128.75 1185.32 129.46L1169.85 143.106C1169.45 143.458 1168.92 143.637 1168.39 143.601C1167.86 143.566 1167.36 143.319 1167.01 142.916C1164.91 140.488 1162.66 138.719 1160.27 137.555C1160.25 137.546 1160.23 137.537 1160.21 137.527C1157.93 136.324 1155.35 135.706 1152.43 135.706C1149.98 135.706 1147.8 136.082 1145.87 136.805C1144.02 137.525 1142.46 138.56 1141.17 139.909C1139.87 141.273 1138.84 142.918 1138.11 144.872C1137.39 146.797 1137.01 149.049 1137.01 151.66C1137.01 154.116 1137.39 156.342 1138.12 158.355C1138.85 160.305 1139.87 161.947 1141.17 163.308C1142.47 164.674 1144.02 165.748 1145.81 166.533C1147.66 167.243 1149.76 167.615 1152.13 167.615C1154.45 167.615 1156.72 167.265 1158.94 166.564V149.711C1158.94 148.606 1159.84 147.711 1160.94 147.711H1181.95C1183.06 147.711 1183.95 148.606 1183.95 149.711V180.073V180.08C1183.95 180.091 1183.95 180.102 1183.95 180.113L1133.92 188.424ZM1133.92 188.424C1139.08 190.29 1144.68 191.211 1150.69 191.211C1156.15 191.211 1161.77 190.394 1167.53 188.777C1173.31 187.153 1178.5 184.812 1183.06 181.742M1133.92 188.424L1183.07 181.739M1183.06 181.742C1183.07 181.741 1183.07 181.74 1183.07 181.739M1183.06 181.742C1182.65 182.016 1182.16 182.131 1181.66 182.059L1179.33 181.717C1175.62 183.872 1171.5 185.584 1166.99 186.851C1161.38 188.424 1155.95 189.211 1150.69 189.211C1144.88 189.211 1139.52 188.322 1134.6 186.543C1129.75 184.697 1125.51 182.097 1121.89 178.746L1183.07 181.739M1183.06 181.742C1183.07 181.741 1183.07 181.74 1183.07 181.739M1012.67 187.569C1012.67 188.674 1013.56 189.569 1014.67 189.569H1036.71C1037.81 189.569 1038.71 188.674 1038.71 187.569V162.974L1050.58 182.159C1050.95 182.747 1051.59 183.106 1052.28 183.106H1062.94C1063.65 183.106 1064.3 182.734 1064.66 182.127L1076.59 162.033L1076.73 187.58C1076.73 188.68 1077.63 189.569 1078.73 189.569H1100.76C1101.3 189.569 1101.81 189.358 1102.18 188.982C1102.56 188.605 1102.77 188.095 1102.76 187.564L1102.56 115.745C1102.56 114.643 1101.66 113.751 1100.56 113.751H1080.68C1079.97 113.751 1079.32 114.122 1078.96 114.729L1057.92 150.103L1036.26 114.707C1035.89 114.113 1035.25 113.751 1034.55 113.751H1014.67C1013.56 113.751 1012.67 114.646 1012.67 115.751V187.569ZM1183.66 186.769C1183.39 187.387 1183.45 188.1 1183.82 188.665C1184.19 189.229 1184.82 189.569 1185.49 189.569H1210.09C1210.92 189.569 1211.66 189.059 1211.96 188.286L1216.27 177.052H1240.81L1245.12 188.286C1245.42 189.059 1246.16 189.569 1246.99 189.569H1272C1272.67 189.569 1273.3 189.229 1273.67 188.665C1274.04 188.1 1274.1 187.387 1273.83 186.769L1242.47 114.951C1242.15 114.222 1241.43 113.751 1240.64 113.751H1216.86C1216.06 113.751 1215.34 114.222 1215.02 114.951L1183.66 186.769ZM1228.54 145.1L1232.58 155.611H1224.51L1228.54 145.1Z" fill="#EE2346" stroke="#EE2346" stroke-width="4" stroke-linejoin="round"/>
<path d="M955.304 179.315L955.272 179.303C950.194 177.37 945.735 174.639 941.916 171.104L941.902 171.091C938.147 167.549 935.224 163.356 933.137 158.529C931.035 153.67 930 148.334 930 142.551C930 136.768 931.035 131.432 933.137 126.573C935.227 121.737 938.19 117.54 942.019 113.997C945.846 110.455 950.349 107.756 955.502 105.892C960.735 103.956 966.437 103 972.588 103C979.918 103 986.515 104.235 992.34 106.753C998.22 109.266 1003.1 112.876 1006.94 117.588C1007.62 118.42 1007.52 119.64 1006.71 120.351L991.233 133.996C990.833 134.349 990.309 134.527 989.777 134.492C989.245 134.456 988.749 134.21 988.399 133.807C986.293 131.379 984.041 129.61 981.654 128.446C981.635 128.437 981.617 128.427 981.598 128.418C979.315 127.215 976.736 126.596 973.818 126.596C971.364 126.596 969.184 126.973 967.254 127.696C965.401 128.415 963.844 129.451 962.555 130.8C961.252 132.163 960.229 133.808 959.497 135.763C958.776 137.687 958.394 139.939 958.394 142.551C958.394 145.007 958.77 147.233 959.5 149.245C960.232 151.196 961.254 152.838 962.555 154.199C963.86 155.565 965.402 156.639 967.198 157.424C969.046 158.134 971.142 158.505 973.511 158.505C975.836 158.505 978.106 158.156 980.325 157.455V140.601C980.325 139.497 981.221 138.601 982.325 138.601H1003.34C1004.44 138.601 1005.34 139.497 1005.34 140.601V170.963V170.97C1005.34 170.982 1005.34 170.993 1005.34 171.004L955.304 179.315ZM955.304 179.315C960.465 181.18 966.061 182.102 972.076 182.102C977.538 182.102 983.153 181.285 988.913 179.667C994.697 178.043 999.881 175.704 1004.45 172.634M955.304 179.315L1004.45 172.63M1004.45 172.634C1004.45 172.633 1004.45 172.631 1004.45 172.63M1004.45 172.634C1004.04 172.907 1003.54 173.021 1003.05 172.949L1000.72 172.608C997.001 174.763 992.887 176.474 988.373 177.742C982.77 179.315 977.337 180.102 972.076 180.102C966.268 180.102 960.904 179.212 955.984 177.434C951.133 175.587 946.896 172.988 943.275 169.637C939.721 166.285 936.954 162.318 934.972 157.735C932.991 153.153 932 148.091 932 142.551C932 137.01 932.991 131.949 934.972 127.366C936.954 122.784 939.756 118.816 943.377 115.465C946.999 112.113 951.269 109.548 956.189 107.77L1004.45 172.63M1004.45 172.634C1004.45 172.633 1004.45 172.631 1004.45 172.63M1133.92 179.315L1133.89 179.303C1128.81 177.37 1124.35 174.639 1120.53 171.104L1120.52 171.091C1116.76 167.549 1113.84 163.356 1111.75 158.529C1109.65 153.67 1108.61 148.334 1108.61 142.551C1108.61 136.768 1109.65 131.432 1111.75 126.573L1113.59 127.366L1111.75 126.573C1113.84 121.737 1116.81 117.54 1120.63 113.997C1124.46 110.455 1128.96 107.755 1134.12 105.892C1139.35 103.956 1145.05 103 1151.2 103C1158.53 103 1165.13 104.235 1170.95 106.753C1176.83 109.266 1181.71 112.876 1185.55 117.588C1186.23 118.42 1186.13 119.64 1185.32 120.351L1169.85 133.996C1169.45 134.349 1168.92 134.527 1168.39 134.492C1167.86 134.456 1167.36 134.21 1167.01 133.807C1164.91 131.379 1162.66 129.61 1160.27 128.446C1160.25 128.437 1160.23 128.427 1160.21 128.418C1157.93 127.215 1155.35 126.596 1152.43 126.596C1149.98 126.596 1147.8 126.973 1145.87 127.696C1144.02 128.415 1142.46 129.451 1141.17 130.8C1139.87 132.163 1138.84 133.808 1138.11 135.763C1137.39 137.687 1137.01 139.939 1137.01 142.551C1137.01 145.007 1137.39 147.232 1138.12 149.245C1138.85 151.196 1139.87 152.838 1141.17 154.199C1142.47 155.565 1144.02 156.639 1145.81 157.424C1147.66 158.134 1149.76 158.505 1152.13 158.505C1154.45 158.505 1156.72 158.156 1158.94 157.455V140.601C1158.94 139.497 1159.84 138.601 1160.94 138.601H1181.95C1183.06 138.601 1183.95 139.497 1183.95 140.601V170.963V170.97C1183.95 170.982 1183.95 170.993 1183.95 171.004L1133.92 179.315ZM1133.92 179.315C1139.08 181.18 1144.68 182.102 1150.69 182.102C1156.15 182.102 1161.77 181.285 1167.53 179.667C1173.31 178.043 1178.5 175.703 1183.06 172.633M1133.92 179.315L1183.07 172.63M1183.06 172.633C1183.07 172.632 1183.07 172.631 1183.07 172.63M1183.06 172.633C1182.65 172.907 1182.16 173.021 1181.66 172.949L1179.33 172.608C1175.62 174.763 1171.5 176.474 1166.99 177.742C1161.38 179.315 1155.95 180.102 1150.69 180.102C1144.88 180.102 1139.52 179.212 1134.6 177.434C1129.75 175.587 1125.51 172.988 1121.89 169.637L1183.07 172.63M1183.06 172.633C1183.07 172.632 1183.07 172.631 1183.07 172.63M1012.67 178.46C1012.67 179.565 1013.56 180.46 1014.67 180.46H1036.71C1037.81 180.46 1038.71 179.565 1038.71 178.46V153.865L1050.58 173.049C1050.95 173.638 1051.59 173.996 1052.28 173.996H1062.94C1063.65 173.996 1064.3 173.624 1064.66 173.017L1076.59 152.924L1076.73 178.471C1076.73 179.571 1077.63 180.46 1078.73 180.46H1100.76C1101.3 180.46 1101.81 180.248 1102.18 179.872C1102.56 179.496 1102.77 178.986 1102.76 178.454L1102.56 106.636C1102.56 105.534 1101.66 104.642 1100.56 104.642H1080.68C1079.97 104.642 1079.32 105.013 1078.96 105.619L1057.92 140.993L1036.26 105.597C1035.89 105.004 1035.25 104.642 1034.55 104.642H1014.67C1013.56 104.642 1012.67 105.537 1012.67 106.642V178.46ZM1183.66 177.66C1183.39 178.278 1183.45 178.991 1183.82 179.555C1184.19 180.12 1184.82 180.46 1185.49 180.46H1210.09C1210.92 180.46 1211.66 179.95 1211.96 179.177L1216.27 167.943H1240.81L1245.12 179.177C1245.42 179.95 1246.16 180.46 1246.99 180.46H1272C1272.67 180.46 1273.3 180.12 1273.67 179.555C1274.04 178.991 1274.1 178.278 1273.83 177.66L1242.47 105.841C1242.15 105.113 1241.43 104.642 1240.64 104.642H1216.86C1216.06 104.642 1215.34 105.113 1215.02 105.841L1183.66 177.66ZM1228.54 135.991L1232.58 146.501H1224.51L1228.54 135.991Z" fill="#FBFBFB" stroke="#EE2346" stroke-width="4" stroke-linejoin="round"/>
<ellipse cx="504.16" cy="85.1943" rx="61.9309" ry="59.1338" fill="#EE2346"/>
<path d="M826.909 192.997H392.659L410.616 165.699L540.652 73.9638L580.385 10.8806L595.756 0L595.904 0.120895L595.854 0L663.471 61.1489L664.407 61.9951L680.96 50.2925L808.952 166.038L826.909 192.997Z" fill="#293896"/>
<path d="M524.951 156.924L540.926 131.568L478.464 175.67L524.951 156.924Z" fill="white"/>
<path d="M654.668 84.6553L621.232 71.3475L532.017 170.781L611.04 45.1738L654.668 84.6553Z" fill="white"/>
<path d="M688.013 96.498L637.049 177.473L647.399 139.494L600.17 158.528L688.013 96.498Z" fill="white"/>
<path d="M966.253 192.997H532.003L549.961 165.699L679.997 73.9638L719.729 10.8806L735.1 0L735.248 0.120895L735.199 0L802.815 61.1489L803.751 61.9951L820.305 50.2925L930.415 158.605L966.253 192.997Z" fill="#293896"/>
<path d="M663.177 79.9546L679.99 74.7402L628.224 139.051L663.177 79.9546Z" fill="white"/>
<path d="M794.013 84.6592L760.577 71.3514L671.361 170.785L750.384 45.1777L794.013 84.6592Z" fill="white"/>
<path d="M827.356 96.498L776.392 177.473L786.743 139.494L739.514 158.528L827.356 96.498Z" fill="white"/>
</svg>
