<svg width="1921" height="259" viewBox="0 0 1921 259" fill="none" xmlns="http://www.w3.org/2000/svg">
<path fill-rule="evenodd" clip-rule="evenodd" d="M438.341 16.5102C437.149 15.7314 435.764 15.0992 434.383 14.6328C430.096 13.1844 425.052 11.4881 419.563 13.9996C415.54 15.8406 413.192 17.9548 411.894 20.2268C410.24 23.1223 410.295 26.3187 410.959 29.6891C407.108 28.6769 403.101 28.2853 399.18 29.5966C394.467 31.174 391.438 34.2975 390.443 37.8378C389.446 41.3862 390.473 45.3823 393.996 48.7184C397.177 51.7313 401.799 53.8529 406.495 54.1372C408.164 54.2375 409.925 54.0358 411.525 53.5941C411.873 53.4972 412.215 53.3767 412.549 53.2405C412.774 53.7629 412.967 54.3727 413.2 55.0106C413.672 56.3119 414.254 57.7118 415.233 58.8885C420.405 65.1083 430.424 66.7548 438.017 63.3261C440.055 62.4057 441.718 61.0162 443.161 59.4735C443.354 59.2664 443.603 58.8947 443.868 58.4942C444.409 59.0811 444.973 59.6508 445.593 60.1719C447.789 62.0184 450.63 63.31 453.589 63.9028C457.45 64.6752 461.564 64.3506 465.243 63.0724C466.486 62.6402 467.673 62.1109 468.814 61.4979C468.987 61.4036 469.241 61.1874 469.466 60.9787C470.546 62.0247 471.374 63.4045 472.546 64.3761C477.162 68.202 483.123 70.1923 489.481 69.93C498.901 69.5424 509.231 65.5386 514.041 58.0668C514.888 56.749 515.19 55.4318 515.378 54.2262C515.479 53.57 515.527 52.9544 515.663 52.4164C516.32 52.4763 517.296 52.5645 517.429 52.578C520.453 52.8819 523.398 53.5912 526.435 53.8545C536.186 54.6971 546.577 49.4859 547.349 40.1375C547.768 35.0695 545.458 29.4983 541.124 26.0748C535.745 21.8264 527.084 19.7104 517.173 21.5401C515.826 19.0893 512.897 14.3132 510.94 12.7731C505.362 8.38255 500.741 6.41888 493.146 6.21034C487.939 6.06748 482.913 7.28991 478.477 9.71283C476.989 10.5256 475.533 11.4387 474.236 12.4751C474.225 12.4848 474.004 12.6895 473.728 12.9465C473.272 12.1983 472.664 11.22 472.445 10.9396C470.975 9.05454 468.94 7.42692 466.631 6.37859C463.04 4.74798 458.786 4.18108 454.79 4.40002C449.768 4.67521 445.89 6.15266 443.088 8.58C440.769 10.5906 439.182 13.2669 438.341 16.5102ZM476.027 14.1639L476.022 14.1665C475.797 14.3763 474.761 15.3497 474.534 15.5597C473.824 16.2142 472.973 15.8444 472.964 15.8397C472.642 15.701 472.17 15.2979 471.753 14.6932C471.194 13.8837 470.58 12.6269 470.284 12.2484C469.053 10.6728 467.36 9.30803 465.431 8.4319C462.254 6.98988 458.486 6.5121 454.954 6.70584C450.662 6.94101 447.322 8.15207 444.928 10.2265C442.522 12.3129 441.083 15.2516 440.522 18.8494C440.443 19.3588 440.131 19.587 439.908 19.714C439.586 19.8957 439.209 19.9674 438.77 19.8446C438.606 19.7982 438.362 19.6953 438.13 19.4751C438.036 19.3872 437.818 19.1291 437.759 19.0569C437.459 18.8328 437.174 18.6272 436.862 18.4189C435.839 17.7389 434.637 17.1931 433.444 16.7897C429.776 15.55 425.469 13.9002 420.774 16.0495C417.372 17.606 415.334 19.3442 414.237 21.2653C412.598 24.1326 413.043 27.3464 413.859 30.732C414.139 31.0373 414.236 31.4609 414.071 31.8561C413.822 32.4547 413.068 32.7627 412.39 32.5433C408.427 31.2659 404.219 30.3823 400.112 31.7563C396.294 33.0339 393.795 35.5257 392.988 38.3934C392.184 41.2528 393.077 44.4568 395.916 47.1445C398.658 49.7414 402.629 51.5871 406.675 51.8332C408.025 51.9132 409.445 51.748 410.738 51.3893C411.213 51.2582 411.663 51.0645 412.097 50.8555C412.126 50.8421 412.425 50.6917 412.484 50.6629C413.473 50.1971 414.16 50.9806 414.187 51.0132C414.694 51.6517 415.074 52.57 415.448 53.6105C415.899 54.8669 416.363 56.3364 417.349 57.5228C421.766 62.8366 430.336 64.1983 436.822 61.269C438.537 60.4942 439.919 59.3042 441.134 58.0044C441.43 57.6903 441.848 56.9088 442.273 56.3867C442.618 55.9623 443.005 55.6638 443.332 55.526C443.394 55.499 444.315 55.1425 444.963 55.8919C445.083 56.0318 445.646 56.7575 445.765 56.8895C446.279 57.4517 446.813 58.0029 447.404 58.5014C449.263 60.0628 451.669 61.1479 454.17 61.6491C457.519 62.3207 461.087 62.0327 464.28 60.9221C465.372 60.5432 466.416 60.0788 467.419 59.5405C467.451 59.509 467.677 59.2862 467.794 59.1646C468.03 58.9154 468.28 58.7014 468.51 58.5704C469.193 58.1795 469.859 58.1729 470.513 58.6604C471.97 59.7479 472.917 61.5115 474.344 62.6944C478.437 66.0862 483.722 67.8539 489.359 67.6228C497.928 67.2707 507.384 63.7231 511.758 56.9277C512.568 55.6677 512.712 54.3982 512.868 53.2959C513.003 52.3445 513.155 51.4901 513.52 50.7891C513.639 50.5556 513.912 50.2127 514.533 50.0945C515.089 49.9895 517.446 50.254 517.726 50.2822C520.737 50.5868 523.668 51.2928 526.69 51.5548C535.04 52.276 544.071 47.9742 544.733 39.9696C545.097 35.5849 543.122 30.7565 539.372 27.7947C534.337 23.8171 526.096 22.0199 516.738 23.9936C516.124 24.1232 515.492 23.8486 515.234 23.3407C514.335 21.5616 511.227 16.0967 509.194 14.4957C504.133 10.5134 499.953 8.70859 493.062 8.51942C488.376 8.39073 483.855 9.49481 479.86 11.6761C478.518 12.4096 477.202 13.2302 476.027 14.1639Z" fill="#293896"/>
<path fill-rule="evenodd" clip-rule="evenodd" d="M1666.34 200.51C1665.15 199.731 1663.76 199.099 1662.38 198.633C1658.1 197.184 1653.05 195.488 1647.56 198C1643.54 199.841 1641.19 201.955 1639.89 204.227C1638.24 207.122 1638.3 210.319 1638.96 213.689C1635.11 212.677 1631.1 212.285 1627.18 213.597C1622.47 215.174 1619.44 218.298 1618.44 221.838C1617.45 225.386 1618.47 229.382 1622 232.718C1625.18 235.731 1629.8 237.853 1634.5 238.137C1636.16 238.238 1637.92 238.036 1639.53 237.594C1639.87 237.497 1640.21 237.377 1640.55 237.241C1640.77 237.763 1640.97 238.373 1641.2 239.011C1641.67 240.312 1642.25 241.712 1643.23 242.889C1648.41 249.108 1658.42 250.755 1666.02 247.326C1668.05 246.406 1669.72 245.016 1671.16 243.474C1671.35 243.266 1671.6 242.895 1671.87 242.494C1672.41 243.081 1672.97 243.651 1673.59 244.172C1675.79 246.018 1678.63 247.31 1681.59 247.903C1685.45 248.675 1689.56 248.351 1693.24 247.072C1694.49 246.64 1695.67 246.111 1696.81 245.498C1696.99 245.404 1697.24 245.187 1697.47 244.979C1698.55 246.025 1699.37 247.405 1700.55 248.376C1705.16 252.202 1711.12 254.192 1717.48 253.93C1726.9 253.542 1737.23 249.539 1742.04 242.067C1742.89 240.749 1743.19 239.432 1743.38 238.226C1743.48 237.57 1743.53 236.954 1743.66 236.416C1744.32 236.476 1745.3 236.564 1745.43 236.578C1748.45 236.882 1751.4 237.591 1754.44 237.854C1764.19 238.697 1774.58 233.486 1775.35 224.138C1775.77 219.069 1773.46 213.498 1769.12 210.075C1763.74 205.826 1755.08 203.71 1745.17 205.54C1743.83 203.089 1740.9 198.313 1738.94 196.773C1733.36 192.383 1728.74 190.419 1721.15 190.21C1715.94 190.067 1710.91 191.29 1706.48 193.713C1704.99 194.526 1703.53 195.439 1702.24 196.475C1702.22 196.485 1702 196.69 1701.73 196.947C1701.27 196.198 1700.66 195.22 1700.44 194.94C1698.97 193.055 1696.94 191.427 1694.63 190.379C1691.04 188.748 1686.79 188.181 1682.79 188.4C1677.77 188.675 1673.89 190.153 1671.09 192.58C1668.77 194.591 1667.18 197.267 1666.34 200.51ZM1704.03 198.164L1704.02 198.167C1703.8 198.376 1702.76 199.35 1702.53 199.56C1701.82 200.214 1700.97 199.844 1700.96 199.84C1700.64 199.701 1700.17 199.298 1699.75 198.693C1699.19 197.884 1698.58 196.627 1698.28 196.248C1697.05 194.673 1695.36 193.308 1693.43 192.432C1690.25 190.99 1686.49 190.512 1682.95 190.706C1678.66 190.941 1675.32 192.152 1672.93 194.226C1670.52 196.313 1669.08 199.252 1668.52 202.849C1668.44 203.359 1668.13 203.587 1667.91 203.714C1667.59 203.896 1667.21 203.967 1666.77 203.845C1666.61 203.798 1666.36 203.695 1666.13 203.475C1666.04 203.387 1665.82 203.129 1665.76 203.057C1665.46 202.833 1665.17 202.627 1664.86 202.419C1663.84 201.739 1662.64 201.193 1661.44 200.79C1657.78 199.55 1653.47 197.9 1648.77 200.05C1645.37 201.606 1643.33 203.344 1642.24 205.265C1640.6 208.133 1641.04 211.346 1641.86 214.732C1642.14 215.037 1642.24 215.461 1642.07 215.856C1641.82 216.455 1641.07 216.763 1640.39 216.543C1636.43 215.266 1632.22 214.382 1628.11 215.756C1624.29 217.034 1621.79 219.526 1620.99 222.393C1620.18 225.253 1621.08 228.457 1623.92 231.145C1626.66 233.741 1630.63 235.587 1634.67 235.833C1636.02 235.913 1637.45 235.748 1638.74 235.389C1639.21 235.258 1639.66 235.064 1640.1 234.856C1640.13 234.842 1640.42 234.692 1640.48 234.663C1641.47 234.197 1642.16 234.981 1642.19 235.013C1642.69 235.652 1643.07 236.57 1643.45 237.61C1643.9 238.867 1644.36 240.336 1645.35 241.523C1649.77 246.837 1658.34 248.198 1664.82 245.269C1666.54 244.494 1667.92 243.304 1669.13 242.004C1669.43 241.69 1669.85 240.909 1670.27 240.387C1670.62 239.962 1671.01 239.664 1671.33 239.526C1671.39 239.499 1672.32 239.142 1672.96 239.892C1673.08 240.032 1673.65 240.757 1673.77 240.889C1674.28 241.452 1674.81 242.003 1675.4 242.501C1677.26 244.063 1679.67 245.148 1682.17 245.649C1685.52 246.321 1689.09 246.033 1692.28 244.922C1693.37 244.543 1694.42 244.079 1695.42 243.54C1695.45 243.509 1695.68 243.286 1695.79 243.165C1696.03 242.915 1696.28 242.701 1696.51 242.57C1697.19 242.179 1697.86 242.173 1698.51 242.66C1699.97 243.748 1700.92 245.511 1702.34 246.694C1706.44 250.086 1711.72 251.854 1717.36 251.623C1725.93 251.271 1735.38 247.723 1739.76 240.928C1740.57 239.668 1740.71 238.398 1740.87 237.296C1741 236.344 1741.16 235.49 1741.52 234.789C1741.64 234.556 1741.91 234.213 1742.53 234.094C1743.09 233.989 1745.45 234.254 1745.73 234.282C1748.74 234.587 1751.67 235.293 1754.69 235.555C1763.04 236.276 1772.07 231.974 1772.73 223.97C1773.1 219.585 1771.12 214.757 1767.37 211.795C1762.34 207.817 1754.1 206.02 1744.74 207.994C1744.12 208.123 1743.49 207.849 1743.23 207.341C1742.33 205.562 1739.23 200.097 1737.19 198.496C1732.13 194.513 1727.95 192.709 1721.06 192.519C1716.38 192.391 1711.85 193.495 1707.86 195.676C1706.52 196.41 1705.2 197.23 1704.03 198.164Z" fill="#293896"/>
<path fill-rule="evenodd" clip-rule="evenodd" d="M186.461 182.315C185.62 181.866 184.781 181.408 183.931 180.974C181.186 179.574 177.985 178.348 174.774 178.251C172.845 178.193 170.947 178.49 169.12 179.022C159.844 181.719 156.007 190.129 157.862 197.941C152.119 196.382 146.064 196.251 140.543 198.927C132.567 202.794 130.549 212.67 137.435 218.28C141.028 221.206 146.324 222.725 151.193 222.28C152.784 222.135 154.308 221.85 155.778 221.311C155.57 222.818 155.659 224.373 156.063 225.847C157.933 232.701 166.739 236.362 174.128 235.944C178.85 235.677 183.339 233.884 186.709 230.964C187.621 230.173 188.423 229.29 189.081 228.327C189.826 229.714 190.862 230.956 192.163 232.158C200.156 239.544 211.753 239.471 221.708 235.281C224.361 234.164 226.377 232.387 227.946 230.218C228.406 229.583 228.839 228.934 229.221 228.26C230.382 229.147 231.347 230.172 232.359 231.16C233.899 232.666 235.532 234.093 237.845 235.022C243.316 237.216 250.382 237.645 256.464 236.06C262.697 234.436 267.886 230.722 269.446 224.741C270.255 221.655 269.594 218.451 267.531 215.84C266.97 215.13 266.32 214.49 265.604 213.904C266.515 213.665 267.413 213.389 268.282 213.037C272.427 211.358 275.775 208.229 276.017 204.042C276.31 198.898 272.235 193.285 267.015 191.051C265.528 190.414 262.403 190.12 260.542 190.112C260.382 190.085 260.204 190.07 260.023 190.09C259.9 190.103 259.78 190.131 259.673 190.167L259.622 190.171L259.555 190.177C259.7 187.688 259.363 185.744 257.674 183.462C253.463 177.771 244.828 175.954 237.708 177.6C235.648 178.077 233.722 179.003 232.441 180.546C232.202 180.835 231.986 181.136 231.789 181.446C231.536 181.098 231.31 180.777 231.151 180.594C229.473 178.661 227.621 176.769 225.454 175.25C220.381 171.699 212.723 169.51 205.529 169.756C200.638 169.923 195.968 171.212 192.428 173.895C190.119 175.642 188.273 177.725 187.066 180.194C186.863 180.611 186.688 181.391 186.5 182.154L186.461 182.315ZM260.303 192.424C259.888 192.482 258.954 192.581 258.412 192.556C258.011 192.537 257.709 192.441 257.541 192.356C256.965 192.066 256.796 191.638 256.841 191.191C257.099 188.666 257.066 186.872 255.476 184.723C251.877 179.861 244.457 178.429 238.373 179.835C236.893 180.177 235.479 180.801 234.558 181.91C234.215 182.323 233.941 182.767 233.711 183.236C233.684 183.29 233.439 183.85 233.388 183.961C232.961 184.894 231.815 184.663 231.799 184.659C231.411 184.561 230.934 184.279 230.5 183.829C229.947 183.258 229.38 182.356 229.067 181.997C227.52 180.213 225.819 178.459 223.821 177.058C219.194 173.817 212.195 171.84 205.63 172.064C201.346 172.211 197.238 173.297 194.135 175.647C192.134 177.163 190.523 178.965 189.474 181.108C189.277 181.513 189.152 182.349 188.956 183.067C188.757 183.803 188.467 184.441 188.15 184.773C188.076 184.85 187.438 185.464 186.512 185.044C186.321 184.957 185.418 184.46 185.363 184.429C184.447 183.944 183.541 183.445 182.616 182.973C180.233 181.758 177.472 180.644 174.684 180.56C173.067 180.511 171.473 180.77 169.942 181.215C161.306 183.727 158.322 192.075 160.955 199.213C161.168 199.785 160.845 200.399 160.226 200.631C159.889 200.824 159.452 200.878 159.047 200.742C153.411 198.857 147.31 198.284 141.807 200.951C135.359 204.077 133.648 212.05 139.217 216.584C142.275 219.073 146.781 220.361 150.921 219.982C152.335 219.853 153.687 219.602 154.987 219.095C155.427 218.924 155.86 218.74 156.285 218.54C156.366 218.476 156.67 218.242 156.798 218.168C157.082 218.002 157.354 217.949 157.55 217.939C157.903 217.922 158.202 218.014 158.452 218.182C158.679 218.333 158.929 218.575 158.988 219.027C159.034 219.364 158.959 219.795 158.802 220.241C158.677 220.594 158.482 220.966 158.434 221.243C158.198 222.585 158.25 223.985 158.611 225.306C160.189 231.081 167.734 233.991 173.961 233.639C178.055 233.407 181.947 231.85 184.869 229.318C185.827 228.488 186.633 227.54 187.244 226.489C187.443 226.15 187.628 225.803 187.792 225.449C187.851 225.323 187.918 225.028 187.977 224.887C188.08 224.636 188.224 224.477 188.308 224.399C188.851 223.903 189.419 223.955 189.893 224.178C190.068 224.261 190.449 224.448 190.579 225.012C191.083 227.21 192.287 228.925 194.06 230.564C201.23 237.187 211.648 236.954 220.578 233.197C222.78 232.27 224.432 230.776 225.734 228.976C226.179 228.363 226.597 227.735 226.957 227.08C226.977 226.996 227.104 226.41 227.192 226.194C227.313 225.906 227.494 225.702 227.668 225.572C227.947 225.364 228.265 225.266 228.615 225.269C228.853 225.272 229.129 225.321 229.427 225.496C231.378 226.64 232.814 228.152 234.308 229.614C235.615 230.891 236.972 232.132 238.934 232.92C243.864 234.898 250.238 235.274 255.721 233.845C261.052 232.456 265.555 229.339 266.892 224.222C267.53 221.774 267.015 219.231 265.377 217.159C264.813 216.443 264.131 215.819 263.381 215.252C263.349 215.226 262.175 214.441 261.95 214.265C261.219 213.694 261.537 213.001 261.572 212.923C261.656 212.748 261.823 212.5 262.198 212.319C262.48 212.181 263.637 211.988 263.855 211.937C264.994 211.67 266.116 211.372 267.186 210.938C270.453 209.615 273.208 207.225 273.396 203.926C273.641 199.643 270.215 194.989 265.868 193.129C264.581 192.578 261.793 192.402 260.303 192.424Z" fill="#293896"/>
<path fill-rule="evenodd" clip-rule="evenodd" d="M1388.46 47.3145C1387.62 46.8659 1386.78 46.4085 1385.93 45.9738C1383.19 44.5744 1379.99 43.3484 1376.77 43.251C1374.85 43.1928 1372.95 43.4904 1371.12 44.0216C1361.84 46.7186 1358.01 55.1288 1359.86 62.941C1354.12 61.3817 1348.06 61.2515 1342.54 63.9274C1334.57 67.7942 1332.55 77.6704 1339.43 83.2799C1343.03 86.2057 1348.32 87.7254 1353.19 87.2801C1354.78 87.1348 1356.31 86.8498 1357.78 86.3107C1357.57 87.8179 1357.66 89.3725 1358.06 90.8466C1359.93 97.7006 1368.74 101.362 1376.13 100.944C1380.85 100.677 1385.34 98.8845 1388.71 95.9645C1389.62 95.1727 1390.42 94.2898 1391.08 93.3271C1391.83 94.7136 1392.86 95.9558 1394.16 97.1579C1402.16 104.544 1413.75 104.471 1423.71 100.281C1426.36 99.1643 1428.38 97.3871 1429.95 95.2178C1430.41 94.5831 1430.84 93.9336 1431.22 93.2602C1432.38 94.1469 1433.35 95.1721 1434.36 96.1603C1435.9 97.6664 1437.53 99.0933 1439.85 100.022C1445.32 102.216 1452.38 102.645 1458.46 101.06C1464.7 99.4362 1469.89 95.7222 1471.45 89.7406C1472.25 86.6546 1471.59 83.4513 1469.53 80.8399C1468.97 80.1296 1468.32 79.4902 1467.6 78.9036C1468.52 78.6647 1469.41 78.3891 1470.28 78.0369C1474.43 76.3578 1477.78 73.2286 1478.02 69.0424C1478.31 63.898 1474.24 58.2846 1469.01 56.0511C1467.53 55.4141 1464.4 55.1202 1462.54 55.1121C1462.38 55.0848 1462.2 55.0705 1462.02 55.0899C1461.9 55.1031 1461.78 55.1314 1461.67 55.1668L1461.62 55.1715L1461.56 55.1765C1461.7 52.6882 1461.36 50.7439 1459.67 48.4617C1455.46 42.7706 1446.83 40.9542 1439.71 42.6005C1437.65 43.0766 1435.72 44.0027 1434.44 45.5458C1434.2 45.835 1433.99 46.1356 1433.79 46.4464C1433.54 46.098 1433.31 45.7774 1433.15 45.5941C1431.47 43.6608 1429.62 41.7685 1427.45 40.2498C1422.38 36.6988 1414.72 34.5096 1407.53 34.7558C1402.64 34.9232 1397.97 36.2123 1394.43 38.8952C1392.12 40.6421 1390.27 42.7245 1389.07 45.1941C1388.86 45.6111 1388.69 46.3913 1388.5 47.1539L1388.46 47.3145ZM1462.3 57.4235C1461.89 57.4819 1460.95 57.5809 1460.41 57.5557C1460.01 57.537 1459.71 57.4407 1459.54 57.3562C1458.97 57.0663 1458.8 56.6377 1458.84 56.1907C1459.1 53.6656 1459.07 51.8716 1457.48 49.7229C1453.88 44.861 1446.46 43.4286 1440.37 44.8347C1438.89 45.1771 1437.48 45.8008 1436.56 46.9101C1436.22 47.3226 1435.94 47.7673 1435.71 48.2358C1435.68 48.2899 1435.44 48.8501 1435.39 48.9611C1434.96 49.8936 1433.81 49.6633 1433.8 49.6595C1433.41 49.5615 1432.93 49.2789 1432.5 48.829C1431.95 48.2576 1431.38 47.3559 1431.07 46.997C1429.52 45.2132 1427.82 43.4592 1425.82 42.0582C1421.19 38.8175 1414.2 36.8396 1407.63 37.0642C1403.35 37.211 1399.24 38.2968 1396.14 40.6469C1394.13 42.163 1392.52 43.9645 1391.47 46.1083C1391.28 46.5132 1391.15 47.3495 1390.96 48.0666C1390.76 48.8031 1390.47 49.4412 1390.15 49.7727C1390.08 49.8496 1389.44 50.4645 1388.51 50.0438C1388.32 49.957 1387.42 49.4595 1387.36 49.4293C1386.45 48.9441 1385.54 48.4448 1384.62 47.973C1382.23 46.7577 1379.47 45.6444 1376.68 45.5598C1375.07 45.5111 1373.47 45.7698 1371.94 46.2152C1363.31 48.7268 1360.32 57.0746 1362.96 64.2126C1363.17 64.7852 1362.84 65.3992 1362.23 65.6313C1361.89 65.8244 1361.45 65.878 1361.05 65.7424C1355.41 63.8568 1349.31 63.2845 1343.81 65.9512C1337.36 69.0768 1335.65 77.0496 1341.22 81.5836C1344.27 84.0729 1348.78 85.3611 1352.92 84.9824C1354.33 84.8531 1355.69 84.6024 1356.99 84.0954C1357.43 83.9241 1357.86 83.7397 1358.29 83.5399C1358.37 83.4757 1358.67 83.2423 1358.8 83.1677C1359.08 83.002 1359.35 82.9486 1359.55 82.9391C1359.9 82.9221 1360.2 83.014 1360.45 83.1815C1360.68 83.3329 1360.93 83.5753 1360.99 84.0269C1361.03 84.364 1360.96 84.7947 1360.8 85.2409C1360.68 85.5935 1360.48 85.9659 1360.43 86.243C1360.2 87.5848 1360.25 88.9849 1360.61 90.306C1362.19 96.0814 1369.73 98.9912 1375.96 98.6387C1380.05 98.4069 1383.95 96.8501 1386.87 94.3179C1387.83 93.4884 1388.63 92.54 1389.24 91.4891C1389.44 91.1497 1389.63 90.8028 1389.79 90.4495C1389.85 90.323 1389.92 90.0279 1389.98 89.8872C1390.08 89.6362 1390.22 89.4771 1390.31 89.3991C1390.85 88.9033 1391.42 88.9545 1391.89 89.1778C1392.07 89.2613 1392.45 89.4479 1392.58 90.0123C1393.08 92.21 1394.29 93.9254 1396.06 95.564C1403.23 102.187 1413.65 101.954 1422.58 98.197C1424.78 97.27 1426.43 95.7764 1427.73 93.976C1428.18 93.3627 1428.6 92.7346 1428.96 92.0805C1428.98 91.996 1429.1 91.4097 1429.19 91.1941C1429.31 90.9056 1429.49 90.7022 1429.67 90.572C1429.95 90.3636 1430.27 90.266 1430.61 90.2694C1430.85 90.2718 1431.13 90.3214 1431.43 90.4959C1433.38 91.6398 1434.81 93.1516 1436.31 94.6141C1437.62 95.8914 1438.97 97.1321 1440.93 97.9198C1445.86 99.898 1452.24 100.274 1457.72 98.8449C1463.05 97.4559 1467.55 94.3387 1468.89 89.2224C1469.53 86.774 1469.02 84.231 1467.38 82.1591C1466.81 81.4433 1466.13 80.8192 1465.38 80.2518C1465.35 80.226 1464.18 79.441 1463.95 79.265C1463.22 78.6939 1463.54 78.0012 1463.57 77.9233C1463.66 77.7475 1463.82 77.5005 1464.2 77.319C1464.48 77.1814 1465.64 76.988 1465.86 76.9368C1466.99 76.6697 1468.12 76.3722 1469.19 75.9382C1472.45 74.6146 1475.21 72.2255 1475.4 68.9259C1475.64 64.643 1472.21 59.9886 1467.87 58.129C1466.58 57.5777 1463.79 57.4018 1462.3 57.4235Z" fill="#293896"/>
<path fill-rule="evenodd" clip-rule="evenodd" d="M888.289 145.951C887.391 144.753 886.504 143.568 885.146 142.591C879.184 138.3 870.375 138.613 864.697 143.135C862.823 144.628 861.563 146.434 860.835 148.554C860.617 149.19 860.441 149.835 860.315 150.49C859.855 150.337 859.398 150.128 858.932 149.93C857.745 149.426 856.524 148.955 855.228 148.919C849.443 148.757 845.073 153.574 844.106 158.282C842.44 157.96 840.594 157.549 837.066 158.759C829.544 161.34 825.488 169.547 829.697 175.832C832.169 179.522 837.673 182.12 842.562 181.87C844.43 181.775 846.226 181.341 847.928 180.662C848.05 180.613 848.171 180.563 848.292 180.513C848.159 185.619 848.271 189.639 854.77 192.799C859.97 195.327 865.594 195.443 870.872 193.021C872.513 192.268 874.056 191.198 875.33 190.023C875.411 189.949 876.012 189.279 876.457 188.781C877.364 189.175 878.254 189.78 879.126 190.416C880.415 191.356 881.651 192.378 882.789 193.092C888.359 196.585 895.669 199.479 902.685 198.689C907.813 198.112 912.566 196.209 916.498 193.263C917.836 192.261 919.111 191.171 920.113 189.892C920.333 189.61 920.541 189.32 920.739 189.025C921.355 189.44 921.947 189.941 922.54 190.448C923.628 191.379 924.712 192.336 925.864 193.005C931.44 196.241 939.019 196.108 944.677 193.032C949.18 190.585 952.516 186.411 953.308 181.773C953.568 180.243 953.539 178.62 952.973 177.14C952.886 176.914 952.792 176.693 952.687 176.477C953.715 176.364 954.793 176.336 955.758 176.144C961.507 174.998 966.667 171.241 966.9 165.725C967.236 157.845 959.768 153.267 951.739 151.949C949.876 151.643 947.983 151.577 946.102 151.795C945.731 151.838 945.305 151.982 944.882 152.175L944.628 152.288C944.595 152.163 944.565 152.035 944.535 151.906C944.406 151.36 944.291 150.807 944.119 150.376C943.343 148.44 942.323 146.567 941.14 144.8C934.874 135.442 923.17 129.416 910.768 131.367C903.734 132.473 897.108 135.254 892.352 140.006C890.723 141.633 889.331 143.39 888.489 145.441C888.419 145.61 888.352 145.78 888.289 145.951ZM949.976 176.854C950.188 177.179 950.351 177.52 950.487 177.877C950.921 179.011 950.914 180.258 950.714 181.43C950.036 185.404 947.158 188.969 943.3 191.066C938.49 193.681 932.047 193.827 927.307 191.076C926.284 190.482 925.334 189.618 924.367 188.791C923.241 187.827 922.091 186.912 920.852 186.357C920.248 186.087 919.765 186.201 919.36 186.475C919.214 186.574 919.07 186.712 918.957 186.9C918.89 187.011 918.79 187.311 918.752 187.428C918.507 187.824 918.243 188.21 917.953 188.581C917.082 189.693 915.963 190.632 914.799 191.504C911.256 194.158 906.974 195.877 902.352 196.398C895.978 197.115 889.372 194.384 884.31 191.21C882.985 190.379 881.526 189.111 880.001 188.072C878.846 187.285 877.649 186.627 876.454 186.293C876.321 186.256 875.656 186.082 875.051 186.636C874.761 186.902 873.565 188.306 873.434 188.427C872.354 189.422 871.051 190.334 869.66 190.972C865.195 193.021 860.437 192.915 856.038 190.776C849.842 187.764 850.871 183.704 850.963 178.572C850.972 178.081 850.725 177.813 850.523 177.649C850.262 177.438 849.934 177.316 849.522 177.34C849.339 177.35 849.07 177.401 848.785 177.569C848.666 177.639 848.376 177.859 848.301 177.917C847.825 178.147 847.34 178.36 846.845 178.557C845.438 179.119 843.955 179.485 842.41 179.564C838.437 179.767 833.965 177.657 831.956 174.658C828.558 169.584 831.944 162.995 838.018 160.912C841.789 159.619 843.304 160.606 845.093 160.78C845.45 160.814 845.807 160.719 846.081 160.516C846.356 160.313 846.524 160.019 846.546 159.704C846.691 157.678 847.667 155.498 849.234 153.841C850.721 152.269 852.752 151.161 855.145 151.228C856.079 151.254 856.938 151.648 857.793 152.011C858.983 152.516 860.164 152.988 861.377 153.031C861.378 153.031 862.593 153.004 862.735 151.992C862.756 151.842 862.861 151.091 862.869 151.046C862.978 150.428 863.141 149.82 863.346 149.222C863.933 147.512 864.945 146.052 866.456 144.849C871.185 141.082 878.521 140.806 883.486 144.38C885.441 145.787 886.294 147.691 887.814 149.352C888.192 149.766 888.603 149.823 888.873 149.829C889.266 149.839 889.641 149.723 889.947 149.404C890.065 149.281 890.217 149.064 890.284 148.748C890.33 148.536 890.313 148.117 890.368 147.923C890.532 147.35 890.726 146.784 890.955 146.228C891.684 144.452 892.91 142.942 894.319 141.533C898.681 137.175 904.778 134.656 911.229 133.641C922.539 131.862 933.166 137.439 938.88 145.973C939.978 147.613 940.926 149.35 941.645 151.145C941.979 151.978 942.094 153.273 942.594 154.053C943.046 154.756 943.723 154.967 944.577 154.81C944.906 154.75 945.295 154.599 945.689 154.414C945.952 154.29 946.21 154.113 946.443 154.086C948.05 153.9 949.667 153.959 951.259 154.22C958.032 155.332 964.56 158.992 964.28 165.639C964.091 170.072 959.8 172.97 955.178 173.89C953.605 174.204 951.748 174.134 950.235 174.59C949.789 174.724 949.571 174.965 949.442 175.187C949.315 175.406 949.262 175.648 949.307 175.915C949.335 176.075 949.405 176.269 949.563 176.467C949.637 176.559 949.877 176.769 949.976 176.854Z" fill="#293896"/>
<path fill-rule="evenodd" clip-rule="evenodd" d="M-6.71141 51.9512C-7.60947 50.7531 -8.49627 49.5685 -9.85439 48.591C-15.8159 44.3001 -24.625 44.6127 -30.303 49.1351C-32.1768 50.6277 -33.4373 52.4335 -34.1646 54.5536C-34.3829 55.1898 -34.5591 55.835 -34.685 56.4897C-35.1453 56.3366 -35.6022 56.1282 -36.0678 55.9305C-37.2554 55.4261 -38.4756 54.9553 -39.7721 54.9191C-45.5568 54.7571 -49.9267 59.5738 -50.8935 64.2822C-52.5604 63.9604 -54.4061 63.5494 -57.9338 64.7595C-65.4564 67.3395 -69.5116 75.5473 -65.3027 81.8317C-62.831 85.5222 -57.3269 88.12 -52.4381 87.8701C-50.5696 87.7747 -48.7742 87.3408 -47.072 86.6616C-46.95 86.6129 -46.8286 86.5634 -46.708 86.5128C-46.8407 91.6193 -46.7292 95.6392 -40.2298 98.7988C-35.0302 101.327 -29.406 101.443 -24.1283 99.0211C-22.4874 98.2682 -20.9444 97.1979 -19.6697 96.0231C-19.5889 95.9485 -18.9877 95.2788 -18.5434 94.781C-17.6364 95.1748 -16.7457 95.7797 -15.8744 96.4157C-14.5855 97.3564 -13.3488 98.3784 -12.2113 99.0918C-6.64059 102.585 0.669327 105.479 7.68496 104.689C12.8127 104.112 17.5663 102.209 21.4983 99.2634C22.8364 98.2608 24.1114 97.1713 25.1126 95.8917C25.3334 95.6096 25.5414 95.3202 25.7389 95.0249C26.3553 95.4396 26.947 95.9407 27.5398 96.448C28.628 97.379 29.7117 98.3361 30.8637 99.0047C36.4402 102.241 44.0189 102.108 49.6772 99.0324C54.1804 96.585 57.5162 92.4114 58.3083 87.7733C58.568 86.2435 58.5391 84.6196 57.9726 83.1395C57.886 82.914 57.7916 82.6934 57.6867 82.4774C58.7148 82.3638 59.7928 82.336 60.758 82.1436C66.5074 80.998 71.6665 77.2412 71.9 71.7249C72.2357 63.8449 64.7684 59.2668 56.739 57.9489C54.8763 57.6432 52.9834 57.5774 51.102 57.795C50.7308 57.838 50.3052 57.9821 49.8824 58.1746L49.6282 58.2882C49.5949 58.1635 49.565 58.0348 49.5348 57.9059C49.4058 57.3595 49.2914 56.8074 49.1186 56.3759C48.343 54.4404 47.3232 52.5673 46.1395 50.7998C39.8738 41.4417 28.17 35.4161 15.7678 37.3668C8.73409 38.4729 2.1077 41.2537 -2.64834 46.0057C-4.27661 47.6325 -5.66856 49.3903 -6.51128 51.4413C-6.58105 51.6104 -6.64767 51.7804 -6.71141 51.9512ZM54.9762 82.8544C55.1881 83.1792 55.3507 83.5205 55.4871 83.8769C55.9212 85.0115 55.9139 86.2576 55.714 87.43C55.0363 91.4042 52.1585 94.9692 48.3 97.0664C43.4899 99.6806 37.0474 99.8271 32.3068 97.0757C31.2836 96.4817 30.3339 95.6179 29.3674 94.7909C28.2411 93.8273 27.091 92.9116 25.8525 92.3574C25.2476 92.0868 24.7653 92.2007 24.3603 92.4754C24.2145 92.5741 24.07 92.7122 23.9567 92.9002C23.8895 93.0114 23.7896 93.3115 23.7521 93.4284C23.5069 93.8236 23.243 94.2101 22.9529 94.5809C22.0824 95.6935 20.9627 96.6319 19.7989 97.5035C16.2557 100.158 11.9736 101.877 7.35238 102.398C0.977516 103.115 -5.6279 100.384 -10.69 97.2099C-12.0154 96.3789 -13.4742 95.1111 -14.9986 94.0724C-16.154 93.2854 -17.3505 92.6269 -18.5463 92.2927C-18.6787 92.2557 -19.3444 92.0818 -19.9493 92.6364C-20.2386 92.9019 -21.4351 94.3065 -21.5657 94.4268C-22.6461 95.4223 -23.9494 96.3341 -25.34 96.9722C-29.8052 99.0211 -34.5633 98.915 -38.9624 96.7763C-45.1581 93.7643 -44.1286 89.7043 -44.0366 84.5718C-44.0277 84.0811 -44.275 83.8129 -44.4772 83.6494C-44.7377 83.4384 -45.0658 83.316 -45.4781 83.3396C-45.6607 83.35 -45.9298 83.4008 -46.2149 83.5687C-46.3339 83.6387 -46.6235 83.8591 -46.699 83.9174C-47.1754 84.1468 -47.6601 84.36 -48.1547 84.5573C-49.5622 85.1191 -51.0449 85.4848 -52.59 85.5638C-56.5626 85.7669 -61.0354 83.6568 -63.0437 80.6579C-66.4416 75.5843 -63.0557 68.9952 -56.9822 66.9121C-53.2108 65.6187 -51.6964 66.6056 -49.9065 66.7795C-49.5501 66.8142 -49.1931 66.719 -48.9188 66.5157C-48.6442 66.3126 -48.4763 66.0192 -48.4537 65.7041C-48.309 63.6783 -47.3327 61.4982 -45.7656 59.8411C-44.2792 58.2691 -42.2478 57.1611 -39.8552 57.2281C-38.9215 57.2542 -38.0625 57.6481 -37.2069 58.0115C-36.0174 58.5165 -34.8361 58.9882 -33.6228 59.0309C-33.6222 59.0309 -32.4073 59.0037 -32.2649 57.9918C-32.2439 57.8421 -32.139 57.0911 -32.1311 57.0456C-32.0218 56.4278 -31.8591 55.8203 -31.6538 55.2219C-31.0673 53.5117 -30.0552 52.0524 -28.5436 50.8485C-23.8151 47.0822 -16.479 46.8062 -11.5141 50.3798C-9.55906 51.7869 -8.70557 53.6907 -7.18615 55.3525C-6.80819 55.7657 -6.39746 55.8226 -6.12704 55.8293C-5.73414 55.8387 -5.35907 55.7228 -5.05272 55.4035C-4.93468 55.2806 -4.78334 55.0639 -4.71567 54.7481C-4.67029 54.5356 -4.68736 54.1167 -4.63175 53.9234C-4.46756 53.3498 -4.27372 52.784 -4.04527 52.2277C-3.31559 50.4523 -2.09045 48.9417 -0.680923 47.5334C3.68143 43.1748 9.77773 40.6556 16.2289 39.6409C27.5395 37.8619 38.166 43.4389 43.8802 51.9731C44.9781 53.6129 45.9258 55.3497 46.6452 57.1449C46.9791 57.9777 47.094 59.2728 47.5944 60.0525C48.0458 60.7557 48.7228 60.9671 49.5773 60.8105C49.9062 60.7502 50.2949 60.5991 50.6894 60.4136C50.9525 60.29 51.2103 60.1126 51.4435 60.0855C53.0505 59.8996 54.6672 59.9587 56.2585 60.22C63.0321 61.3317 69.5604 64.9917 69.2797 71.6385C69.0909 76.072 64.7999 78.9696 60.1784 79.8905C58.6047 80.2044 56.7482 80.1342 55.2346 80.5898C54.7895 80.7238 54.5712 80.9654 54.4422 81.1872C54.3147 81.4057 54.2617 81.6478 54.3074 81.9149C54.3347 82.075 54.4052 82.2695 54.5634 82.467C54.6373 82.5594 54.8768 82.7687 54.9762 82.8544Z" fill="#293896"/>
<path fill-rule="evenodd" clip-rule="evenodd" d="M1918.29 44.9512C1917.39 43.7531 1916.5 42.5685 1915.15 41.591C1909.18 37.3001 1900.37 37.6127 1894.7 42.1351C1892.82 43.6277 1891.56 45.4335 1890.84 47.5536C1890.62 48.1898 1890.44 48.835 1890.31 49.4897C1889.85 49.3366 1889.4 49.1282 1888.93 48.9305C1887.74 48.4261 1886.52 47.9553 1885.23 47.9191C1879.44 47.7571 1875.07 52.5738 1874.11 57.2822C1872.44 56.9604 1870.59 56.5494 1867.07 57.7595C1859.54 60.3395 1855.49 68.5473 1859.7 74.8317C1862.17 78.5222 1867.67 81.12 1872.56 80.8701C1874.43 80.7747 1876.23 80.3408 1877.93 79.6616C1878.05 79.6129 1878.17 79.5634 1878.29 79.5128C1878.16 84.6193 1878.27 88.6392 1884.77 91.7988C1889.97 94.3269 1895.59 94.4426 1900.87 92.0211C1902.51 91.2682 1904.06 90.1979 1905.33 89.0231C1905.41 88.9485 1906.01 88.2788 1906.46 87.781C1907.36 88.1748 1908.25 88.7797 1909.13 89.4157C1910.41 90.3564 1911.65 91.3784 1912.79 92.0918C1918.36 95.5852 1925.67 98.4789 1932.68 97.6891C1937.81 97.1118 1942.57 95.2089 1946.5 92.2634C1947.84 91.2608 1949.11 90.1713 1950.11 88.8917C1950.33 88.6096 1950.54 88.3202 1950.74 88.0249C1951.36 88.4396 1951.95 88.9407 1952.54 89.448C1953.63 90.379 1954.71 91.3361 1955.86 92.0047C1961.44 95.2412 1969.02 95.1077 1974.68 92.0324C1979.18 89.585 1982.52 85.4114 1983.31 80.7733C1983.57 79.2435 1983.54 77.6196 1982.97 76.1395C1982.89 75.914 1982.79 75.6934 1982.69 75.4774C1983.71 75.3638 1984.79 75.336 1985.76 75.1436C1991.51 73.998 1996.67 70.2412 1996.9 64.7249C1997.24 56.8449 1989.77 52.2668 1981.74 50.9489C1979.88 50.6432 1977.98 50.5774 1976.1 50.795C1975.73 50.838 1975.31 50.9821 1974.88 51.1746L1974.63 51.2882C1974.59 51.1635 1974.56 51.0348 1974.53 50.9059C1974.41 50.3595 1974.29 49.8074 1974.12 49.3759C1973.34 47.4404 1972.32 45.5673 1971.14 43.7998C1964.87 34.4417 1953.17 28.4161 1940.77 30.3668C1933.73 31.4729 1927.11 34.2537 1922.35 39.0057C1920.72 40.6325 1919.33 42.3903 1918.49 44.4413C1918.42 44.6104 1918.35 44.7804 1918.29 44.9512ZM1979.98 75.8544C1980.19 76.1792 1980.35 76.5205 1980.49 76.8769C1980.92 78.0115 1980.91 79.2576 1980.71 80.43C1980.04 84.4042 1977.16 87.9692 1973.3 90.0664C1968.49 92.6806 1962.05 92.8271 1957.31 90.0757C1956.28 89.4817 1955.33 88.6179 1954.37 87.7909C1953.24 86.8273 1952.09 85.9116 1950.85 85.3574C1950.25 85.0868 1949.77 85.2007 1949.36 85.4754C1949.21 85.5741 1949.07 85.7122 1948.96 85.9002C1948.89 86.0114 1948.79 86.3115 1948.75 86.4284C1948.51 86.8236 1948.24 87.2101 1947.95 87.5809C1947.08 88.6935 1945.96 89.6319 1944.8 90.5035C1941.26 93.1581 1936.97 94.8771 1932.35 95.3976C1925.98 96.1154 1919.37 93.3843 1914.31 90.2099C1912.98 89.3789 1911.53 88.1111 1910 87.0724C1908.85 86.2854 1907.65 85.6269 1906.45 85.2927C1906.32 85.2557 1905.66 85.0818 1905.05 85.6364C1904.76 85.9019 1903.56 87.3065 1903.43 87.4268C1902.35 88.4223 1901.05 89.3341 1899.66 89.9722C1895.19 92.0211 1890.44 91.915 1886.04 89.7763C1879.84 86.7643 1880.87 82.7043 1880.96 77.5718C1880.97 77.0811 1880.73 76.8129 1880.52 76.6494C1880.26 76.4384 1879.93 76.316 1879.52 76.3396C1879.34 76.35 1879.07 76.4008 1878.79 76.5687C1878.67 76.6387 1878.38 76.8591 1878.3 76.9174C1877.82 77.1468 1877.34 77.36 1876.85 77.5573C1875.44 78.1191 1873.96 78.4848 1872.41 78.5638C1868.44 78.7669 1863.96 76.6568 1861.96 73.6579C1858.56 68.5843 1861.94 61.9952 1868.02 59.9121C1871.79 58.6187 1873.3 59.6056 1875.09 59.7795C1875.45 59.8142 1875.81 59.719 1876.08 59.5157C1876.36 59.3126 1876.52 59.0192 1876.55 58.7041C1876.69 56.6783 1877.67 54.4982 1879.23 52.8411C1880.72 51.2691 1882.75 50.1611 1885.14 50.2281C1886.08 50.2542 1886.94 50.6481 1887.79 51.0115C1888.98 51.5165 1890.16 51.9882 1891.38 52.0309C1891.38 52.0309 1892.59 52.0037 1892.74 50.9918C1892.76 50.8421 1892.86 50.0911 1892.87 50.0456C1892.98 49.4278 1893.14 48.8203 1893.35 48.2219C1893.93 46.5117 1894.94 45.0524 1896.46 43.8485C1901.18 40.0822 1908.52 39.8062 1913.49 43.3798C1915.44 44.7869 1916.29 46.6907 1917.81 48.3525C1918.19 48.7657 1918.6 48.8226 1918.87 48.8293C1919.27 48.8387 1919.64 48.7228 1919.95 48.4035C1920.07 48.2806 1920.22 48.0639 1920.28 47.7481C1920.33 47.5356 1920.31 47.1167 1920.37 46.9234C1920.53 46.3498 1920.73 45.784 1920.95 45.2277C1921.68 43.4523 1922.91 41.9417 1924.32 40.5334C1928.68 36.1748 1934.78 33.6556 1941.23 32.6409C1952.54 30.8619 1963.17 36.4389 1968.88 44.9731C1969.98 46.6129 1970.93 48.3497 1971.65 50.1449C1971.98 50.9777 1972.09 52.2728 1972.59 53.0525C1973.05 53.7557 1973.72 53.9671 1974.58 53.8105C1974.91 53.7502 1975.29 53.5991 1975.69 53.4136C1975.95 53.29 1976.21 53.1126 1976.44 53.0855C1978.05 52.8996 1979.67 52.9587 1981.26 53.22C1988.03 54.3317 1994.56 57.9917 1994.28 64.6385C1994.09 69.072 1989.8 71.9696 1985.18 72.8905C1983.6 73.2044 1981.75 73.1342 1980.23 73.5898C1979.79 73.7238 1979.57 73.9654 1979.44 74.1872C1979.31 74.4057 1979.26 74.6478 1979.31 74.9149C1979.33 75.075 1979.41 75.2695 1979.56 75.467C1979.64 75.5594 1979.88 75.7687 1979.98 75.8544Z" fill="#293896"/>
</svg>
