<svg width="1921" height="225" viewBox="0 0 1921 225" fill="none" xmlns="http://www.w3.org/2000/svg">
<path fill-rule="evenodd" clip-rule="evenodd" d="M507.173 22.1291C506.009 21.3684 504.656 20.7508 503.307 20.2953C499.12 18.8804 494.193 17.2235 488.831 19.6767C484.901 21.4751 482.607 23.5402 481.34 25.7595C479.724 28.5878 479.778 31.71 480.426 35.0024C476.664 34.0136 472.75 33.6311 468.921 34.912C464.317 36.4527 461.358 39.5038 460.386 42.962C459.412 46.4281 460.416 50.3315 463.857 53.5902C466.964 56.5332 471.479 58.6057 476.066 58.8833C477.696 58.9813 479.416 58.7842 480.98 58.3528C481.319 58.2582 481.653 58.1405 481.979 58.0075C482.2 58.5177 482.388 59.1134 482.615 59.7365C483.076 61.0076 483.645 62.375 484.601 63.5245C489.653 69.6 499.44 71.2083 506.857 67.8591C508.847 66.9601 510.472 65.6027 511.882 64.0959C512.07 63.8935 512.313 63.5304 512.572 63.1393C513.1 63.7125 513.651 64.2691 514.257 64.778C516.402 66.5817 519.177 67.8434 522.067 68.4224C525.839 69.1769 529.857 68.8599 533.452 67.6113C534.666 67.1891 535.825 66.6721 536.939 66.0733C537.109 65.9812 537.357 65.77 537.577 65.5661C538.631 66.5879 539.44 67.9357 540.585 68.8847C545.094 72.6219 550.916 74.5661 557.127 74.3099C566.328 73.9312 576.419 70.0203 581.117 62.7218C581.945 61.4346 582.24 60.148 582.423 58.9702C582.522 58.3293 582.569 57.728 582.702 57.2025C583.344 57.2609 584.297 57.3471 584.426 57.3603C587.38 57.6572 590.257 58.35 593.224 58.6071C602.749 59.4303 612.898 54.3399 613.653 45.2084C614.062 40.2579 611.806 34.816 607.572 31.4718C602.318 27.3219 593.858 25.2551 584.177 27.0424C582.861 24.6484 580 19.9831 578.089 18.4787C572.64 14.19 568.126 12.2718 560.707 12.0681C555.621 11.9286 550.712 13.1227 546.379 15.4894C544.925 16.2833 543.503 17.1753 542.235 18.1876C542.225 18.1971 542.009 18.397 541.739 18.6481C541.294 17.9172 540.701 16.9616 540.486 16.6877C539.05 14.8464 537.063 13.2565 534.807 12.2325C531.3 10.6397 527.144 10.086 523.241 10.2998C518.336 10.5686 514.547 12.0118 511.81 14.3828C509.545 16.3468 507.995 18.961 507.173 22.1291ZM543.985 19.8372L543.981 19.8398C543.761 20.0447 542.749 20.9955 542.527 21.2007C541.834 21.84 541.002 21.4788 540.993 21.4741C540.679 21.3386 540.218 20.9449 539.811 20.3543C539.265 19.5635 538.665 18.3358 538.376 17.9661C537.173 16.4271 535.519 15.094 533.635 14.2382C530.531 12.8296 526.851 12.3629 523.401 12.5521C519.208 12.7819 515.946 13.9648 513.608 15.9911C511.257 18.0291 509.852 20.8997 509.304 24.414C509.227 24.9117 508.922 25.1345 508.704 25.2586C508.389 25.436 508.021 25.5061 507.593 25.3861C507.433 25.3408 507.194 25.2403 506.968 25.0252C506.876 24.9393 506.663 24.6873 506.605 24.6167C506.312 24.3979 506.034 24.197 505.729 23.9936C504.73 23.3293 503.555 22.7962 502.39 22.4021C498.807 21.1912 494.6 19.5796 490.014 21.6791C486.691 23.1995 484.7 24.8974 483.628 26.7739C482.028 29.5747 482.462 32.7139 483.259 36.021C483.533 36.3193 483.628 36.733 483.466 37.119C483.223 37.7037 482.487 38.0047 481.824 37.7903C477.953 36.5425 473.843 35.6795 469.831 37.0216C466.101 38.2695 463.66 40.7035 462.873 43.5047C462.087 46.2978 462.959 49.4275 465.732 52.0528C468.41 54.5895 472.29 56.3924 476.242 56.6328C477.56 56.7109 478.948 56.5495 480.211 56.1991C480.675 56.0711 481.115 55.8819 481.538 55.6778C481.566 55.6647 481.858 55.5178 481.916 55.4896C482.882 55.0346 483.553 55.8 483.579 55.8318C484.075 56.4555 484.446 57.3525 484.811 58.3688C485.252 59.5961 485.705 61.0316 486.669 62.1904C490.983 67.3809 499.354 68.7111 505.689 65.8497C507.365 65.0928 508.714 63.9304 509.902 62.6608C510.19 62.354 510.599 61.5907 511.014 61.0807C511.351 60.6661 511.729 60.3745 512.049 60.2399C512.109 60.2135 513.009 59.8653 513.642 60.5973C513.759 60.734 514.309 61.4428 514.426 61.5718C514.927 62.1209 515.449 62.6594 516.027 63.1463C517.842 64.6715 520.192 65.7314 522.635 66.221C525.907 66.877 529.391 66.5957 532.511 65.5108C533.578 65.1408 534.597 64.6871 535.576 64.1613C535.608 64.1305 535.829 63.9129 535.943 63.7941C536.174 63.5507 536.418 63.3417 536.642 63.2137C537.309 62.8318 537.96 62.8255 538.599 63.3016C540.022 64.3639 540.948 66.0866 542.341 67.242C546.34 70.5552 551.501 72.2819 557.008 72.0562C565.378 71.7122 574.615 68.2469 578.887 61.6091C579.678 60.3783 579.82 59.1382 579.971 58.0616C580.103 57.1322 580.252 56.2976 580.608 55.6129C580.724 55.3848 580.991 55.0498 581.598 54.9344C582.141 54.8318 584.443 55.0902 584.717 55.1178C587.658 55.4153 590.522 56.1049 593.473 56.3609C601.63 57.0653 610.451 52.8632 611.098 45.0443C611.453 40.7614 609.524 36.045 605.861 33.1518C600.943 29.2665 592.893 27.511 583.752 29.4389C583.152 29.5655 582.535 29.2973 582.283 28.8011C581.405 27.0633 578.368 21.7251 576.383 20.1613C571.439 16.2714 567.356 14.5084 560.625 14.3237C556.047 14.198 551.631 15.2764 547.729 17.4071C546.418 18.1236 545.133 18.9252 543.985 19.8372Z" fill="#293896"/>
<path fill-rule="evenodd" clip-rule="evenodd" d="M1656.17 154.127C1655.01 153.366 1653.66 152.749 1652.31 152.293C1648.12 150.878 1643.19 149.222 1637.83 151.675C1633.9 153.473 1631.61 155.538 1630.34 157.758C1628.72 160.586 1628.78 163.708 1629.43 167C1625.66 166.012 1621.75 165.629 1617.92 166.91C1613.32 168.451 1610.36 171.502 1609.39 174.96C1608.41 178.426 1609.42 182.33 1612.86 185.588C1615.96 188.531 1620.48 190.604 1625.07 190.881C1626.7 190.979 1628.42 190.782 1629.98 190.351C1630.32 190.256 1630.65 190.139 1630.98 190.006C1631.2 190.516 1631.39 191.111 1631.62 191.735C1632.08 193.006 1632.65 194.373 1633.6 195.523C1638.65 201.598 1648.44 203.206 1655.86 199.857C1657.85 198.958 1659.47 197.601 1660.88 196.094C1661.07 195.892 1661.31 195.528 1661.57 195.137C1662.1 195.711 1662.65 196.267 1663.26 196.776C1665.4 198.58 1668.18 199.841 1671.07 200.42C1674.84 201.175 1678.86 200.858 1682.45 199.609C1683.67 199.187 1684.83 198.67 1685.94 198.071C1686.11 197.979 1686.36 197.768 1686.58 197.564C1687.63 198.586 1688.44 199.934 1689.59 200.883C1694.09 204.62 1699.92 206.564 1706.13 206.308C1715.33 205.929 1725.42 202.018 1730.12 194.72C1730.94 193.433 1731.24 192.146 1731.42 190.968C1731.52 190.327 1731.57 189.726 1731.7 189.201C1732.34 189.259 1733.3 189.345 1733.43 189.358C1736.38 189.655 1739.26 190.348 1742.22 190.605C1751.75 191.428 1761.9 186.338 1762.65 177.206C1763.06 172.256 1760.81 166.814 1756.57 163.47C1751.32 159.32 1742.86 157.253 1733.18 159.04C1731.86 156.646 1729 151.981 1727.09 150.477C1721.64 146.188 1717.13 144.27 1709.71 144.066C1704.62 143.927 1699.71 145.121 1695.38 147.487C1693.92 148.281 1692.5 149.173 1691.24 150.186C1691.22 150.195 1691.01 150.395 1690.74 150.646C1690.29 149.915 1689.7 148.96 1689.49 148.686C1688.05 146.844 1686.06 145.255 1683.81 144.231C1680.3 142.638 1676.14 142.084 1672.24 142.298C1667.34 142.567 1663.55 144.01 1660.81 146.381C1658.55 148.345 1657 150.959 1656.17 154.127ZM1692.99 151.835L1692.98 151.838C1692.76 152.043 1691.75 152.994 1691.53 153.199C1690.83 153.838 1690 153.477 1689.99 153.472C1689.68 153.337 1689.22 152.943 1688.81 152.352C1688.26 151.562 1687.66 150.334 1687.38 149.964C1686.17 148.425 1684.52 147.092 1682.64 146.236C1679.53 144.828 1675.85 144.361 1672.4 144.55C1668.21 144.78 1664.95 145.963 1662.61 147.989C1660.26 150.027 1658.85 152.898 1658.3 156.412C1658.23 156.91 1657.92 157.133 1657.7 157.257C1657.39 157.434 1657.02 157.504 1656.59 157.384C1656.43 157.339 1656.19 157.238 1655.97 157.023C1655.88 156.937 1655.66 156.685 1655.61 156.615C1655.31 156.396 1655.03 156.195 1654.73 155.992C1653.73 155.327 1652.56 154.794 1651.39 154.4C1647.81 153.189 1643.6 151.578 1639.01 153.677C1635.69 155.198 1633.7 156.895 1632.63 158.772C1631.03 161.573 1631.46 164.712 1632.26 168.019C1632.53 168.317 1632.63 168.731 1632.47 169.117C1632.22 169.702 1631.49 170.003 1630.82 169.788C1626.95 168.541 1622.84 167.678 1618.83 169.02C1615.1 170.268 1612.66 172.702 1611.87 175.503C1611.09 178.296 1611.96 181.426 1614.73 184.051C1617.41 186.588 1621.29 188.39 1625.24 188.631C1626.56 188.709 1627.95 188.548 1629.21 188.197C1629.67 188.069 1630.11 187.88 1630.54 187.676C1630.57 187.663 1630.86 187.516 1630.92 187.488C1631.88 187.033 1632.55 187.798 1632.58 187.83C1633.07 188.454 1633.45 189.351 1633.81 190.367C1634.25 191.594 1634.71 193.03 1635.67 194.188C1639.98 199.379 1648.35 200.709 1654.69 197.848C1656.37 197.091 1657.71 195.928 1658.9 194.659C1659.19 194.352 1659.6 193.589 1660.01 193.079C1660.35 192.664 1660.73 192.373 1661.05 192.238C1661.11 192.212 1662.01 191.863 1662.64 192.595C1662.76 192.732 1663.31 193.441 1663.43 193.57C1663.93 194.119 1664.45 194.657 1665.03 195.144C1666.84 196.669 1669.19 197.729 1671.64 198.219C1674.91 198.875 1678.39 198.594 1681.51 197.509C1682.58 197.139 1683.6 196.685 1684.58 196.159C1684.61 196.129 1684.83 195.911 1684.94 195.792C1685.17 195.549 1685.42 195.34 1685.64 195.212C1686.31 194.83 1686.96 194.824 1687.6 195.3C1689.02 196.362 1689.95 198.085 1691.34 199.24C1695.34 202.553 1700.5 204.28 1706.01 204.054C1714.38 203.71 1723.61 200.245 1727.89 193.607C1728.68 192.376 1728.82 191.136 1728.97 190.06C1729.1 189.13 1729.25 188.296 1729.61 187.611C1729.72 187.383 1729.99 187.048 1730.6 186.932C1731.14 186.83 1733.44 187.088 1733.72 187.116C1736.66 187.413 1739.52 188.103 1742.47 188.359C1750.63 189.063 1759.45 184.861 1760.1 177.042C1760.45 172.759 1758.52 168.043 1754.86 165.15C1749.94 161.265 1741.89 159.509 1732.75 161.437C1732.15 161.564 1731.54 161.295 1731.28 160.799C1730.4 159.061 1727.37 153.723 1725.38 152.159C1720.44 148.269 1716.36 146.506 1709.63 146.322C1705.05 146.196 1700.63 147.274 1696.73 149.405C1695.42 150.122 1694.13 150.923 1692.99 151.835Z" fill="#293896"/>
<path fill-rule="evenodd" clip-rule="evenodd" d="M216.198 153.982C215.376 153.544 214.557 153.097 213.726 152.673C211.045 151.306 207.919 150.108 204.782 150.013C202.898 149.956 201.044 150.247 199.259 150.766C190.198 153.4 186.451 161.615 188.262 169.246C182.653 167.723 176.738 167.596 171.345 170.21C163.554 173.987 161.583 183.634 168.309 189.114C171.818 191.971 176.991 193.456 181.748 193.021C183.302 192.879 184.79 192.601 186.227 192.074C186.023 193.546 186.11 195.065 186.505 196.505C188.332 203.2 196.934 206.777 204.151 206.368C208.764 206.107 213.148 204.356 216.44 201.504C217.331 200.73 218.114 199.868 218.757 198.928C219.485 200.282 220.496 201.495 221.768 202.67C229.575 209.884 240.903 209.813 250.627 205.721C253.219 204.63 255.188 202.893 256.721 200.775C257.17 200.155 257.593 199.52 257.966 198.862C259.1 199.728 260.043 200.73 261.031 201.695C262.536 203.166 264.131 204.56 266.39 205.467C271.734 207.611 278.636 208.029 284.577 206.482C290.666 204.895 295.734 201.267 297.258 195.424C298.048 192.41 297.402 189.281 295.387 186.73C294.84 186.036 294.204 185.412 293.505 184.839C294.395 184.605 295.272 184.336 296.121 183.992C300.17 182.352 303.44 179.295 303.677 175.206C303.963 170.181 299.983 164.698 294.883 162.516C293.431 161.894 290.378 161.607 288.561 161.599C288.405 161.572 288.23 161.558 288.054 161.577C287.933 161.59 287.816 161.618 287.711 161.653L287.662 161.657L287.597 161.662C287.738 159.231 287.409 157.332 285.759 155.103C281.645 149.544 273.211 147.77 266.257 149.378C264.244 149.843 262.363 150.747 261.111 152.255C260.878 152.537 260.667 152.831 260.475 153.134C260.228 152.794 260.006 152.481 259.851 152.302C258.212 150.413 256.403 148.565 254.286 147.081C249.331 143.613 241.851 141.474 234.824 141.715C230.046 141.879 225.485 143.138 222.026 145.758C219.771 147.465 217.968 149.499 216.789 151.911C216.591 152.318 216.42 153.081 216.236 153.825L216.198 153.982ZM288.327 163.857C287.922 163.914 287.009 164.011 286.48 163.986C286.088 163.968 285.793 163.874 285.629 163.791C285.067 163.508 284.901 163.089 284.946 162.653C285.198 160.186 285.165 158.434 283.612 156.335C280.097 151.586 272.849 150.187 266.905 151.56C265.46 151.895 264.079 152.504 263.179 153.587C262.845 153.99 262.576 154.425 262.352 154.882C262.326 154.935 262.086 155.482 262.036 155.591C261.619 156.502 260.5 156.277 260.484 156.273C260.105 156.177 259.64 155.901 259.215 155.462C258.675 154.904 258.122 154.023 257.815 153.672C256.305 151.93 254.643 150.216 252.692 148.848C248.172 145.682 241.335 143.75 234.922 143.97C230.737 144.113 226.725 145.174 223.694 147.469C221.739 148.95 220.166 150.71 219.141 152.804C218.949 153.2 218.826 154.017 218.635 154.717C218.441 155.436 218.157 156.06 217.848 156.383C217.776 156.459 217.152 157.059 216.247 156.648C216.061 156.564 215.179 156.078 215.125 156.048C214.231 155.574 213.345 155.086 212.442 154.626C210.114 153.438 207.417 152.351 204.694 152.268C203.114 152.221 201.557 152.474 200.062 152.909C191.626 155.362 188.711 163.516 191.284 170.488C191.491 171.048 191.176 171.648 190.571 171.874C190.242 172.063 189.815 172.115 189.419 171.983C183.915 170.141 177.955 169.582 172.58 172.187C166.281 175.24 164.61 183.028 170.05 187.457C173.036 189.888 177.438 191.146 181.482 190.777C182.863 190.65 184.184 190.405 185.454 189.91C185.883 189.743 186.306 189.563 186.722 189.368C186.801 189.305 187.098 189.077 187.223 189.004C187.5 188.842 187.766 188.79 187.958 188.781C188.302 188.764 188.594 188.854 188.838 189.017C189.061 189.165 189.304 189.402 189.362 189.843C189.407 190.173 189.334 190.593 189.18 191.029C189.058 191.374 188.868 191.737 188.821 192.008C188.59 193.319 188.641 194.686 188.994 195.977C190.535 201.618 197.905 204.46 203.987 204.116C207.986 203.89 211.788 202.369 214.642 199.895C215.579 199.085 216.365 198.159 216.962 197.132C217.157 196.801 217.338 196.462 217.498 196.117C217.556 195.993 217.621 195.705 217.678 195.568C217.779 195.322 217.92 195.167 218.001 195.091C218.532 194.607 219.087 194.657 219.55 194.875C219.721 194.956 220.093 195.139 220.22 195.69C220.712 197.837 221.888 199.512 223.621 201.113C230.624 207.582 240.801 207.355 249.523 203.685C251.674 202.779 253.288 201.32 254.56 199.562C254.994 198.962 255.403 198.349 255.754 197.71C255.774 197.627 255.898 197.055 255.984 196.844C256.102 196.562 256.279 196.364 256.449 196.237C256.722 196.033 257.032 195.938 257.374 195.941C257.607 195.943 257.876 195.992 258.167 196.162C260.073 197.28 261.475 198.756 262.935 200.185C264.212 201.432 265.537 202.644 267.454 203.414C272.269 205.346 278.496 205.713 283.851 204.317C289.059 202.961 293.457 199.916 294.763 194.918C295.387 192.527 294.883 190.043 293.283 188.019C292.732 187.32 292.066 186.71 291.334 186.156C291.302 186.13 290.156 185.364 289.936 185.192C289.222 184.634 289.532 183.957 289.567 183.881C289.648 183.709 289.811 183.468 290.178 183.291C290.453 183.156 291.584 182.968 291.797 182.918C292.909 182.657 294.006 182.366 295.051 181.942C298.242 180.649 300.933 178.315 301.117 175.092C301.356 170.909 298.009 166.363 293.763 164.546C292.506 164.007 289.783 163.836 288.327 163.857Z" fill="#293896"/>
<path fill-rule="evenodd" clip-rule="evenodd" d="M1339.2 16.9824C1338.38 16.5441 1337.56 16.0973 1336.73 15.6727C1334.04 14.3058 1330.92 13.1082 1327.78 13.0131C1325.9 12.9562 1324.04 13.2469 1322.26 13.7659C1313.2 16.4003 1309.45 24.6154 1311.26 32.2464C1305.65 30.7232 1299.74 30.596 1294.34 33.2099C1286.55 36.9871 1284.58 46.6342 1291.31 52.1135C1294.82 54.9715 1299.99 56.4559 1304.75 56.0209C1306.3 55.879 1307.79 55.6006 1309.23 55.0741C1309.02 56.5463 1309.11 58.0648 1309.5 59.5047C1311.33 66.1997 1319.93 69.7766 1327.15 69.368C1331.76 69.1068 1336.15 67.3562 1339.44 64.5039C1340.33 63.7304 1341.11 62.8681 1341.76 61.9277C1342.48 63.282 1343.5 64.4954 1344.77 65.6696C1352.57 72.8843 1363.9 72.8132 1373.63 68.7207C1376.22 67.6295 1378.19 65.8935 1379.72 63.7745C1380.17 63.1545 1380.59 62.5201 1380.97 61.8623C1382.1 62.7284 1383.04 63.7299 1384.03 64.6952C1385.54 66.1663 1387.13 67.5602 1389.39 68.4673C1394.73 70.6108 1401.64 71.0295 1407.58 69.4816C1413.67 67.8951 1418.73 64.2673 1420.26 58.4243C1421.05 55.41 1420.4 52.2809 1418.39 49.7301C1417.84 49.0363 1417.2 48.4117 1416.51 47.8388C1417.4 47.6053 1418.27 47.3361 1419.12 46.9921C1423.17 45.352 1426.44 42.2954 1426.68 38.2063C1426.96 33.1812 1422.98 27.698 1417.88 25.5163C1416.43 24.8941 1413.38 24.607 1411.56 24.5991C1411.4 24.5724 1411.23 24.5584 1411.05 24.5774C1410.93 24.5903 1410.82 24.6179 1410.71 24.6525L1410.66 24.6571L1410.6 24.662C1410.74 22.2314 1410.41 20.3322 1408.76 18.1029C1404.65 12.5438 1396.21 10.7696 1389.26 12.3777C1387.24 12.8428 1385.36 13.7474 1384.11 15.2547C1383.88 15.5371 1383.67 15.8308 1383.47 16.1344C1383.23 15.794 1383.01 15.4809 1382.85 15.3018C1381.21 13.4134 1379.4 11.565 1377.29 10.0815C1372.33 6.61287 1364.85 4.47447 1357.82 4.71493C1353.05 4.87851 1348.48 6.13769 1345.03 8.75835C1342.77 10.4647 1340.97 12.4988 1339.79 14.9111C1339.59 15.3185 1339.42 16.0806 1339.24 16.8255L1339.2 16.9824ZM1411.33 26.8569C1410.92 26.9139 1410.01 27.0106 1409.48 26.986C1409.09 26.9677 1408.79 26.8737 1408.63 26.7911C1408.07 26.508 1407.9 26.0893 1407.95 25.6526C1408.2 23.1861 1408.17 21.4337 1406.61 19.3349C1403.1 14.5857 1395.85 13.1866 1389.91 14.5601C1388.46 14.8946 1387.08 15.5037 1386.18 16.5873C1385.84 16.9903 1385.58 17.4246 1385.35 17.8822C1385.33 17.9351 1385.09 18.4823 1385.04 18.5908C1384.62 19.5016 1383.5 19.2767 1383.48 19.2729C1383.11 19.1772 1382.64 18.9012 1382.22 18.4617C1381.68 17.9036 1381.12 17.0228 1380.82 16.6722C1379.3 14.9298 1377.64 13.2164 1375.69 11.848C1371.17 8.6824 1364.33 6.7504 1357.92 6.96985C1353.74 7.11323 1349.72 8.17385 1346.69 10.4694C1344.74 11.9504 1343.17 13.7101 1342.14 15.8041C1341.95 16.1996 1341.83 17.0165 1341.63 17.717C1341.44 18.4365 1341.16 19.0597 1340.85 19.3835C1340.78 19.4586 1340.15 20.0593 1339.25 19.6483C1339.06 19.5635 1338.18 19.0776 1338.13 19.0481C1337.23 18.5742 1336.35 18.0864 1335.44 17.6256C1333.11 16.4385 1330.42 15.3509 1327.69 15.2683C1326.11 15.2207 1324.56 15.4735 1323.06 15.9086C1314.63 18.3619 1311.71 26.516 1314.28 33.4885C1314.49 34.0479 1314.18 34.6475 1313.57 34.8743C1313.24 35.0629 1312.81 35.1153 1312.42 34.9828C1306.91 33.141 1300.96 32.5819 1295.58 35.1868C1289.28 38.2399 1287.61 46.0277 1293.05 50.4565C1296.04 52.8881 1300.44 54.1464 1304.48 53.7766C1305.86 53.6502 1307.18 53.4053 1308.45 52.9101C1308.88 52.7427 1309.31 52.5627 1309.72 52.3675C1309.8 52.3048 1310.1 52.0768 1310.22 52.0039C1310.5 51.842 1310.77 51.7899 1310.96 51.7807C1311.3 51.764 1311.59 51.8538 1311.84 52.0174C1312.06 52.1653 1312.3 52.402 1312.36 52.8432C1312.41 53.1725 1312.33 53.5932 1312.18 54.029C1312.06 54.3735 1311.87 54.7372 1311.82 55.0079C1311.59 56.3186 1311.64 57.6862 1311.99 58.9766C1313.54 64.6181 1320.9 67.4604 1326.99 67.1161C1330.99 66.8896 1334.79 65.369 1337.64 62.8955C1338.58 62.0853 1339.37 61.1588 1339.96 60.1324C1340.16 59.8008 1340.34 59.462 1340.5 59.1168C1340.56 58.9933 1340.62 58.705 1340.68 58.5676C1340.78 58.3224 1340.92 58.167 1341 58.0908C1341.53 57.6065 1342.09 57.6565 1342.55 57.8746C1342.72 57.9562 1343.09 58.1385 1343.22 58.6898C1343.71 60.8365 1344.89 62.5121 1346.62 64.1127C1353.62 70.5821 1363.8 70.3546 1372.52 66.6846C1374.67 65.7791 1376.29 64.3202 1377.56 62.5616C1377.99 61.9624 1378.4 61.3489 1378.75 60.71C1378.77 60.6274 1378.9 60.0548 1378.98 59.8441C1379.1 59.5624 1379.28 59.3637 1379.45 59.2365C1379.72 59.0329 1380.03 58.9375 1380.37 58.9409C1380.61 58.9432 1380.88 58.9917 1381.17 59.1622C1383.07 60.2795 1384.48 61.7563 1385.94 63.1848C1387.21 64.4325 1388.54 65.6444 1390.45 66.4139C1395.27 68.3462 1401.5 68.7133 1406.85 67.3175C1412.06 65.9607 1416.46 62.9158 1417.76 57.9182C1418.39 55.5266 1417.88 53.0425 1416.28 51.0188C1415.73 50.3195 1415.07 49.7099 1414.33 49.1556C1414.3 49.1305 1413.16 48.3637 1412.94 48.1917C1412.22 47.6339 1412.53 46.9572 1412.57 46.8811C1412.65 46.7095 1412.81 46.4682 1413.18 46.2909C1413.45 46.1565 1414.58 45.9676 1414.8 45.9176C1415.91 45.6566 1417.01 45.366 1418.05 44.9421C1421.24 43.6492 1423.93 41.3155 1424.12 38.0924C1424.36 33.9089 1421.01 29.3625 1416.76 27.546C1415.51 27.0075 1412.78 26.8356 1411.33 26.8569Z" fill="#293896"/>
<path fill-rule="evenodd" clip-rule="evenodd" d="M803.89 172.604C803.013 171.434 802.147 170.277 800.82 169.322C794.997 165.131 786.392 165.436 780.846 169.854C779.015 171.312 777.784 173.076 777.074 175.146C776.861 175.768 776.688 176.398 776.565 177.038C776.116 176.888 775.669 176.685 775.215 176.491C774.055 175.999 772.863 175.539 771.596 175.503C765.946 175.345 761.677 180.05 760.733 184.649C759.105 184.335 757.302 183.934 753.856 185.116C746.508 187.636 742.547 195.653 746.658 201.792C749.072 205.397 754.449 207.934 759.224 207.69C761.049 207.597 762.803 207.173 764.466 206.51C764.585 206.462 764.704 206.414 764.821 206.364C764.692 211.352 764.801 215.279 771.149 218.365C776.228 220.835 781.722 220.948 786.877 218.582C788.48 217.847 789.987 216.802 791.233 215.654C791.311 215.581 791.899 214.927 792.333 214.441C793.219 214.825 794.089 215.416 794.94 216.038C796.199 216.956 797.407 217.955 798.518 218.652C803.959 222.064 811.1 224.891 817.953 224.119C822.961 223.555 827.605 221.696 831.446 218.819C832.753 217.84 833.998 216.776 834.976 215.526C835.192 215.25 835.395 214.967 835.588 214.679C836.19 215.084 836.768 215.574 837.347 216.069C838.41 216.978 839.469 217.913 840.594 218.566C846.041 221.728 853.444 221.598 858.971 218.594C863.37 216.203 866.628 212.126 867.402 207.596C867.655 206.101 867.627 204.515 867.074 203.069C866.989 202.849 866.897 202.634 866.795 202.423C867.799 202.312 868.852 202.284 869.795 202.096C875.411 200.977 880.45 197.308 880.678 191.919C881.006 184.222 873.712 179.75 865.869 178.463C864.049 178.164 862.2 178.1 860.363 178.313C860 178.355 859.584 178.495 859.171 178.683L858.923 178.794C858.89 178.673 858.861 178.547 858.832 178.421C858.706 177.887 858.594 177.348 858.425 176.926C857.668 175.036 856.671 173.206 855.515 171.48C849.395 162.339 837.963 156.453 825.848 158.358C818.977 159.439 812.505 162.155 807.859 166.797C806.269 168.386 804.909 170.103 804.086 172.106C804.018 172.272 803.952 172.438 803.89 172.604ZM864.147 202.791C864.354 203.108 864.513 203.441 864.646 203.79C865.07 204.898 865.063 206.115 864.868 207.26C864.206 211.142 861.395 214.625 857.626 216.673C852.927 219.227 846.634 219.37 842.003 216.682C841.004 216.102 840.076 215.258 839.132 214.45C838.032 213.509 836.909 212.615 835.699 212.073C835.108 211.809 834.637 211.92 834.241 212.189C834.099 212.285 833.958 212.42 833.847 212.604C833.781 212.712 833.684 213.005 833.647 213.119C833.408 213.506 833.15 213.883 832.866 214.245C832.016 215.332 830.922 216.249 829.786 217.1C826.325 219.693 822.142 221.372 817.628 221.881C811.401 222.582 804.949 219.914 800.004 216.813C798.709 216.002 797.284 214.763 795.795 213.749C794.667 212.98 793.498 212.337 792.33 212.01C792.2 211.974 791.55 211.804 790.959 212.346C790.677 212.605 789.508 213.977 789.38 214.095C788.325 215.067 787.052 215.958 785.694 216.581C781.332 218.582 776.684 218.479 772.387 216.39C766.335 213.448 767.341 209.482 767.431 204.468C767.44 203.989 767.198 203.727 767 203.567C766.746 203.361 766.425 203.242 766.023 203.265C765.844 203.275 765.582 203.325 765.303 203.489C765.187 203.557 764.904 203.772 764.83 203.829C764.365 204.053 763.891 204.261 763.408 204.454C762.033 205.003 760.585 205.36 759.076 205.437C755.195 205.636 750.826 203.575 748.865 200.645C745.545 195.689 748.853 189.253 754.785 187.218C758.469 185.955 759.949 186.919 761.697 187.089C762.045 187.123 762.394 187.03 762.662 186.831C762.93 186.633 763.094 186.346 763.116 186.038C763.258 184.06 764.211 181.93 765.742 180.311C767.194 178.776 769.178 177.693 771.515 177.759C772.427 177.784 773.266 178.169 774.102 178.524C775.264 179.017 776.418 179.478 777.603 179.52C777.604 179.52 778.79 179.493 778.929 178.505C778.95 178.359 779.052 177.625 779.06 177.581C779.167 176.977 779.326 176.384 779.526 175.799C780.099 174.129 781.088 172.703 782.564 171.527C787.183 167.848 794.349 167.579 799.199 171.069C801.109 172.444 801.942 174.304 803.426 175.927C803.796 176.33 804.197 176.386 804.461 176.393C804.845 176.402 805.211 176.288 805.51 175.977C805.626 175.857 805.774 175.645 805.84 175.336C805.884 175.129 805.867 174.72 805.922 174.531C806.082 173.971 806.271 173.418 806.494 172.874C807.207 171.14 808.404 169.665 809.781 168.289C814.042 164.032 819.997 161.571 826.298 160.58C837.347 158.842 847.727 164.29 853.308 172.626C854.381 174.228 855.306 175.924 856.009 177.678C856.335 178.491 856.448 179.756 856.936 180.518C857.377 181.205 858.039 181.411 858.873 181.258C859.195 181.199 859.574 181.052 859.96 180.871C860.217 180.75 860.468 180.576 860.696 180.55C862.266 180.368 863.845 180.426 865.4 180.681C872.016 181.767 878.393 185.342 878.119 191.835C877.934 196.166 873.743 198.996 869.228 199.896C867.691 200.202 865.878 200.134 864.399 200.579C863.965 200.71 863.751 200.946 863.625 201.162C863.501 201.376 863.449 201.612 863.494 201.873C863.52 202.029 863.589 202.219 863.744 202.412C863.816 202.503 864.05 202.707 864.147 202.791Z" fill="#293896"/>
<path fill-rule="evenodd" clip-rule="evenodd" d="M22.8902 17.6044C22.013 16.4341 21.1467 15.2769 19.8201 14.3222C13.9969 10.1308 5.39207 10.4361 -0.154202 14.8536C-1.98451 16.3116 -3.21581 18.0756 -3.92626 20.1464C-4.13942 20.7679 -4.31159 21.3982 -4.43457 22.0377C-4.8842 21.8881 -5.33052 21.6845 -5.78528 21.4914C-6.94536 20.9988 -8.13721 20.5389 -9.40362 20.5034C-15.0542 20.3452 -19.3227 25.0502 -20.2671 29.6494C-21.8953 29.3351 -23.6982 28.9336 -27.1441 30.1156C-34.4922 32.6358 -38.4534 40.6532 -34.3421 46.7918C-31.9277 50.3968 -26.5513 52.9343 -21.7759 52.6901C-19.9507 52.5969 -18.197 52.1731 -16.5342 51.5097C-16.4151 51.4621 -16.2965 51.4138 -16.1786 51.3644C-16.3083 56.3524 -16.1994 60.2791 -9.85069 63.3654C-4.77173 65.8348 0.722027 65.9478 5.87733 63.5825C7.48013 62.8471 8.98737 61.8016 10.2325 60.6541C10.3114 60.5812 10.8986 59.927 11.3326 59.4407C12.2186 59.8255 13.0887 60.4163 13.9398 61.0375C15.1987 61.9564 16.4067 62.9547 17.5179 63.6515C22.9594 67.064 30.0997 69.8906 36.9526 69.119C41.9614 68.5551 46.6048 66.6964 50.4455 63.8192C51.7527 62.8398 52.9981 61.7756 53.976 60.5257C54.1917 60.2502 54.3949 59.9674 54.5878 59.679C55.1899 60.0841 55.7679 60.5735 56.3469 61.0691C57.4099 61.9785 58.4685 62.9134 59.5938 63.5665C65.0409 66.728 72.4438 66.5975 77.9709 63.5935C82.3696 61.2029 85.628 57.1261 86.4018 52.5956C86.6554 51.1013 86.6272 49.5151 86.0738 48.0693C85.9893 47.8491 85.8971 47.6336 85.7946 47.4226C86.7989 47.3115 87.8519 47.2845 88.7947 47.0965C94.4107 45.9774 99.4502 42.3078 99.6782 36.9195C100.006 29.2222 92.712 24.7503 84.8689 23.463C83.0494 23.1644 81.2003 23.1001 79.3626 23.3127C79.0001 23.3546 78.5843 23.4954 78.1713 23.6834L77.923 23.7944C77.8905 23.6726 77.8613 23.5469 77.8318 23.421C77.7057 22.8873 77.594 22.348 77.4252 21.9264C76.6676 20.0359 75.6715 18.2062 74.5153 16.4797C68.3948 7.33868 56.9626 1.45281 44.848 3.35828C37.9774 4.43873 31.5047 7.155 26.859 11.7968C25.2685 13.3859 23.9089 15.1029 23.0857 17.1064C23.0175 17.2715 22.9525 17.4376 22.8902 17.6044ZM83.147 47.7908C83.354 48.1081 83.5128 48.4414 83.646 48.7896C84.0701 49.8978 84.0629 51.115 83.8677 52.2603C83.2057 56.1423 80.3946 59.6246 76.6256 61.6732C71.9271 64.2267 65.634 64.3698 61.0034 61.6822C60.0039 61.102 59.0762 60.2583 58.1321 59.4504C57.032 58.5092 55.9085 57.6147 54.6988 57.0733C54.108 56.8091 53.6368 56.9203 53.2412 57.1887C53.0988 57.285 52.9576 57.42 52.8469 57.6036C52.7813 57.7122 52.6837 58.0053 52.6471 58.1195C52.4075 58.5056 52.1498 58.8831 51.8664 59.2453C51.0161 60.3321 49.9224 61.2487 48.7856 62.1001C45.3246 64.6932 41.1418 66.3723 36.6278 66.8807C30.4008 67.5819 23.9486 64.9141 19.0039 61.8133C17.7093 61.0016 16.2843 59.7632 14.7952 58.7486C13.6667 57.9798 12.4979 57.3367 11.3298 57.0102C11.2004 56.974 10.5502 56.8041 9.9594 57.3459C9.67681 57.6052 8.50801 58.9772 8.38042 59.0948C7.32512 60.0672 6.05205 60.9578 4.69366 61.5811C0.332069 63.5825 -4.31569 63.4789 -8.61271 61.3898C-14.6647 58.4476 -13.6591 54.4819 -13.5692 49.4684C-13.5605 48.9891 -13.8021 48.7271 -13.9996 48.5673C-14.254 48.3613 -14.5746 48.2417 -14.9773 48.2647C-15.1556 48.2749 -15.4185 48.3245 -15.697 48.4886C-15.8133 48.5569 -16.0961 48.7722 -16.1699 48.8291C-16.6352 49.0532 -17.1086 49.2615 -17.5918 49.4542C-18.9666 50.003 -20.4149 50.3602 -21.9242 50.4374C-25.8047 50.6357 -30.1737 48.5746 -32.1354 45.6453C-35.4545 40.6893 -32.1472 34.2531 -26.2146 32.2183C-22.5307 30.9548 -21.0513 31.9189 -19.303 32.0888C-18.9548 32.1226 -18.6062 32.0297 -18.3382 31.8311C-18.0699 31.6327 -17.906 31.3461 -17.8839 31.0383C-17.7425 29.0595 -16.7889 26.93 -15.2581 25.3113C-13.8062 23.7757 -11.8219 22.6935 -9.48484 22.7589C-8.57276 22.7844 -7.73368 23.1691 -6.89795 23.5241C-5.73607 24.0174 -4.58214 24.4782 -3.39695 24.5199C-3.39644 24.5199 -2.20971 24.4933 -2.07059 23.5049C-2.05009 23.3587 -1.94761 22.6251 -1.93993 22.5806C-1.83309 21.9772 -1.67424 21.3837 -1.47363 20.7993C-0.900764 19.1287 0.0879135 17.7032 1.56441 16.5273C6.18323 12.8484 13.3492 12.5787 18.1989 16.0694C20.1086 17.4439 20.9423 19.3036 22.4265 20.9268C22.7957 21.3305 23.1969 21.386 23.461 21.3925C23.8448 21.4018 24.2112 21.2885 24.5104 20.9766C24.6257 20.8566 24.7735 20.6449 24.8396 20.3364C24.884 20.1288 24.8673 19.7197 24.9216 19.5308C25.082 18.9705 25.2713 18.4179 25.4945 17.8745C26.2072 16.1403 27.404 14.6647 28.7808 13.2891C33.042 9.03158 38.9969 6.57076 45.2984 5.57967C56.3466 3.84186 66.7267 9.28951 72.3083 17.6258C73.3808 19.2276 74.3064 20.9241 75.0092 22.6777C75.3354 23.4912 75.4476 24.7562 75.9364 25.5178C76.3773 26.2047 77.0386 26.4112 77.8733 26.2582C78.1946 26.1993 78.5743 26.0517 78.9596 25.8705C79.2166 25.7498 79.4684 25.5765 79.6962 25.5501C81.2659 25.3684 82.8452 25.4262 84.3996 25.6814C91.016 26.7673 97.3929 30.3424 97.1187 36.8351C96.9343 41.1657 92.7428 43.9962 88.2285 44.8956C86.6913 45.2023 84.8779 45.1337 83.3993 45.5787C82.9646 45.7096 82.7514 45.9456 82.6254 46.1623C82.5008 46.3757 82.4491 46.6122 82.4937 46.8731C82.5203 47.0295 82.5892 47.2195 82.7437 47.4124C82.816 47.5027 83.0499 47.7071 83.147 47.7908Z" fill="#293896"/>
<path fill-rule="evenodd" clip-rule="evenodd" d="M989.89 47.6044C989.013 46.4341 988.147 45.2769 986.82 44.3222C980.997 40.1308 972.392 40.4361 966.846 44.8536C965.015 46.3116 963.784 48.0756 963.074 50.1464C962.861 50.7679 962.688 51.3982 962.565 52.0377C962.116 51.8881 961.669 51.6845 961.215 51.4914C960.055 50.9988 958.863 50.5389 957.596 50.5034C951.946 50.3452 947.677 55.0502 946.733 59.6494C945.105 59.3351 943.302 58.9336 939.856 60.1156C932.508 62.6358 928.547 70.6532 932.658 76.7918C935.072 80.3968 940.449 82.9343 945.224 82.6901C947.049 82.5969 948.803 82.1731 950.466 81.5097C950.585 81.4621 950.704 81.4138 950.821 81.3644C950.692 86.3524 950.801 90.2791 957.149 93.3654C962.228 95.8348 967.722 95.9478 972.877 93.5825C974.48 92.8471 975.987 91.8016 977.233 90.6541C977.311 90.5812 977.899 89.927 978.333 89.4407C979.219 89.8255 980.089 90.4163 980.94 91.0375C982.199 91.9564 983.407 92.9547 984.518 93.6515C989.959 97.064 997.1 99.8906 1003.95 99.119C1008.96 98.5551 1013.6 96.6964 1017.45 93.8192C1018.75 92.8398 1020 91.7756 1020.98 90.5257C1021.19 90.2502 1021.39 89.9674 1021.59 89.679C1022.19 90.0841 1022.77 90.5735 1023.35 91.0691C1024.41 91.9785 1025.47 92.9134 1026.59 93.5665C1032.04 96.728 1039.44 96.5975 1044.97 93.5935C1049.37 91.2029 1052.63 87.1261 1053.4 82.5956C1053.66 81.1013 1053.63 79.5151 1053.07 78.0693C1052.99 77.8491 1052.9 77.6336 1052.79 77.4226C1053.8 77.3115 1054.85 77.2845 1055.79 77.0965C1061.41 75.9774 1066.45 72.3078 1066.68 66.9195C1067.01 59.2222 1059.71 54.7503 1051.87 53.463C1050.05 53.1644 1048.2 53.1001 1046.36 53.3127C1046 53.3546 1045.58 53.4954 1045.17 53.6834L1044.92 53.7944C1044.89 53.6726 1044.86 53.5469 1044.83 53.421C1044.71 52.8873 1044.59 52.348 1044.43 51.9264C1043.67 50.0359 1042.67 48.2062 1041.52 46.4797C1035.39 37.3387 1023.96 31.4528 1011.85 33.3583C1004.98 34.4387 998.505 37.155 993.859 41.7968C992.269 43.3859 990.909 45.1029 990.086 47.1064C990.018 47.2715 989.952 47.4376 989.89 47.6044ZM1050.15 77.7908C1050.35 78.1081 1050.51 78.4414 1050.65 78.7896C1051.07 79.8978 1051.06 81.115 1050.87 82.2603C1050.21 86.1423 1047.39 89.6246 1043.63 91.6732C1038.93 94.2267 1032.63 94.3698 1028 91.6822C1027 91.102 1026.08 90.2583 1025.13 89.4504C1024.03 88.5092 1022.91 87.6147 1021.7 87.0733C1021.11 86.8091 1020.64 86.9203 1020.24 87.1887C1020.1 87.285 1019.96 87.42 1019.85 87.6036C1019.78 87.7122 1019.68 88.0053 1019.65 88.1195C1019.41 88.5056 1019.15 88.8831 1018.87 89.2453C1018.02 90.3321 1016.92 91.2487 1015.79 92.1001C1012.32 94.6932 1008.14 96.3723 1003.63 96.8807C997.401 97.5819 990.949 94.9141 986.004 91.8133C984.709 91.0016 983.284 89.7632 981.795 88.7486C980.667 87.9798 979.498 87.3367 978.33 87.0102C978.2 86.974 977.55 86.8041 976.959 87.3459C976.677 87.6052 975.508 88.9772 975.38 89.0948C974.325 90.0672 973.052 90.9578 971.694 91.5811C967.332 93.5825 962.684 93.4789 958.387 91.3898C952.335 88.4476 953.341 84.4819 953.431 79.4684C953.44 78.9891 953.198 78.7271 953 78.5673C952.746 78.3613 952.425 78.2417 952.023 78.2647C951.844 78.2749 951.582 78.3245 951.303 78.4886C951.187 78.5569 950.904 78.7722 950.83 78.8291C950.365 79.0532 949.891 79.2615 949.408 79.4542C948.033 80.003 946.585 80.3602 945.076 80.4374C941.195 80.6357 936.826 78.5746 934.865 75.6453C931.545 70.6893 934.853 64.2531 940.785 62.2183C944.469 60.9548 945.949 61.9189 947.697 62.0888C948.045 62.1226 948.394 62.0297 948.662 61.8311C948.93 61.6327 949.094 61.3461 949.116 61.0383C949.258 59.0595 950.211 56.93 951.742 55.3113C953.194 53.7757 955.178 52.6935 957.515 52.7589C958.427 52.7844 959.266 53.1691 960.102 53.5241C961.264 54.0174 962.418 54.4782 963.603 54.5199C963.604 54.5199 964.79 54.4933 964.929 53.5049C964.95 53.3587 965.052 52.6251 965.06 52.5806C965.167 51.9772 965.326 51.3837 965.526 50.7993C966.099 49.1287 967.088 47.7032 968.564 46.5273C973.183 42.8484 980.349 42.5787 985.199 46.0694C987.109 47.4439 987.942 49.3036 989.426 50.9268C989.796 51.3305 990.197 51.386 990.461 51.3925C990.845 51.4018 991.211 51.2885 991.51 50.9766C991.626 50.8566 991.774 50.6449 991.84 50.3364C991.884 50.1288 991.867 49.7197 991.922 49.5308C992.082 48.9705 992.271 48.4179 992.494 47.8745C993.207 46.1403 994.404 44.6647 995.781 43.2891C1000.04 39.0316 1006 36.5708 1012.3 35.5797C1023.35 33.8419 1033.73 39.2895 1039.31 47.6258C1040.38 49.2276 1041.31 50.9241 1042.01 52.6777C1042.34 53.4912 1042.45 54.7562 1042.94 55.5178C1043.38 56.2047 1044.04 56.4112 1044.87 56.2582C1045.19 56.1993 1045.57 56.0517 1045.96 55.8705C1046.22 55.7498 1046.47 55.5765 1046.7 55.5501C1048.27 55.3684 1049.85 55.4262 1051.4 55.6814C1058.02 56.7673 1064.39 60.3424 1064.12 66.8351C1063.93 71.1657 1059.74 73.9962 1055.23 74.8956C1053.69 75.2023 1051.88 75.1337 1050.4 75.5787C1049.96 75.7096 1049.75 75.9456 1049.63 76.1623C1049.5 76.3757 1049.45 76.6122 1049.49 76.8731C1049.52 77.0295 1049.59 77.2195 1049.74 77.4124C1049.82 77.5027 1050.05 77.7071 1050.15 77.7908Z" fill="#293896"/>
<path fill-rule="evenodd" clip-rule="evenodd" d="M1908.31 14.9091C1907.43 13.7388 1906.57 12.5816 1905.24 11.6269C1899.42 7.43545 1890.81 7.74077 1885.26 12.1583C1883.43 13.6163 1882.2 15.3802 1881.49 17.4511C1881.28 18.0726 1881.11 18.7029 1880.98 19.3424C1880.53 19.1928 1880.09 18.9892 1879.63 18.7961C1878.47 18.3034 1877.28 17.8435 1876.02 17.8081C1870.36 17.6499 1866.1 22.3549 1865.15 26.9541C1863.52 26.6397 1861.72 26.2383 1858.27 27.4203C1850.93 29.9405 1846.97 37.9579 1851.08 44.0965C1853.49 47.7014 1858.87 50.239 1863.64 49.9948C1865.47 49.9016 1867.22 49.4778 1868.88 48.8144C1869 48.7668 1869.12 48.7185 1869.24 48.6691C1869.11 53.657 1869.22 57.5837 1875.57 60.6701C1880.65 63.1395 1886.14 63.2525 1891.3 60.8872C1892.9 60.1517 1894.41 59.1063 1895.65 57.9588C1895.73 57.8859 1896.32 57.2317 1896.75 56.7454C1897.64 57.1302 1898.51 57.721 1899.36 58.3422C1900.62 59.2611 1901.83 60.2594 1902.94 60.9562C1908.38 64.3687 1915.52 67.1953 1922.37 66.4237C1927.38 65.8598 1932.02 64.001 1935.86 61.1239C1937.17 60.1445 1938.42 59.0803 1939.39 57.8304C1939.61 57.5549 1939.81 57.2721 1940.01 56.9837C1940.61 57.3888 1941.19 57.8782 1941.77 58.3738C1942.83 59.2832 1943.89 60.2181 1945.01 60.8712C1950.46 64.0326 1957.86 63.9022 1963.39 60.8982C1967.79 58.5076 1971.05 54.4308 1971.82 49.9003C1972.07 48.406 1972.05 46.8198 1971.49 45.374C1971.41 45.1538 1971.32 44.9382 1971.21 44.7272C1972.22 44.6162 1973.27 44.5891 1974.21 44.4012C1979.83 43.2821 1984.87 39.6124 1985.1 34.2242C1985.43 26.5269 1978.13 22.055 1970.29 20.7676C1968.47 20.4691 1966.62 20.4048 1964.78 20.6173C1964.42 20.6593 1964 20.8001 1963.59 20.9881L1963.34 21.0991C1963.31 20.9773 1963.28 20.8516 1963.25 20.7257C1963.12 20.192 1963.01 19.6527 1962.84 19.2311C1962.09 17.3405 1961.09 15.5109 1959.93 13.7844C1953.81 4.64336 1942.38 -1.2425 1930.27 0.662963C1923.4 1.74342 1916.92 4.45969 1912.28 9.1015C1910.69 10.6906 1909.33 12.4076 1908.5 14.411C1908.44 14.5762 1908.37 14.7423 1908.31 14.9091ZM1968.57 45.0955C1968.77 45.4128 1968.93 45.7461 1969.06 46.0943C1969.49 47.2025 1969.48 48.4197 1969.29 49.5649C1968.62 53.447 1965.81 56.9293 1962.04 58.9779C1957.35 61.5314 1951.05 61.6745 1946.42 58.9869C1945.42 58.4067 1944.5 57.563 1943.55 56.7551C1942.45 55.8139 1941.33 54.9194 1940.12 54.378C1939.53 54.1138 1939.06 54.225 1938.66 54.4933C1938.52 54.5897 1938.38 54.7246 1938.27 54.9083C1938.2 55.0169 1938.1 55.31 1938.07 55.4242C1937.83 55.8103 1937.57 56.1878 1937.29 56.55C1936.44 57.6368 1935.34 58.5534 1934.2 59.4048C1930.74 61.9979 1926.56 63.677 1922.05 64.1854C1915.82 64.8865 1909.37 62.2188 1904.42 59.118C1903.13 58.3063 1901.7 57.0679 1900.21 56.0533C1899.09 55.2845 1897.92 54.6414 1896.75 54.3148C1896.62 54.2787 1895.97 54.1088 1895.38 54.6506C1895.1 54.9099 1893.93 56.2819 1893.8 56.3995C1892.74 57.3719 1891.47 58.2625 1890.11 58.8858C1885.75 60.8872 1881.1 60.7836 1876.81 58.6944C1870.75 55.7523 1871.76 51.7866 1871.85 46.7731C1871.86 46.2938 1871.62 46.0318 1871.42 45.872C1871.16 45.666 1870.84 45.5464 1870.44 45.5694C1870.26 45.5796 1870 45.6292 1869.72 45.7933C1869.61 45.8616 1869.32 46.0769 1869.25 46.1338C1868.78 46.3579 1868.31 46.5661 1867.83 46.7589C1866.45 47.3077 1865 47.6649 1863.49 47.7421C1859.61 47.9404 1855.25 45.8792 1853.28 42.95C1849.96 37.994 1853.27 31.5578 1859.2 29.523C1862.89 28.2595 1864.37 29.2235 1866.12 29.3935C1866.46 29.4273 1866.81 29.3344 1867.08 29.1358C1867.35 28.9374 1867.51 28.6508 1867.54 28.343C1867.68 26.3642 1868.63 24.2347 1870.16 22.616C1871.61 21.0804 1873.6 19.9981 1875.93 20.0636C1876.85 20.0891 1877.69 20.4738 1878.52 20.8288C1879.68 21.3221 1880.84 21.7829 1882.02 21.8246C1882.02 21.8246 1883.21 21.798 1883.35 20.8096C1883.37 20.6634 1883.47 19.9298 1883.48 19.8853C1883.59 19.2819 1883.74 18.6884 1883.95 18.104C1884.52 16.4334 1885.51 15.0079 1886.98 13.832C1891.6 10.1531 1898.77 9.8834 1903.62 13.3741C1905.53 14.7486 1906.36 16.6083 1907.85 18.2315C1908.21 18.6352 1908.62 18.6907 1908.88 18.6972C1909.26 18.7065 1909.63 18.5932 1909.93 18.2813C1910.04 18.1613 1910.19 17.9496 1910.26 17.6411C1910.3 17.4335 1910.29 17.0244 1910.34 16.8355C1910.5 16.2752 1910.69 15.7226 1910.91 15.1792C1911.63 13.445 1912.82 11.9694 1914.2 10.5938C1918.46 6.33627 1924.42 3.87545 1930.72 2.88435C1941.77 1.14655 1952.15 6.5942 1957.73 14.9305C1958.8 16.5322 1959.73 18.2287 1960.43 19.9823C1960.75 20.7958 1960.87 22.0609 1961.36 22.8225C1961.8 23.5094 1962.46 23.7159 1963.29 23.5629C1963.61 23.504 1963.99 23.3564 1964.38 23.1752C1964.64 23.0545 1964.89 22.8812 1965.12 22.8548C1966.68 22.6731 1968.26 22.7309 1969.82 22.9861C1976.43 24.072 1982.81 27.6471 1982.54 34.1398C1982.35 38.4704 1978.16 41.3008 1973.65 42.2003C1972.11 42.507 1970.3 42.4384 1968.82 42.8834C1968.38 43.0143 1968.17 43.2503 1968.04 43.4669C1967.92 43.6804 1967.87 43.9169 1967.91 44.1778C1967.94 44.3342 1968.01 44.5242 1968.16 44.7171C1968.23 44.8074 1968.47 45.0118 1968.57 45.0955Z" fill="#293896"/>
</svg>
