<svg width="14" height="18" viewBox="0 0 14 18" fill="none" xmlns="http://www.w3.org/2000/svg">
<path d="M8.61686 4.4024C8.71904 3.80314 8.79394 3.1595 8.84202 2.47196C9.15473 2.9528 9.48457 3.39511 9.83193 3.79812C10.1945 4.21874 10.5777 4.70134 10.9816 5.24677C11.3832 5.78913 11.7383 6.31578 12.0475 6.82673C12.34 7.31007 12.5885 7.88413 12.7889 8.55397C12.9849 9.20907 13.0833 9.88842 13.0833 10.5938C13.0833 11.7607 12.8051 12.8325 12.2499 13.8181C11.6938 14.8053 10.9387 15.5796 9.97979 16.1486C9.02274 16.7165 7.98412 17 6.85417 17C5.72421 17 4.68559 16.7165 3.72855 16.1486C2.7696 15.5796 2.01453 14.8053 1.4584 13.8181C0.903199 12.8325 0.625 11.7607 0.625 10.5938C0.625 10.1546 0.68818 9.77274 0.806207 9.44195C0.934489 9.08243 1.08985 8.76795 1.26999 8.49549C1.48237 8.17427 1.69356 7.82619 1.90367 7.45166C2.13946 7.03134 2.32561 6.50103 2.47201 5.87688C2.54575 5.56253 2.60076 5.22729 2.63776 4.87172C2.70541 4.94289 2.78629 5.04081 2.87978 5.1724C3.03565 5.39178 3.16809 5.65518 3.27315 5.96791C3.46759 6.5772 3.78322 7.12675 4.21568 7.61374C4.66348 8.11801 5.19893 8.4375 5.81891 8.4375C6.61562 8.4375 7.23109 7.9587 7.6787 7.21613C8.11598 6.49069 8.42215 5.54428 8.61686 4.4024ZM9.41047 6.75667L9.02052 5.1558L8.45505 6.7034C7.90844 8.19938 7.41245 9.19952 6.97811 9.75426L6.9781 9.75425L6.97589 9.75711C6.80631 9.97696 6.58992 10.1798 6.3211 10.3637C6.02691 10.565 5.76617 10.7212 5.53789 10.8359C5.26501 10.973 5.00107 11.1278 4.74615 11.3002C4.44313 11.5052 4.20203 11.77 4.02851 12.0906C3.84432 12.4309 3.76603 12.8251 3.76603 13.25C3.76603 14.0728 4.0891 14.7519 4.74121 15.2239C5.34795 15.6631 6.05991 15.875 6.85417 15.875C7.98409 15.875 8.96346 15.5678 9.75698 14.9252C10.5752 14.2626 10.9776 13.3531 10.9776 12.2539C10.9776 11.4878 10.9165 10.8106 10.7879 10.2285C10.6657 9.67579 10.5176 9.21739 10.3277 8.8901C10.1855 8.64525 10.0192 8.3258 9.82828 7.92847C9.64952 7.55644 9.5102 7.16607 9.41047 6.75667Z" fill="white" stroke="white"/>
</svg>
