<svg width="71" height="53" viewBox="0 0 71 53" fill="none" xmlns="http://www.w3.org/2000/svg">
<g clip-path="url(#clip0_312_1593)">
<path d="M0 42.8305C0.0280253 41.7602 0.110836 40.6919 0.24811 39.63C0.350791 38.8538 0.590627 38.102 0.956431 37.4097C1.3228 36.7443 1.89198 36.2131 2.58116 35.8935C3.50203 35.4965 4.5005 35.3119 5.50248 35.3534C6.71205 35.3079 7.91205 35.584 8.98005 36.1535C9.83243 36.6656 10.4327 37.6137 10.7769 38.9899C10.8857 39.5298 10.938 40.0795 10.9329 40.6302V41.0302H7.79151C7.7837 40.5982 7.75298 40.1668 7.69947 39.738C7.6602 39.4164 7.56256 39.1045 7.41134 38.8179C7.25235 38.5346 7.01279 38.3048 6.72303 38.1578C6.34292 37.9734 5.92497 37.8802 5.50248 37.8858C5.06707 37.8636 4.63656 37.986 4.27793 38.2338C3.96315 38.4756 3.72542 38.8036 3.59362 39.178C3.43938 39.5966 3.34116 40.0338 3.30149 40.4782C3.25747 40.9502 3.23346 41.4983 3.23346 42.1304V46.7991C3.23211 47.2255 3.25482 47.6515 3.30149 48.0753C3.34669 48.4656 3.44498 48.8478 3.59362 49.2115C3.73504 49.5674 3.97181 49.8774 4.27793 50.1076C4.63656 50.3554 5.06707 50.4778 5.50248 50.4557C5.87978 50.4702 6.25241 50.3682 6.56963 50.1635C6.88685 49.9587 7.13324 49.6612 7.27528 49.3115C7.68591 48.2617 7.87002 47.1369 7.81552 46.011H5.63454V43.5426H10.8649V52.596H8.51584V50.6637H8.47182C8.26854 51.3574 7.84768 51.9675 7.27128 52.404C6.74924 52.7585 6.14061 52.9646 5.51049 53.0001C4.48567 53.0433 3.46452 52.8517 2.52514 52.44C1.81777 52.1052 1.23489 51.5547 0.860385 50.8677C0.486355 50.1427 0.250252 49.3546 0.164075 48.5434C0.0487927 47.4444 -0.00331616 46.3398 0.00800532 45.2349L0 42.8305Z" fill="#293896"/>
<path d="M17.1317 52.5963H13.9863V35.7617H18.9926L20.6773 43.5749C20.9385 44.8576 21.1335 46.1528 21.2616 47.4555H21.3216C21.4097 46.4687 21.4884 45.6992 21.5577 45.1471C21.6258 44.591 21.7098 44.067 21.8179 43.5749L23.4986 35.7617H28.4849V52.5963H25.3234V47.2995C25.3234 43.5869 25.4141 40.2424 25.5956 37.2659H25.5475L22.182 52.5963H20.2732L16.9757 37.2659H16.8596C17.041 40.2477 17.1317 43.5922 17.1317 47.2995V52.5963Z" fill="#293896"/>
<path d="M31.1866 42.8305C31.2095 41.7601 31.291 40.6916 31.4307 39.63C31.5334 38.8538 31.7732 38.102 32.139 37.4097C32.5057 36.7432 33.0766 36.2118 33.7677 35.8935C34.6872 35.4964 35.6844 35.3118 36.6851 35.3534C37.8959 35.308 39.0972 35.5841 40.1666 36.1535C41.019 36.6656 41.6153 37.6137 41.9594 38.9899C42.0701 39.5296 42.1237 40.0794 42.1195 40.6302V41.0303H38.9741C38.9673 40.5983 38.9379 40.167 38.886 39.7381C38.8454 39.4161 38.7464 39.1043 38.5939 38.8179C38.4366 38.5347 38.1983 38.3049 37.9096 38.1578C37.5279 37.9739 37.1088 37.8808 36.6851 37.8858C36.2499 37.8654 35.8199 37.9876 35.4605 38.2338C35.148 38.4778 34.9108 38.8051 34.7762 39.178C34.6239 39.5972 34.5257 40.0341 34.4841 40.4782C34.44 40.9502 34.416 41.4983 34.416 42.1304V46.7991C34.4147 47.2255 34.4374 47.6516 34.4841 48.0753C34.5312 48.4652 34.6294 48.8472 34.7762 49.2115C34.9203 49.5659 35.1565 49.8753 35.4605 50.1076C35.8199 50.3538 36.2499 50.476 36.6851 50.4557C37.0625 50.4708 37.4354 50.369 37.7527 50.1642C38.07 49.9594 38.3163 49.6616 38.4579 49.3115C38.8685 48.2617 39.0526 47.1369 38.9981 46.011H36.8211V43.5426H42.0515V52.596H39.6904V50.6637H39.6464C39.4447 51.3582 39.0235 51.9687 38.4458 52.404C37.9238 52.7585 37.3152 52.9646 36.6851 53.0001C35.6603 53.0429 34.6392 52.8514 33.6997 52.44C32.9934 52.1052 32.4118 51.5546 32.039 50.8677C31.6632 50.1434 31.427 49.355 31.3426 48.5434C31.2274 47.4445 31.1753 46.3398 31.1866 45.2349V42.8305Z" fill="#293896"/>
<path d="M43.8682 52.5963L47.89 35.7617H52.1359L55.9496 52.5963H52.5801L51.7357 48.3316H48.054L47.2377 52.5963H43.8682ZM48.5623 45.8632H51.2555L50.4031 41.0825C50.2812 40.4514 50.1917 39.8145 50.135 39.1742L50.087 38.7462C50.087 38.4661 50.0349 38.0901 49.9749 37.626H49.9309C49.8709 38.0901 49.8308 38.4661 49.8188 38.7462L49.7748 39.1742C49.6828 40.0264 49.5948 40.6625 49.5027 41.0825L48.5623 45.8632Z" fill="#293896"/>
<path d="M70.9997 31.9328H0.451904L3.36922 27.4161L24.4947 12.2378L30.9496 1.80027L33.4468 0L33.4708 0.020003L33.4628 0L44.4477 10.1175L44.5998 10.2575L47.289 8.32126L68.0824 27.4722L70.9997 31.9328Z" fill="#293896"/>
<path d="M66.3304 40.7751H65.8462V39.6149H66.3264C66.7554 39.6098 67.1836 39.6527 67.603 39.7429L67.9071 38.3867H69.1797L68.8475 39.987C69.2342 40.03 69.623 40.0501 70.0121 40.047H70.3282V41.2031H70.0121C69.5439 41.2043 69.0761 41.1762 68.6114 41.1191L68.3433 42.4393H66.9907L67.3509 40.8391C67.0143 40.7774 66.6725 40.7493 66.3304 40.7551" fill="#EE2346"/>
<path d="M67.6952 50.1958H68.0154V51.352H67.6952C67.2283 51.3549 66.7618 51.3268 66.2986 51.2679L66.0305 52.5882H64.6739L65.034 50.9879C64.6988 50.9264 64.3583 50.8983 64.0176 50.9039H63.5374V49.7517H64.0176C64.4452 49.7429 64.8723 49.7845 65.2901 49.8757L65.5903 48.5195H66.8629L66.5307 50.1198C66.9176 50.1595 67.3063 50.1782 67.6952 50.1758" fill="#EE2346"/>
<path d="M70.5435 43.991V46.5313C67.8438 46.5813 65.1457 46.3669 62.4879 45.8912L61.1152 52.5963H57.6817L59.3705 45.1511C57.6424 44.7091 55.871 44.4582 54.0881 44.403L53.5078 41.8466C55.6722 41.8709 57.8243 42.1748 59.9107 42.7508L61.5114 35.7617H64.5728L63.0001 43.4429C65.4938 43.845 68.0179 44.0283 70.5435 43.991Z" fill="#EE2346"/>
<path d="M54.8291 38.1541H54.3369V36.9939H54.8251C55.2512 36.9861 55.6767 37.0264 56.0937 37.1139L56.4059 35.7617H57.6704L57.3383 37.362C57.7251 37.4016 58.1139 37.4203 58.5028 37.418H58.8189V38.5941H58.5028C58.0346 38.5954 57.5668 38.5674 57.1022 38.5101L56.834 39.8303H55.4814L55.8416 38.2301C55.5077 38.1688 55.1686 38.1406 54.8291 38.1461" fill="#EE2346"/>
<path d="M56.5015 47.5824V48.7426H56.1853C55.7851 48.7426 55.429 48.7426 55.0648 48.6906L54.4365 45.9102H55.3609L55.0288 47.5104C55.4128 47.5523 55.799 47.571 56.1853 47.5664L56.5015 47.5824Z" fill="#EE2346"/>
<path d="M17.748 23.1473L20.5892 18.5586L9.48022 26.5398L17.748 23.1473Z" fill="white"/>
<path d="M40.8187 10.0689L34.872 7.66054L19.0049 25.6553L33.0592 2.92383L40.8187 10.0689Z" fill="white"/>
<path d="M46.7488 12.2383L37.6847 26.8925L39.5255 20.0195L31.1257 23.464L46.7488 12.2383Z" fill="white"/>
</g>
<defs>
<clipPath id="clip0_312_1593">
<rect width="71" height="53" fill="white"/>
</clipPath>
</defs>
</svg>
