<svg width="25" height="16" viewBox="0 0 25 16" fill="none" xmlns="http://www.w3.org/2000/svg">
<g clip-path="url(#clip0_312_1610)">
<path d="M25.0005 16H0V-0.000318527H25.0005V16Z" fill="#000066"/>
<path d="M0 16V14.2111L22.2054 -0.000371933H25.0005V1.78846L2.79506 15.9999H0L0 16ZM25.0005 16V14.2112L2.79506 -0.000318527H0V1.78852L22.2054 16H25.0005Z" fill="white"/>
<path d="M10.4169 16V-0.000318527H14.5836V16H10.4169ZM0 10.6666V5.33312H25.0005V10.6666H0Z" fill="white"/>
<path d="M0 9.59987V6.39981H25.0005V9.59987H0ZM11.2502 16V-0.000318527H13.7503V16H11.2502Z" fill="#CC0000"/>
<path d="M0 -0.000318527L8.3335 5.33312H10.1969L1.86337 -0.000318527H0H0ZM0 16L8.3335 10.6666H6.47013L0 14.8074V16H0ZM14.8036 10.6666L23.1371 16H25.0005L16.667 10.6666H14.8036ZM25.0005 -0.000318527L16.667 5.33312H18.5304L25.0005 1.19224V-0.000318527Z" fill="#CC0000"/>
</g>
<defs>
<clipPath id="clip0_312_1610">
<rect width="25" height="16" fill="white" transform="matrix(1 0 0 -1 0 16)"/>
</clipPath>
</defs>
</svg>
