<svg width="25" height="24" viewBox="0 0 25 24" fill="none" xmlns="http://www.w3.org/2000/svg">
<path d="M7.63185 22H4.64591C4.11796 22 3.61163 21.7893 3.23832 21.4142C2.865 21.0391 2.65527 20.5304 2.65527 20V13C2.65527 12.4696 2.865 11.9609 3.23832 11.5858C3.61163 11.2107 4.11796 11 4.64591 11H7.63185M14.5991 9V5C14.5991 4.20435 14.2845 3.44129 13.7245 2.87868C13.1645 2.31607 12.405 2 11.6131 2L7.63185 11V22H18.859C19.3391 22.0055 19.8049 21.8364 20.1708 21.524C20.5366 21.2116 20.7777 20.7769 20.8497 20.3L22.2232 11.3C22.2665 11.0134 22.2473 10.7207 22.1668 10.4423C22.0863 10.1638 21.9466 9.90629 21.7572 9.68751C21.5679 9.46873 21.3335 9.29393 21.0702 9.17522C20.8069 9.0565 20.5211 8.99672 20.2326 9H14.5991Z" stroke="#293896" stroke-width="2" stroke-linecap="round" stroke-linejoin="round"/>
</svg>
