<svg width="465" height="156" viewBox="0 0 465 156" fill="none" xmlns="http://www.w3.org/2000/svg">
<ellipse cx="80.866" cy="88.7883" rx="50.2059" ry="47.7883" fill="#EE2346"/>
<path d="M352.036 155.969H0L119.975 59.773L152.185 8.79302L164.646 0L164.765 0.0977002L164.725 0L219.541 49.4167L220.299 50.1006L233.719 40.6433L337.478 134.181L352.036 155.969Z" fill="#293896"/>
<path d="M107.246 126.815L120.197 106.324L69.5605 141.964L107.246 126.815Z" fill="white"/>
<path d="M212.405 68.4143L185.299 57.6597L112.975 138.016L177.036 36.5078L212.405 68.4143Z" fill="white"/>
<path d="M239.435 77.9844L198.119 143.423L206.51 112.731L168.223 128.113L239.435 77.9844Z" fill="white"/>
<path d="M465.001 155.969H112.965L127.522 133.908L232.939 59.773L265.15 8.79302L277.61 0L277.73 0.0977002L277.69 0L332.506 49.4167L333.264 50.1006L346.684 40.6433L435.947 128.174L465.001 155.969Z" fill="#293896"/>
<path d="M219.303 64.6143L232.932 60.4004L190.967 112.373L219.303 64.6143Z" fill="white"/>
<path d="M325.37 68.4163L298.264 57.6617L225.939 138.018L290.001 36.5098L325.37 68.4163Z" fill="white"/>
<path d="M352.4 77.9844L311.084 143.423L319.475 112.731L281.188 128.113L352.4 77.9844Z" fill="white"/>
</svg>
