<svg width="1921" height="220" viewBox="0 0 1921 220" fill="none" xmlns="http://www.w3.org/2000/svg">
<path fill-rule="evenodd" clip-rule="evenodd" d="M615.131 15.95C613.98 15.1976 612.642 14.5869 611.308 14.1363C607.166 12.7371 602.294 11.0983 596.991 13.5246C593.104 15.3032 590.836 17.3455 589.582 19.5404C587.984 22.3376 588.038 25.4255 588.678 28.6816C584.958 27.7037 581.087 27.3254 577.3 28.5922C572.746 30.116 569.82 33.1335 568.859 36.5537C567.896 39.9816 568.888 43.8421 572.292 47.0649C575.365 49.9756 579.829 52.0252 584.367 52.2998C585.979 52.3968 587.68 52.2018 589.226 51.7752C589.562 51.6816 589.892 51.5651 590.215 51.4336C590.433 51.9382 590.619 52.5274 590.844 53.1436C591.299 54.4008 591.862 55.7531 592.808 56.8899C597.804 62.8986 607.483 64.4892 614.818 61.1769C616.787 60.2877 618.394 58.9453 619.788 57.4551C619.975 57.2549 620.215 56.8958 620.471 56.509C620.993 57.0759 621.538 57.6263 622.137 58.1297C624.259 59.9135 627.003 61.1613 629.861 61.7339C633.591 62.4802 637.566 62.1666 641.121 60.9318C642.321 60.5143 643.468 60.0029 644.57 59.4107C644.737 59.3196 644.983 59.1108 645.2 58.9091C646.243 59.9196 647.043 61.2526 648.176 62.1912C652.635 65.8872 658.393 67.81 664.536 67.5566C673.635 67.1821 683.615 63.3143 688.262 56.0961C689.08 54.823 689.372 53.5505 689.553 52.3858C689.651 51.7519 689.697 51.1572 689.829 50.6375C690.464 50.6953 691.407 50.7805 691.535 50.7936C694.456 51.0871 697.301 51.7723 700.236 52.0267C709.655 52.8407 719.693 47.8064 720.44 38.7754C720.844 33.8793 718.612 28.4973 714.426 25.1899C709.229 21.0857 700.863 19.0415 691.288 20.8092C689.986 18.4416 687.157 13.8276 685.267 12.3397C679.877 8.0982 675.413 6.20118 668.076 5.99972C663.046 5.86171 658.191 7.04264 653.906 9.38333C652.467 10.1685 651.061 11.0507 649.808 12.0518C649.797 12.0612 649.584 12.259 649.317 12.5072C648.877 11.7844 648.29 10.8393 648.078 10.5685C646.657 8.74738 644.692 7.17501 642.461 6.16226C638.992 4.587 634.883 4.03934 631.022 4.25084C626.171 4.51669 622.424 5.94399 619.717 8.28894C617.477 10.2313 615.944 12.8167 615.131 15.95ZM651.538 13.6833L651.534 13.6859C651.316 13.8885 650.315 14.8289 650.096 15.0318C649.41 15.664 648.588 15.3068 648.579 15.3022C648.268 15.1682 647.812 14.7789 647.41 14.1947C646.87 13.4126 646.276 12.1984 645.99 11.8328C644.801 10.3107 643.165 8.99227 641.302 8.14588C638.233 6.75279 634.593 6.29124 631.18 6.47839C627.034 6.70559 623.808 7.87554 621.495 9.87953C619.17 11.8951 617.78 14.7341 617.238 18.2098C617.162 18.7019 616.86 18.9224 616.645 19.045C616.334 19.2205 615.97 19.2898 615.546 19.1712C615.388 19.1264 615.152 19.027 614.928 18.8142C614.837 18.7293 614.626 18.48 614.569 18.4102C614.28 18.1938 614.004 17.9951 613.702 17.7939C612.715 17.137 611.553 16.6097 610.4 16.22C606.857 15.0224 602.697 13.4285 598.16 15.5049C594.874 17.0086 592.905 18.6878 591.845 20.5437C590.262 23.3137 590.692 26.4184 591.481 29.689C591.751 29.984 591.845 30.3932 591.685 30.775C591.445 31.3533 590.717 31.6509 590.061 31.4389C586.233 30.2048 582.167 29.3513 578.2 30.6786C574.511 31.9128 572.097 34.32 571.318 37.0904C570.541 39.8527 571.404 42.9481 574.146 45.5445C576.795 48.0532 580.632 49.8363 584.54 50.0741C585.844 50.1513 587.216 49.9917 588.465 49.6452C588.924 49.5186 589.359 49.3314 589.778 49.1296C589.806 49.1166 590.095 48.9713 590.152 48.9434C591.108 48.4935 591.771 49.2504 591.797 49.2819C592.287 49.8987 592.654 50.7859 593.015 51.791C593.451 53.0048 593.899 54.4244 594.852 55.5705C599.119 60.7039 607.398 62.0194 613.664 59.1896C615.321 58.441 616.655 57.2914 617.83 56.0357C618.115 55.7323 618.519 54.9774 618.93 54.473C619.263 54.063 619.637 53.7746 619.953 53.6415C620.013 53.6154 620.903 53.271 621.529 53.995C621.645 54.1302 622.188 54.8312 622.304 54.9587C622.8 55.5018 623.316 56.0344 623.887 56.5159C625.682 58.0243 628.007 59.0726 630.423 59.5568C633.659 60.2055 637.105 59.9274 640.19 58.8544C641.245 58.4884 642.253 58.0398 643.222 57.5197C643.253 57.4893 643.472 57.274 643.585 57.1566C643.813 56.9158 644.054 56.7092 644.276 56.5825C644.936 56.2049 645.58 56.1986 646.212 56.6695C647.619 57.7201 648.534 59.4238 649.912 60.5665C653.867 63.8433 658.972 65.551 664.417 65.3278C672.695 64.9876 681.831 61.5604 686.056 54.9956C686.839 53.7784 686.978 52.5519 687.128 51.4871C687.259 50.568 687.406 49.7426 687.758 49.0654C687.873 48.8398 688.137 48.5085 688.737 48.3943C689.274 48.2929 691.551 48.5484 691.822 48.5757C694.731 48.87 697.563 49.5519 700.482 49.8051C708.549 50.5018 717.272 46.346 717.912 38.6131C718.264 34.3773 716.356 29.7127 712.734 26.8514C707.869 23.0089 699.907 21.2727 690.867 23.1794C690.275 23.3046 689.664 23.0393 689.414 22.5486C688.546 20.8299 685.543 15.5505 683.579 14.0039C678.69 10.1567 674.652 8.41317 667.995 8.23042C663.468 8.1061 659.1 9.17271 655.241 11.28C653.944 11.9885 652.673 12.7814 651.538 13.6833Z" fill="#293896"/>
<path fill-rule="evenodd" clip-rule="evenodd" d="M1467.19 162.792C1466.04 162.039 1464.71 161.429 1463.37 160.978C1459.23 159.579 1454.36 157.94 1449.05 160.366C1445.17 162.145 1442.9 164.187 1441.65 166.382C1440.05 169.179 1440.1 172.267 1440.74 175.523C1437.02 174.546 1433.15 174.167 1429.36 175.434C1424.81 176.958 1421.88 179.975 1420.92 183.395C1419.96 186.823 1420.95 190.684 1424.36 193.907C1427.43 196.817 1431.89 198.867 1436.43 199.142C1438.04 199.239 1439.74 199.044 1441.29 198.617C1441.63 198.523 1441.96 198.407 1442.28 198.275C1442.5 198.78 1442.68 199.369 1442.91 199.985C1443.36 201.243 1443.93 202.595 1444.87 203.732C1449.87 209.74 1459.55 211.331 1466.88 208.019C1468.85 207.129 1470.46 205.787 1471.85 204.297C1472.04 204.097 1472.28 203.738 1472.53 203.351C1473.06 203.918 1473.6 204.468 1474.2 204.971C1476.32 206.755 1479.07 208.003 1481.92 208.576C1485.65 209.322 1489.63 209.008 1493.18 207.774C1494.38 207.356 1495.53 206.845 1496.63 206.253C1496.8 206.161 1497.05 205.953 1497.26 205.751C1498.31 206.761 1499.11 208.094 1500.24 209.033C1504.7 212.729 1510.46 214.652 1516.6 214.398C1525.7 214.024 1535.68 210.156 1540.33 202.938C1541.14 201.665 1541.44 200.392 1541.62 199.228C1541.71 198.594 1541.76 197.999 1541.89 197.479C1542.53 197.537 1543.47 197.622 1543.6 197.635C1546.52 197.929 1549.36 198.614 1552.3 198.868C1561.72 199.683 1571.76 194.648 1572.5 185.617C1572.91 180.721 1570.68 175.339 1566.49 172.032C1561.29 167.927 1552.93 165.883 1543.35 167.651C1542.05 165.283 1539.22 160.669 1537.33 159.182C1531.94 154.94 1527.48 153.043 1520.14 152.842C1515.11 152.704 1510.25 153.884 1505.97 156.225C1504.53 157.01 1503.12 157.892 1501.87 158.894C1501.86 158.903 1501.65 159.101 1501.38 159.349C1500.94 158.626 1500.35 157.681 1500.14 157.41C1498.72 155.589 1496.76 154.017 1494.52 153.004C1491.06 151.429 1486.95 150.881 1483.09 151.093C1478.23 151.358 1474.49 152.786 1471.78 155.131C1469.54 157.073 1468.01 159.659 1467.19 162.792ZM1503.6 160.525L1503.6 160.528C1503.38 160.73 1502.38 161.671 1502.16 161.874C1501.47 162.506 1500.65 162.149 1500.64 162.144C1500.33 162.01 1499.88 161.621 1499.47 161.036C1498.93 160.254 1498.34 159.04 1498.05 158.675C1496.86 157.153 1495.23 155.834 1493.37 154.988C1490.3 153.595 1486.66 153.133 1483.24 153.32C1479.1 153.547 1475.87 154.717 1473.56 156.721C1471.23 158.737 1469.84 161.576 1469.3 165.052C1469.23 165.544 1468.92 165.764 1468.71 165.887C1468.4 166.062 1468.03 166.132 1467.61 166.013C1467.45 165.968 1467.21 165.869 1466.99 165.656C1466.9 165.571 1466.69 165.322 1466.63 165.252C1466.34 165.036 1466.07 164.837 1465.77 164.636C1464.78 163.979 1463.62 163.451 1462.46 163.062C1458.92 161.864 1454.76 160.27 1450.22 162.347C1446.94 163.85 1444.97 165.53 1443.91 167.385C1442.33 170.155 1442.76 173.26 1443.54 176.531C1443.81 176.826 1443.91 177.235 1443.75 177.617C1443.51 178.195 1442.78 178.493 1442.12 178.281C1438.3 177.047 1434.23 176.193 1430.26 177.52C1426.57 178.755 1424.16 181.162 1423.38 183.932C1422.6 186.695 1423.47 189.79 1426.21 192.386C1428.86 194.895 1432.7 196.678 1436.6 196.916C1437.91 196.993 1439.28 196.834 1440.53 196.487C1440.99 196.36 1441.42 196.173 1441.84 195.971C1441.87 195.958 1442.16 195.813 1442.22 195.785C1443.17 195.335 1443.83 196.092 1443.86 196.124C1444.35 196.74 1444.72 197.628 1445.08 198.633C1445.51 199.847 1445.96 201.266 1446.92 202.412C1451.18 207.546 1459.46 208.861 1465.73 206.031C1467.38 205.283 1468.72 204.133 1469.89 202.878C1470.18 202.574 1470.58 201.819 1470.99 201.315C1471.33 200.905 1471.7 200.616 1472.02 200.483C1472.08 200.457 1472.97 200.113 1473.59 200.837C1473.71 200.972 1474.25 201.673 1474.37 201.8C1474.86 202.344 1475.38 202.876 1475.95 203.358C1477.75 204.866 1480.07 205.914 1482.49 206.399C1485.72 207.047 1489.17 206.769 1492.25 205.696C1493.31 205.33 1494.32 204.882 1495.29 204.362C1495.32 204.331 1495.54 204.116 1495.65 203.998C1495.88 203.758 1496.12 203.551 1496.34 203.424C1497 203.047 1497.64 203.04 1498.28 203.511C1499.68 204.562 1500.6 206.266 1501.98 207.408C1505.93 210.685 1511.04 212.393 1516.48 212.17C1524.76 211.829 1533.89 208.402 1538.12 201.837C1538.9 200.62 1539.04 199.394 1539.19 198.329C1539.32 197.41 1539.47 196.584 1539.82 195.907C1539.94 195.682 1540.2 195.35 1540.8 195.236C1541.34 195.135 1543.61 195.39 1543.89 195.418C1546.79 195.712 1549.63 196.394 1552.55 196.647C1560.61 197.344 1569.34 193.188 1569.98 185.455C1570.33 181.219 1568.42 176.555 1564.8 173.693C1559.93 169.851 1551.97 168.114 1542.93 170.021C1542.34 170.146 1541.73 169.881 1541.48 169.39C1540.61 167.672 1537.61 162.392 1535.64 160.846C1530.75 156.999 1526.72 155.255 1520.06 155.072C1515.53 154.948 1511.16 156.015 1507.3 158.122C1506.01 158.83 1504.74 159.623 1503.6 160.525Z" fill="#293896"/>
<path fill-rule="evenodd" clip-rule="evenodd" d="M35.6124 163.571C34.7997 163.137 33.9897 162.695 33.1682 162.275C30.5162 160.923 27.4243 159.739 24.3219 159.645C22.4587 159.589 20.6251 159.876 18.8602 160.389C9.89915 162.995 6.19252 171.12 7.98375 178.667C2.43632 177.16 -3.41319 177.034 -8.74729 179.619C-16.4521 183.355 -18.4015 192.896 -11.7497 198.315C-8.27866 201.142 -3.16253 202.61 1.54153 202.18C3.07893 202.039 4.55046 201.764 5.97101 201.243C5.7697 202.699 5.85557 204.201 6.24605 205.625C8.05316 212.246 16.5604 215.784 23.698 215.38C28.2602 215.121 32.5962 213.39 35.8523 210.569C36.7335 209.804 37.5074 208.951 38.1436 208.021C38.8631 209.361 39.8637 210.561 41.121 211.722C48.8425 218.857 60.0456 218.787 69.6631 214.74C72.2265 213.66 74.1732 211.943 75.6899 209.848C76.1337 209.235 76.5525 208.607 76.9213 207.957C78.0428 208.813 78.9751 209.804 79.9523 210.758C81.4404 212.213 83.0181 213.592 85.2529 214.489C90.5377 216.609 97.3642 217.023 103.239 215.492C109.261 213.923 114.274 210.335 115.781 204.557C116.562 201.575 115.923 198.481 113.931 195.958C113.389 195.272 112.761 194.654 112.07 194.087C112.95 193.857 113.817 193.59 114.656 193.25C118.661 191.628 121.895 188.605 122.129 184.561C122.412 179.591 118.475 174.168 113.432 172.011C111.996 171.395 108.976 171.111 107.179 171.103C107.025 171.077 106.852 171.063 106.678 171.082C106.558 171.095 106.443 171.122 106.339 171.156L106.29 171.161L106.226 171.166C106.366 168.762 106.04 166.884 104.408 164.679C100.34 159.181 91.9983 157.426 85.1205 159.016C83.1297 159.476 81.2698 160.371 80.0314 161.862C79.8009 162.141 79.5923 162.432 79.4024 162.732C79.158 162.395 78.9391 162.086 78.7858 161.908C77.1645 160.041 75.3755 158.213 73.2819 156.746C68.3813 153.315 60.9833 151.2 54.0337 151.438C49.3086 151.6 44.797 152.845 41.3768 155.437C39.1465 157.125 37.363 159.136 36.1968 161.522C36.0011 161.925 35.8321 162.679 35.6504 163.415L35.6124 163.571ZM106.948 173.336C106.547 173.393 105.644 173.488 105.121 173.464C104.734 173.446 104.442 173.353 104.28 173.271C103.724 172.991 103.56 172.577 103.604 172.145C103.853 169.706 103.821 167.973 102.285 165.897C98.8084 161.2 91.6401 159.817 85.7622 161.175C84.3324 161.506 82.9667 162.108 82.0771 163.18C81.7461 163.578 81.4806 164.008 81.2588 164.46C81.2329 164.513 80.9956 165.054 80.9469 165.161C80.5339 166.062 79.427 165.84 79.4116 165.836C79.0368 165.741 78.5764 165.468 78.1567 165.034C77.6227 164.482 77.0751 163.61 76.772 163.264C75.2783 161.541 73.6349 159.846 71.7048 158.493C67.2348 155.362 60.4731 153.451 54.1311 153.668C49.992 153.81 46.0238 154.859 43.0262 157.129C41.0928 158.594 39.5369 160.334 38.5233 162.405C38.3333 162.796 38.2122 163.604 38.0228 164.297C37.831 165.009 37.5501 165.625 37.2442 165.945C37.1729 166.02 36.5564 166.614 35.6616 166.207C35.4776 166.123 34.605 165.643 34.5518 165.613C33.6672 165.145 32.7914 164.662 31.8981 164.207C29.5959 163.033 26.9284 161.957 24.235 161.875C22.673 161.828 21.1331 162.078 19.6543 162.509C11.3109 164.935 8.42857 172.999 10.9726 179.895C11.178 180.448 10.8657 181.041 10.2679 181.266C9.94219 181.452 9.51997 181.504 9.12866 181.373C3.68461 179.551 -2.20953 178.998 -7.52549 181.575C-13.7546 184.594 -15.4078 192.296 -10.0278 196.676C-7.07423 199.081 -2.72099 200.326 1.27868 199.96C2.64457 199.835 3.95135 199.593 5.20704 199.103C5.63168 198.937 6.04972 198.759 6.46117 198.566C6.53902 198.504 6.83269 198.279 6.95628 198.207C7.23058 198.047 7.49306 197.995 7.68321 197.986C8.02363 197.969 8.31221 198.058 8.554 198.22C8.77379 198.366 9.01487 198.6 9.0721 199.037C9.11652 199.362 9.04409 199.779 8.89228 200.21C8.77131 200.55 8.58339 200.91 8.53683 201.178C8.3088 202.474 8.35903 203.826 8.70783 205.103C10.2321 210.682 17.5208 213.493 23.5363 213.153C27.4914 212.929 31.2512 211.425 34.0742 208.978C35.0003 208.177 35.7782 207.261 36.3687 206.246C36.5607 205.918 36.7402 205.583 36.898 205.241C36.9554 205.119 37.0199 204.834 37.0769 204.698C37.1765 204.456 37.3158 204.302 37.3963 204.227C37.9213 203.748 38.4696 203.797 38.9282 204.013C39.0967 204.094 39.4651 204.274 39.5904 204.819C40.0774 206.942 41.2403 208.599 42.9537 210.182C49.8802 216.58 59.9448 216.356 68.5715 212.726C70.6986 211.83 72.2949 210.387 73.5528 208.648C73.9819 208.056 74.386 207.449 74.734 206.817C74.7528 206.735 74.8757 206.169 74.961 205.961C75.0779 205.682 75.2527 205.486 75.4206 205.36C75.6905 205.158 75.9976 205.064 76.3356 205.067C76.5661 205.07 76.8318 205.118 77.1199 205.286C79.0051 206.391 80.392 207.852 81.8357 209.265C83.0984 210.499 84.4092 211.697 86.3047 212.458C91.0667 214.369 97.2249 214.732 102.522 213.352C107.672 212.01 112.022 208.999 113.313 204.056C113.93 201.691 113.432 199.234 111.85 197.232C111.305 196.541 110.646 195.938 109.922 195.39C109.89 195.365 108.757 194.607 108.539 194.436C107.833 193.885 108.14 193.216 108.175 193.14C108.255 192.971 108.416 192.732 108.779 192.557C109.051 192.424 110.169 192.237 110.38 192.187C111.48 191.929 112.564 191.642 113.598 191.223C116.754 189.944 119.415 187.636 119.597 184.448C119.834 180.311 116.523 175.814 112.324 174.018C111.081 173.485 108.388 173.315 106.948 173.336Z" fill="#293896"/>
<path fill-rule="evenodd" clip-rule="evenodd" d="M1211.3 34.1174C1210.49 33.684 1209.68 33.2421 1208.86 32.8222C1206.21 31.4702 1203.12 30.2858 1200.01 30.1917C1198.15 30.1355 1196.32 30.423 1194.55 30.9363C1185.59 33.5417 1181.88 41.6664 1183.68 49.2135C1178.13 47.7071 1172.28 47.5813 1166.95 50.1663C1159.24 53.902 1157.29 63.443 1163.94 68.862C1167.41 71.6885 1172.53 73.1566 1177.23 72.7264C1178.77 72.5861 1180.24 72.3108 1181.66 71.79C1181.46 73.246 1181.55 74.7478 1181.94 76.1719C1183.75 82.7932 1192.25 86.3307 1199.39 85.9266C1203.95 85.6683 1208.29 83.9369 1211.54 81.1161C1212.43 80.3511 1213.2 79.4982 1213.84 78.5682C1214.56 79.9076 1215.56 81.1076 1216.81 82.2689C1224.53 89.4043 1235.74 89.334 1245.36 85.2864C1247.92 84.2073 1249.87 82.4904 1251.38 80.3947C1251.83 79.7815 1252.24 79.1541 1252.61 78.5036C1253.74 79.3601 1254.67 80.3506 1255.64 81.3052C1257.13 82.7602 1258.71 84.1387 1260.95 85.0359C1266.23 87.1558 1273.06 87.5699 1278.93 86.039C1284.95 84.47 1289.97 80.882 1291.47 75.1034C1292.25 72.1222 1291.62 69.0276 1289.62 66.5048C1289.08 65.8186 1288.45 65.2009 1287.76 64.6343C1288.64 64.4034 1289.51 64.1372 1290.35 63.797C1294.35 62.1749 1297.59 59.1519 1297.82 55.1078C1298.1 50.1379 1294.17 44.7151 1289.12 42.5574C1287.69 41.942 1284.67 41.6581 1282.87 41.6503C1282.72 41.6239 1282.54 41.6101 1282.37 41.6289C1282.25 41.6416 1282.14 41.6689 1282.03 41.7032L1281.98 41.7077L1281.92 41.7125C1282.06 39.3087 1281.73 37.4304 1280.1 35.2256C1276.03 29.7277 1267.69 27.973 1260.81 29.5633C1258.82 30.0233 1256.96 30.918 1255.72 32.4087C1255.49 32.688 1255.28 32.9785 1255.09 33.2787C1254.85 32.9421 1254.63 32.6325 1254.48 32.4553C1252.86 30.5877 1251.07 28.7597 1248.97 27.2924C1244.07 23.862 1236.68 21.7471 1229.73 21.9849C1225 22.1467 1220.49 23.392 1217.07 25.9838C1214.84 27.6714 1213.06 29.6832 1211.89 32.0689C1211.69 32.4718 1211.52 33.2255 1211.34 33.9622L1211.3 34.1174ZM1282.64 43.8833C1282.24 43.9397 1281.34 44.0353 1280.81 44.0109C1280.43 43.9929 1280.13 43.8999 1279.97 43.8182C1279.42 43.5382 1279.25 43.1241 1279.3 42.6922C1279.55 40.2529 1279.51 38.5198 1277.98 36.444C1274.5 31.7471 1267.33 30.3634 1261.45 31.7217C1260.02 32.0526 1258.66 32.655 1257.77 33.7267C1257.44 34.1252 1257.17 34.5548 1256.95 35.0073C1256.93 35.0597 1256.69 35.6008 1256.64 35.7081C1256.23 36.6089 1255.12 36.3864 1255.1 36.3828C1254.73 36.2881 1254.27 36.0151 1253.85 35.5804C1253.32 35.0285 1252.77 34.1574 1252.46 33.8106C1250.97 32.0874 1249.33 30.3929 1247.4 29.0395C1242.93 25.9087 1236.17 23.998 1229.82 24.215C1225.68 24.3568 1221.72 25.4058 1218.72 27.676C1216.79 29.1408 1215.23 30.8811 1214.22 32.9521C1214.03 33.3432 1213.9 34.1512 1213.72 34.8439C1213.52 35.5555 1213.24 36.1719 1212.94 36.4921C1212.87 36.5664 1212.25 37.1604 1211.35 36.754C1211.17 36.6702 1210.3 36.1896 1210.24 36.1603C1209.36 35.6917 1208.48 35.2093 1207.59 34.7536C1205.29 33.5795 1202.62 32.5039 1199.93 32.4222C1198.37 32.3751 1196.83 32.6251 1195.35 33.0554C1187 35.4818 1184.12 43.5461 1186.66 50.4419C1186.87 50.9951 1186.56 51.5882 1185.96 51.8125C1185.63 51.999 1185.21 52.0508 1184.82 51.9198C1179.38 50.0982 1173.48 49.5453 1168.17 52.1215C1161.94 55.141 1160.28 62.8431 1165.66 67.2233C1168.62 69.6281 1172.97 70.8726 1176.97 70.5067C1178.34 70.3818 1179.64 70.1396 1180.9 69.6498C1181.32 69.4843 1181.74 69.3063 1182.15 69.1132C1182.23 69.0512 1182.53 68.8257 1182.65 68.7536C1182.92 68.5935 1183.19 68.542 1183.38 68.5328C1183.72 68.5164 1184 68.6051 1184.25 68.767C1184.47 68.9132 1184.71 69.1474 1184.76 69.5837C1184.81 69.9094 1184.74 70.3254 1184.58 70.7564C1184.46 71.0971 1184.28 71.4568 1184.23 71.7245C1184 73.0208 1184.05 74.3733 1184.4 75.6496C1185.92 81.229 1193.21 84.0401 1199.23 83.6995C1203.18 83.4755 1206.94 81.9716 1209.77 79.5253C1210.69 78.7241 1211.47 77.8078 1212.06 76.7926C1212.25 76.4647 1212.43 76.1296 1212.59 75.7882C1212.65 75.6661 1212.71 75.3809 1212.77 75.245C1212.87 75.0025 1213.01 74.8488 1213.09 74.7735C1213.61 74.2946 1214.16 74.344 1214.62 74.5597C1214.79 74.6404 1215.16 74.8207 1215.28 75.3659C1215.77 77.489 1216.93 79.1462 1218.65 80.7291C1225.57 87.1273 1235.64 86.9024 1244.26 83.2728C1246.39 82.3773 1247.99 80.9344 1249.25 79.1951C1249.67 78.6026 1250.08 77.9958 1250.43 77.3639C1250.45 77.2823 1250.57 76.7159 1250.65 76.5076C1250.77 76.2289 1250.95 76.0324 1251.11 75.9067C1251.38 75.7053 1251.69 75.611 1252.03 75.6143C1252.26 75.6166 1252.52 75.6645 1252.81 75.8331C1254.7 76.9382 1256.08 78.3987 1257.53 79.8115C1258.79 81.0454 1260.1 82.244 1262 83.005C1266.76 84.9161 1272.92 85.2791 1278.21 83.8987C1283.36 82.5568 1287.71 79.5454 1289.01 74.6028C1289.62 72.2375 1289.12 69.7808 1287.54 67.7793C1287 67.0878 1286.34 66.4849 1285.61 65.9367C1285.58 65.9118 1284.45 65.1534 1284.23 64.9834C1283.53 64.4317 1283.83 63.7625 1283.87 63.6872C1283.95 63.5174 1284.11 63.2788 1284.47 63.1035C1284.74 62.9705 1285.86 62.7837 1286.07 62.7342C1287.17 62.4762 1288.26 62.1887 1289.29 61.7695C1292.45 60.4908 1295.11 58.1828 1295.29 54.9952C1295.53 50.8577 1292.22 46.3613 1288.02 44.5648C1286.77 44.0322 1284.08 43.8623 1282.64 43.8833Z" fill="#293896"/>
<path fill-rule="evenodd" clip-rule="evenodd" d="M908.763 135.203C907.895 134.046 907.039 132.902 905.726 131.957C899.967 127.812 891.457 128.114 885.972 132.483C884.162 133.925 882.944 135.669 882.241 137.718C882.031 138.332 881.86 138.956 881.739 139.588C881.294 139.44 880.853 139.239 880.403 139.048C879.255 138.56 878.077 138.106 876.824 138.071C871.236 137.914 867.014 142.567 866.08 147.116C864.47 146.805 862.687 146.408 859.279 147.577C852.012 150.069 848.094 157.999 852.16 164.07C854.548 167.635 859.865 170.145 864.588 169.903C866.393 169.811 868.128 169.392 869.772 168.736C869.89 168.689 870.007 168.641 870.124 168.592C869.996 173.525 870.103 177.409 876.382 180.461C881.405 182.903 886.839 183.015 891.937 180.676C893.522 179.948 895.013 178.914 896.244 177.78C896.322 177.707 896.903 177.06 897.332 176.58C898.209 176.96 899.069 177.544 899.911 178.159C901.156 179.068 902.351 180.055 903.45 180.744C908.831 184.119 915.893 186.914 922.671 186.151C927.624 185.594 932.216 183.755 936.015 180.91C937.308 179.941 938.539 178.889 939.507 177.653C939.72 177.38 939.921 177.1 940.112 176.815C940.707 177.216 941.279 177.7 941.851 178.19C942.903 179.089 943.95 180.014 945.063 180.66C950.45 183.787 957.771 183.658 963.237 180.687C967.588 178.322 970.81 174.29 971.576 169.81C971.826 168.332 971.799 166.763 971.251 165.333C971.168 165.115 971.076 164.902 970.975 164.694C971.968 164.584 973.01 164.557 973.942 164.371C979.496 163.264 984.48 159.635 984.706 154.306C985.03 146.693 977.816 142.271 970.06 140.998C968.26 140.702 966.431 140.639 964.614 140.849C964.255 140.89 963.844 141.03 963.436 141.216L963.19 141.325C963.158 141.205 963.129 141.081 963.1 140.956C962.975 140.428 962.865 139.895 962.698 139.478C961.949 137.608 960.963 135.799 959.82 134.091C953.767 125.051 942.46 119.23 930.479 121.114C923.684 122.183 917.283 124.869 912.688 129.46C911.115 131.031 909.77 132.73 908.956 134.711C908.889 134.874 908.824 135.039 908.763 135.203ZM968.357 165.058C968.561 165.372 968.718 165.701 968.85 166.046C969.27 167.142 969.262 168.345 969.069 169.478C968.415 173.317 965.634 176.761 961.907 178.787C957.26 181.313 951.036 181.454 946.457 178.796C945.468 178.223 944.551 177.388 943.617 176.589C942.529 175.658 941.418 174.774 940.221 174.238C939.637 173.977 939.171 174.087 938.78 174.352C938.639 174.448 938.499 174.581 938.39 174.763C938.325 174.87 938.229 175.16 938.192 175.273C937.955 175.655 937.7 176.028 937.42 176.386C936.579 177.461 935.498 178.368 934.373 179.21C930.95 181.774 926.814 183.435 922.349 183.938C916.191 184.631 909.81 181.993 904.919 178.926C903.639 178.123 902.23 176.898 900.757 175.895C899.641 175.135 898.485 174.499 897.33 174.176C897.202 174.14 896.559 173.972 895.974 174.508C895.695 174.764 894.539 176.121 894.413 176.237C893.369 177.199 892.11 178.08 890.766 178.696C886.453 180.676 881.856 180.573 877.606 178.507C871.621 175.597 872.616 171.675 872.705 166.717C872.713 166.243 872.474 165.984 872.279 165.826C872.027 165.622 871.71 165.504 871.312 165.526C871.136 165.537 870.876 165.586 870.6 165.748C870.485 165.815 870.205 166.028 870.132 166.085C869.672 166.306 869.204 166.512 868.726 166.703C867.366 167.246 865.934 167.599 864.441 167.675C860.604 167.871 856.283 165.833 854.343 162.936C851.06 158.034 854.331 151.669 860.198 149.657C863.842 148.407 865.305 149.36 867.034 149.529C867.378 149.562 867.723 149.47 867.988 149.274C868.253 149.077 868.415 148.794 868.437 148.49C868.577 146.533 869.52 144.426 871.034 142.826C872.47 141.307 874.433 140.237 876.744 140.301C877.646 140.326 878.476 140.707 879.302 141.058C880.451 141.546 881.593 142.002 882.765 142.043C882.765 142.043 883.939 142.017 884.077 141.039C884.097 140.894 884.198 140.169 884.206 140.125C884.312 139.528 884.469 138.941 884.667 138.363C885.234 136.711 886.211 135.301 887.672 134.138C892.24 130.5 899.327 130.233 904.123 133.685C906.012 135.045 906.836 136.884 908.304 138.489C908.669 138.889 909.066 138.943 909.327 138.95C909.707 138.959 910.069 138.847 910.365 138.539C910.479 138.42 910.625 138.211 910.691 137.905C910.735 137.7 910.718 137.296 910.772 137.109C910.93 136.555 911.118 136.008 911.338 135.471C912.043 133.755 913.227 132.296 914.589 130.936C918.803 126.725 924.692 124.291 930.924 123.311C941.851 121.592 952.117 126.98 957.637 135.225C958.698 136.809 959.613 138.487 960.308 140.221C960.631 141.025 960.742 142.277 961.225 143.03C961.661 143.709 962.315 143.913 963.141 143.762C963.459 143.704 963.834 143.558 964.215 143.379C964.469 143.259 964.719 143.088 964.944 143.062C966.496 142.882 968.058 142.939 969.595 143.192C976.139 144.266 982.446 147.801 982.175 154.223C981.992 158.506 977.847 161.305 973.382 162.194C971.862 162.498 970.068 162.43 968.606 162.87C968.176 162.999 967.965 163.233 967.841 163.447C967.718 163.658 967.666 163.892 967.71 164.15C967.737 164.305 967.805 164.493 967.958 164.684C968.029 164.773 968.261 164.975 968.357 165.058Z" fill="#293896"/>
<path fill-rule="evenodd" clip-rule="evenodd" d="M435.395 159.354C434.527 158.196 433.67 157.052 432.358 156.108C426.599 151.962 418.089 152.264 412.604 156.633C410.794 158.075 409.576 159.82 408.873 161.868C408.662 162.483 408.492 163.106 408.37 163.738C407.926 163.59 407.484 163.389 407.035 163.198C405.887 162.711 404.709 162.256 403.456 162.221C397.868 162.065 393.646 166.718 392.712 171.266C391.102 170.955 389.319 170.558 385.911 171.727C378.644 174.22 374.726 182.149 378.792 188.22C381.18 191.785 386.497 194.295 391.22 194.054C393.025 193.961 394.759 193.542 396.404 192.886C396.522 192.839 396.639 192.791 396.756 192.742C396.627 197.676 396.735 201.559 403.014 204.611C408.037 207.054 413.47 207.165 418.569 204.826C420.154 204.099 421.645 203.065 422.876 201.93C422.954 201.858 423.535 201.211 423.964 200.73C424.84 201.11 425.701 201.695 426.543 202.309C427.788 203.218 428.982 204.205 430.081 204.894C435.463 208.269 442.525 211.065 449.302 210.302C454.256 209.744 458.848 207.906 462.647 205.06C463.94 204.092 465.171 203.039 466.138 201.803C466.352 201.53 466.553 201.251 466.744 200.966C467.339 201.366 467.911 201.85 468.483 202.34C469.535 203.24 470.581 204.164 471.694 204.81C477.082 207.937 484.403 207.808 489.869 204.837C494.22 202.473 497.442 198.441 498.207 193.96C498.458 192.482 498.43 190.913 497.883 189.484C497.799 189.266 497.708 189.053 497.607 188.844C498.6 188.734 499.642 188.707 500.574 188.521C506.128 187.415 511.112 183.785 511.338 178.456C511.662 170.844 504.448 166.421 496.691 165.148C494.892 164.853 493.063 164.789 491.246 164.999C490.887 165.041 490.476 165.18 490.067 165.366L489.822 165.476C489.79 165.355 489.761 165.231 489.732 165.106C489.607 164.579 489.497 164.045 489.33 163.628C488.58 161.759 487.595 159.949 486.452 158.242C480.399 149.201 469.092 143.38 457.111 145.264C450.316 146.333 443.914 149.019 439.32 153.61C437.747 155.182 436.402 156.88 435.588 158.861C435.521 159.025 435.456 159.189 435.395 159.354ZM494.988 189.208C495.193 189.522 495.35 189.852 495.482 190.196C495.901 191.292 495.894 192.496 495.701 193.628C495.046 197.468 492.266 200.912 488.539 202.938C483.892 205.463 477.668 205.605 473.088 202.947C472.1 202.373 471.183 201.538 470.249 200.74C469.161 199.809 468.05 198.924 466.853 198.389C466.269 198.127 465.803 198.237 465.412 198.503C465.271 198.598 465.131 198.731 465.022 198.913C464.957 199.02 464.86 199.31 464.824 199.423C464.587 199.805 464.332 200.178 464.052 200.537C463.211 201.611 462.129 202.518 461.005 203.36C457.582 205.925 453.445 207.585 448.981 208.088C442.823 208.781 436.441 206.143 431.551 203.076C430.271 202.274 428.861 201.049 427.389 200.045C426.273 199.285 425.117 198.649 423.961 198.326C423.833 198.29 423.19 198.122 422.606 198.658C422.327 198.915 421.171 200.272 421.044 200.388C420.001 201.349 418.742 202.23 417.398 202.847C413.085 204.826 408.488 204.724 404.238 202.657C398.253 199.748 399.247 195.826 399.336 190.867C399.345 190.393 399.106 190.134 398.911 189.976C398.659 189.772 398.342 189.654 397.944 189.677C397.767 189.687 397.507 189.736 397.232 189.898C397.117 189.966 396.837 190.179 396.764 190.235C396.304 190.457 395.836 190.663 395.358 190.853C393.998 191.396 392.566 191.749 391.073 191.826C387.235 192.022 382.915 189.983 380.974 187.086C377.692 182.185 380.963 175.819 386.83 173.807C390.473 172.557 391.937 173.511 393.666 173.679C394.01 173.712 394.355 173.62 394.62 173.424C394.885 173.228 395.047 172.944 395.069 172.64C395.209 170.683 396.152 168.577 397.666 166.976C399.102 165.457 401.064 164.387 403.376 164.452C404.278 164.477 405.108 164.857 405.934 165.208C407.083 165.696 408.225 166.152 409.397 166.193C409.397 166.193 410.571 166.167 410.708 165.189C410.729 165.045 410.83 164.319 410.838 164.275C410.943 163.679 411.1 163.092 411.299 162.514C411.865 160.861 412.843 159.452 414.303 158.289C418.871 154.65 425.959 154.383 430.755 157.836C432.644 159.195 433.468 161.034 434.936 162.64C435.301 163.039 435.698 163.094 435.959 163.1C436.339 163.109 436.701 162.997 436.997 162.689C437.111 162.57 437.257 162.361 437.323 162.056C437.366 161.851 437.35 161.446 437.404 161.259C437.562 160.705 437.75 160.158 437.97 159.621C438.675 157.906 439.859 156.447 441.22 155.086C445.435 150.875 451.324 148.442 457.556 147.461C468.483 145.743 478.749 151.13 484.269 159.375C485.33 160.959 486.245 162.637 486.94 164.371C487.263 165.176 487.374 166.427 487.857 167.18C488.293 167.86 488.947 168.064 489.773 167.912C490.091 167.854 490.466 167.708 490.847 167.529C491.101 167.41 491.35 167.238 491.576 167.212C493.128 167.032 494.69 167.09 496.227 167.342C502.771 168.416 509.078 171.952 508.806 178.373C508.624 182.656 504.479 185.455 500.014 186.345C498.494 186.648 496.7 186.58 495.238 187.02C494.808 187.15 494.597 187.383 494.473 187.598C494.349 187.809 494.298 188.043 494.342 188.301C494.369 188.455 494.437 188.643 494.59 188.834C494.661 188.923 494.892 189.125 494.988 189.208Z" fill="#293896"/>
<path fill-rule="evenodd" clip-rule="evenodd" d="M211.269 20.2425C210.401 19.0851 209.544 17.9407 208.232 16.9964C202.473 12.8511 193.963 13.1531 188.478 17.522C186.668 18.9639 185.45 20.7085 184.747 22.7566C184.536 23.3712 184.366 23.9946 184.245 24.6271C183.8 24.4791 183.358 24.2778 182.909 24.0868C181.761 23.5996 180.583 23.1447 179.33 23.1097C173.742 22.9532 169.52 27.6065 168.586 32.155C166.976 31.8441 165.193 31.4471 161.785 32.6161C154.518 35.1085 150.6 43.0378 154.666 49.1089C157.054 52.6741 162.371 55.1837 167.094 54.9423C168.899 54.8501 170.634 54.431 172.278 53.7748C172.396 53.7277 172.513 53.68 172.63 53.6311C172.501 58.5642 172.609 62.4477 178.888 65.5001C183.911 67.9423 189.344 68.0541 194.443 65.7148C196.028 64.9874 197.519 63.9535 198.75 62.8186C198.828 62.7465 199.409 62.0995 199.838 61.6186C200.714 61.9991 201.575 62.5834 202.417 63.1978C203.662 64.1066 204.857 65.0939 205.955 65.7831C211.337 69.1579 218.399 71.9535 225.176 71.1904C230.13 70.6327 234.722 68.7944 238.521 65.9489C239.814 64.9803 241.045 63.9278 242.012 62.6916C242.226 62.4191 242.427 62.1395 242.618 61.8543C243.213 62.2549 243.785 62.7389 244.357 63.229C245.409 64.1284 246.456 65.0531 247.568 65.6989C252.956 68.8256 260.277 68.6966 265.743 65.7257C270.094 63.3614 273.316 59.3295 274.081 54.8487C274.332 53.3709 274.304 51.8022 273.757 50.3723C273.673 50.1545 273.582 49.9413 273.481 49.7326C274.474 49.6228 275.516 49.5961 276.448 49.4101C282.002 48.3034 286.986 44.6741 287.212 39.3451C287.536 31.7325 280.322 27.3099 272.565 26.0366C270.766 25.7414 268.937 25.6778 267.12 25.888C266.761 25.9295 266.35 26.0688 265.941 26.2547L265.696 26.3645C265.664 26.244 265.635 26.1197 265.606 25.9951C265.481 25.4673 265.371 24.9339 265.204 24.517C264.454 22.6473 263.469 20.8377 262.326 19.1302C256.273 10.0898 244.966 4.26866 232.985 6.15316C226.19 7.22173 219.788 9.90811 215.194 14.4989C213.621 16.0705 212.276 17.7686 211.462 19.75C211.395 19.9133 211.33 20.0776 211.269 20.2425ZM270.862 50.0969C271.067 50.4107 271.224 50.7403 271.356 51.0847C271.775 52.1807 271.768 53.3845 271.575 54.5171C270.92 58.3564 268.14 61.8005 264.413 63.8265C259.766 66.3519 253.542 66.4934 248.963 63.8354C247.974 63.2616 247.057 62.4272 246.123 61.6282C245.035 60.6973 243.924 59.8126 242.727 59.2772C242.143 59.0159 241.677 59.1259 241.286 59.3913C241.145 59.4866 241.005 59.62 240.896 59.8017C240.831 59.9091 240.734 60.199 240.698 60.3119C240.461 60.6937 240.206 61.0671 239.926 61.4253C239.085 62.5001 238.003 63.4067 236.879 64.2487C233.456 66.8133 229.319 68.4739 224.855 68.9767C218.697 69.6701 212.315 67.0317 207.425 63.9651C206.145 63.1623 204.735 61.9375 203.263 60.9341C202.147 60.1737 200.991 59.5377 199.835 59.2147C199.708 59.179 199.064 59.011 198.48 59.5468C198.201 59.8033 197.045 61.1602 196.919 61.2765C195.875 62.2381 194.616 63.119 193.272 63.7354C188.959 65.7148 184.362 65.6123 180.112 63.5462C174.127 60.6364 175.121 56.7143 175.21 51.756C175.219 51.2819 174.98 51.0228 174.785 50.8648C174.533 50.6611 174.216 50.5428 173.818 50.5655C173.641 50.5756 173.381 50.6247 173.106 50.7869C172.991 50.8545 172.711 51.0675 172.638 51.1237C172.178 51.3453 171.71 51.5513 171.232 51.7419C169.872 52.2847 168.44 52.638 166.947 52.7143C163.11 52.9105 158.789 50.872 156.848 47.9749C153.566 43.0735 156.837 36.7081 162.704 34.6957C166.348 33.4461 167.811 34.3995 169.54 34.5676C169.884 34.601 170.229 34.5091 170.494 34.3127C170.759 34.1165 170.921 33.8331 170.943 33.5287C171.083 31.5717 172.026 29.4655 173.54 27.8647C174.976 26.346 176.938 25.2756 179.25 25.3403C180.152 25.3656 180.982 25.7461 181.808 26.0971C182.957 26.585 184.099 27.0407 185.271 27.082C185.271 27.082 186.445 27.0557 186.582 26.0781C186.603 25.9335 186.704 25.208 186.712 25.164C186.817 24.5672 186.974 23.9803 187.173 23.4023C187.739 21.7501 188.717 20.3403 190.177 19.1773C194.745 15.5389 201.833 15.2722 206.629 18.7245C208.518 20.0838 209.342 21.923 210.81 23.5284C211.175 23.9276 211.572 23.9825 211.833 23.989C212.213 23.9982 212.575 23.8861 212.871 23.5777C212.985 23.459 213.131 23.2496 213.197 22.9445C213.24 22.7392 213.224 22.3346 213.278 22.1478C213.436 21.5936 213.624 21.0471 213.844 20.5097C214.549 18.7946 215.733 17.3352 217.094 15.9747C221.309 11.764 227.198 9.3303 233.43 8.35011C244.357 6.63143 254.623 12.0191 260.143 20.2637C261.204 21.8478 262.119 23.5257 262.814 25.26C263.137 26.0645 263.248 27.3157 263.731 28.0689C264.167 28.7482 264.821 28.9524 265.647 28.8011C265.965 28.7429 266.34 28.5969 266.721 28.4177C266.975 28.2983 267.224 28.1269 267.45 28.1008C269.002 27.9211 270.564 27.9783 272.101 28.2307C278.645 29.3046 284.952 32.8404 284.68 39.2616C284.498 43.5446 280.353 46.3439 275.888 47.2335C274.368 47.5368 272.574 47.469 271.112 47.9091C270.682 48.0385 270.471 48.272 270.347 48.4862C270.223 48.6973 270.172 48.9312 270.216 49.1892C270.243 49.3439 270.311 49.5318 270.464 49.7226C270.535 49.8119 270.766 50.0141 270.862 50.0969Z" fill="#293896"/>
<path fill-rule="evenodd" clip-rule="evenodd" d="M1678.71 42.4613C1677.84 41.3039 1676.99 40.1594 1675.67 39.2152C1669.91 35.0699 1661.4 35.3718 1655.92 39.7408C1654.11 41.1827 1652.89 42.9273 1652.19 44.9754C1651.98 45.59 1651.81 46.2133 1651.69 46.8458C1651.24 46.6978 1650.8 46.4965 1650.35 46.3055C1649.2 45.8183 1648.02 45.3635 1646.77 45.3284C1641.18 45.172 1636.96 49.8252 1636.03 54.3738C1634.42 54.0629 1632.63 53.6659 1629.23 54.8349C1621.96 57.3273 1618.04 65.2565 1622.11 71.3276C1624.5 74.8929 1629.81 77.4025 1634.54 77.161C1636.34 77.0688 1638.07 76.6497 1639.72 75.9936C1639.84 75.9465 1639.95 75.8987 1640.07 75.8498C1639.94 80.7829 1640.05 84.6664 1646.33 87.7188C1651.35 90.1611 1656.79 90.2729 1661.88 87.9335C1663.47 87.2062 1664.96 86.1722 1666.19 85.0374C1666.27 84.9653 1666.85 84.3183 1667.28 83.8373C1668.16 84.2178 1669.02 84.8021 1669.86 85.4165C1671.1 86.3253 1672.3 87.3126 1673.4 88.0018C1678.78 91.3767 1685.84 94.1722 1692.62 93.4092C1697.57 92.8514 1702.16 91.0131 1705.96 88.1676C1707.25 87.199 1708.49 86.1466 1709.45 84.9104C1709.67 84.6379 1709.87 84.3582 1710.06 84.073C1710.65 84.4736 1711.23 84.9577 1711.8 85.4478C1712.85 86.3472 1713.9 87.2718 1715.01 87.9177C1720.4 91.0444 1727.72 90.9154 1733.18 87.9445C1737.54 85.5801 1740.76 81.5482 1741.52 77.0675C1741.77 75.5896 1741.75 74.0209 1741.2 72.591C1741.11 72.3732 1741.02 72.1601 1740.92 71.9514C1741.92 71.8416 1742.96 71.8148 1743.89 71.6289C1749.44 70.5222 1754.43 66.8929 1754.65 61.5639C1754.98 53.9513 1747.76 49.5286 1740.01 48.2554C1738.21 47.9601 1736.38 47.8965 1734.56 48.1068C1734.2 48.1483 1733.79 48.2875 1733.38 48.4734L1733.14 48.5832C1733.11 48.4627 1733.08 48.3384 1733.05 48.2139C1732.92 47.6861 1732.81 47.1527 1732.65 46.7358C1731.9 44.866 1730.91 43.0565 1729.77 41.349C1723.71 32.3085 1712.41 26.4874 1700.43 28.3719C1693.63 29.4405 1687.23 32.1269 1682.64 36.7176C1681.06 38.2892 1679.72 39.9874 1678.9 41.9687C1678.84 42.1321 1678.77 42.2963 1678.71 42.4613ZM1738.3 72.3156C1738.51 72.6294 1738.67 72.959 1738.8 73.3034C1739.22 74.3994 1739.21 75.6032 1739.02 76.7359C1738.36 80.5752 1735.58 84.0192 1731.85 86.0452C1727.21 88.5707 1720.98 88.7122 1716.4 86.0542C1715.42 85.4804 1714.5 84.6459 1713.56 83.8469C1712.48 82.9161 1711.37 82.0314 1710.17 81.496C1709.58 81.2347 1709.12 81.3447 1708.73 81.61C1708.59 81.7053 1708.45 81.8388 1708.34 82.0205C1708.27 82.1278 1708.18 82.4177 1708.14 82.5306C1707.9 82.9125 1707.65 83.2859 1707.37 83.6441C1706.53 84.7189 1705.44 85.6254 1704.32 86.4675C1700.9 89.032 1696.76 90.6927 1692.3 91.1955C1686.14 91.8889 1679.76 89.2505 1674.87 86.1838C1673.59 85.3811 1672.18 84.1563 1670.7 83.1529C1669.59 82.3925 1668.43 81.7564 1667.28 81.4335C1667.15 81.3978 1666.51 81.2297 1665.92 81.7656C1665.64 82.022 1664.49 83.3789 1664.36 83.4952C1663.32 84.4569 1662.06 85.3378 1660.71 85.9542C1656.4 87.9335 1651.8 87.8311 1647.55 85.7649C1641.57 82.8551 1642.56 78.933 1642.65 73.9747C1642.66 73.5007 1642.42 73.2416 1642.23 73.0836C1641.97 72.8798 1641.66 72.7615 1641.26 72.7843C1641.08 72.7943 1640.82 72.8434 1640.55 73.0057C1640.43 73.0733 1640.15 73.2862 1640.08 73.3425C1639.62 73.5641 1639.15 73.7701 1638.67 73.9607C1637.31 74.5034 1635.88 74.8567 1634.39 74.933C1630.55 75.1292 1626.23 73.0907 1624.29 70.1937C1621.01 65.2923 1624.28 58.9268 1630.15 56.9144C1633.79 55.6649 1635.25 56.6183 1636.98 56.7863C1637.33 56.8198 1637.67 56.7279 1637.94 56.5315C1638.2 56.3353 1638.36 56.0519 1638.38 55.7474C1638.52 53.7904 1639.47 51.6843 1640.98 50.0834C1642.42 48.5647 1644.38 47.4944 1646.69 47.5591C1647.59 47.5843 1648.42 47.9648 1649.25 48.3159C1650.4 48.8037 1651.54 49.2595 1652.71 49.3007C1652.71 49.3007 1653.89 49.2744 1654.02 48.2969C1654.04 48.1523 1654.15 47.4267 1654.15 47.3828C1654.26 46.786 1654.42 46.199 1654.61 45.621C1655.18 43.9688 1656.16 42.559 1657.62 41.3961C1662.19 37.7576 1669.27 37.4909 1674.07 40.9432C1675.96 42.3026 1676.78 44.1418 1678.25 45.7471C1678.62 46.1464 1679.01 46.2013 1679.27 46.2078C1679.65 46.2169 1680.02 46.1049 1680.31 45.7964C1680.43 45.6777 1680.57 45.4684 1680.64 45.1633C1680.68 44.958 1680.67 44.5533 1680.72 44.3665C1680.88 43.8124 1681.06 43.2658 1681.29 42.7284C1681.99 41.0133 1683.17 39.554 1684.54 38.1935C1688.75 33.9828 1694.64 31.5491 1700.87 30.5689C1711.8 28.8502 1722.06 34.2379 1727.58 42.4825C1728.65 44.0666 1729.56 45.7444 1730.26 47.4787C1730.58 48.2833 1730.69 49.5344 1731.17 50.2876C1731.61 50.967 1732.26 51.1712 1733.09 51.0199C1733.41 50.9616 1733.78 50.8157 1734.16 50.6365C1734.42 50.5171 1734.67 50.3457 1734.89 50.3195C1736.44 50.1399 1738.01 50.197 1739.54 50.4494C1746.09 51.5234 1752.39 55.0592 1752.12 61.4804C1751.94 65.7634 1747.79 68.5627 1743.33 69.4523C1741.81 69.7556 1740.02 69.6877 1738.55 70.1278C1738.12 70.2573 1737.91 70.4907 1737.79 70.705C1737.66 70.9161 1737.61 71.15 1737.66 71.408C1737.68 71.5626 1737.75 71.7505 1737.91 71.9414C1737.98 72.0306 1738.21 72.2328 1738.3 72.3156Z" fill="#293896"/>
<path fill-rule="evenodd" clip-rule="evenodd" d="M1862.43 161.639C1861.62 161.205 1860.81 160.764 1859.98 160.344C1857.33 158.992 1854.24 157.807 1851.14 157.713C1849.27 157.657 1847.44 157.944 1845.68 158.458C1836.71 161.063 1833.01 169.188 1834.8 176.735C1829.25 175.229 1823.4 175.103 1818.07 177.688C1810.36 181.423 1808.41 190.964 1815.07 196.383C1818.54 199.21 1823.65 200.678 1828.36 200.248C1829.89 200.108 1831.37 199.832 1832.79 199.311C1832.59 200.768 1832.67 202.269 1833.06 203.693C1834.87 210.315 1843.38 213.852 1850.51 213.448C1855.08 213.19 1859.41 211.458 1862.67 208.638C1863.55 207.873 1864.32 207.02 1864.96 206.09C1865.68 207.429 1866.68 208.629 1867.94 209.79C1875.66 216.926 1886.86 216.855 1896.48 212.808C1899.04 211.729 1900.99 210.012 1902.51 207.916C1902.95 207.303 1903.37 206.676 1903.74 206.025C1904.86 206.882 1905.79 207.872 1906.77 208.827C1908.26 210.282 1909.83 211.66 1912.07 212.557C1917.35 214.677 1924.18 215.091 1930.05 213.56C1936.08 211.991 1941.09 208.403 1942.6 202.625C1943.38 199.644 1942.74 196.549 1940.75 194.026C1940.2 193.34 1939.58 192.722 1938.89 192.156C1939.77 191.925 1940.63 191.659 1941.47 191.318C1945.48 189.696 1948.71 186.673 1948.94 182.629C1949.23 177.659 1945.29 172.237 1940.25 170.079C1938.81 169.464 1935.79 169.18 1933.99 169.172C1933.84 169.145 1933.67 169.132 1933.49 169.15C1933.37 169.163 1933.26 169.19 1933.15 169.225L1933.11 169.229L1933.04 169.234C1933.18 166.83 1932.86 164.952 1931.22 162.747C1927.16 157.249 1918.81 155.494 1911.94 157.085C1909.95 157.545 1908.09 158.439 1906.85 159.93C1906.62 160.21 1906.41 160.5 1906.22 160.8C1905.97 160.464 1905.75 160.154 1905.6 159.977C1903.98 158.109 1902.19 156.281 1900.1 154.814C1895.2 151.383 1887.8 149.269 1880.85 149.506C1876.12 149.668 1871.61 150.914 1868.19 153.505C1865.96 155.193 1864.18 157.205 1863.01 159.59C1862.82 159.993 1862.65 160.747 1862.47 161.484L1862.43 161.639ZM1933.76 171.405C1933.36 171.461 1932.46 171.557 1931.94 171.532C1931.55 171.514 1931.26 171.421 1931.1 171.34C1930.54 171.06 1930.38 170.646 1930.42 170.214C1930.67 167.774 1930.64 166.041 1929.1 163.966C1925.62 159.269 1918.46 157.885 1912.58 159.243C1911.15 159.574 1909.78 160.176 1908.89 161.248C1908.56 161.647 1908.3 162.076 1908.07 162.529C1908.05 162.581 1907.81 163.122 1907.76 163.23C1907.35 164.13 1906.24 163.908 1906.23 163.904C1905.85 163.81 1905.39 163.537 1904.97 163.102C1904.44 162.55 1903.89 161.679 1903.59 161.332C1902.09 159.609 1900.45 157.914 1898.52 156.561C1894.05 153.43 1887.29 151.519 1880.95 151.737C1876.81 151.878 1872.84 152.927 1869.84 155.198C1867.91 156.662 1866.35 158.403 1865.34 160.474C1865.15 160.865 1865.03 161.673 1864.84 162.365C1864.65 163.077 1864.37 163.693 1864.06 164.014C1863.99 164.088 1863.37 164.682 1862.48 164.275C1862.29 164.192 1861.42 163.711 1861.37 163.682C1860.48 163.213 1859.61 162.731 1858.71 162.275C1856.41 161.101 1853.74 160.025 1851.05 159.944C1849.49 159.897 1847.95 160.147 1846.47 160.577C1838.13 163.003 1835.24 171.068 1837.79 177.963C1837.99 178.517 1837.68 179.11 1837.08 179.334C1836.76 179.52 1836.34 179.572 1835.94 179.441C1830.5 177.62 1824.61 177.067 1819.29 179.643C1813.06 182.662 1811.41 190.365 1816.79 194.745C1819.74 197.15 1824.09 198.394 1828.09 198.028C1829.46 197.903 1830.77 197.661 1832.02 197.171C1832.45 197.006 1832.87 196.828 1833.28 196.635C1833.35 196.573 1833.65 196.347 1833.77 196.275C1834.05 196.115 1834.31 196.063 1834.5 196.054C1834.84 196.038 1835.13 196.127 1835.37 196.288C1835.59 196.435 1835.83 196.669 1835.89 197.105C1835.93 197.431 1835.86 197.847 1835.71 198.278C1835.59 198.619 1835.4 198.978 1835.35 199.246C1835.12 200.542 1835.17 201.895 1835.52 203.171C1837.05 208.75 1844.34 211.562 1850.35 211.221C1854.31 210.997 1858.07 209.493 1860.89 207.047C1861.82 206.246 1862.59 205.329 1863.18 204.314C1863.38 203.986 1863.56 203.651 1863.71 203.31C1863.77 203.188 1863.84 202.902 1863.89 202.767C1863.99 202.524 1864.13 202.37 1864.21 202.295C1864.74 201.816 1865.29 201.866 1865.74 202.081C1865.91 202.162 1866.28 202.342 1866.41 202.887C1866.89 205.011 1868.06 206.668 1869.77 208.251C1876.7 214.649 1886.76 214.424 1895.39 210.794C1897.51 209.899 1899.11 208.456 1900.37 206.717C1900.8 206.124 1901.2 205.517 1901.55 204.885C1901.57 204.804 1901.69 204.237 1901.78 204.029C1901.89 203.75 1902.07 203.554 1902.24 203.428C1902.51 203.227 1902.81 203.132 1903.15 203.136C1903.38 203.138 1903.65 203.186 1903.94 203.355C1905.82 204.46 1907.21 205.92 1908.65 207.333C1909.91 208.567 1911.22 209.766 1913.12 210.526C1917.88 212.438 1924.04 212.801 1929.34 211.42C1934.49 210.078 1938.84 207.067 1940.13 202.124C1940.75 199.759 1940.25 197.302 1938.67 195.301C1938.12 194.609 1937.46 194.006 1936.74 193.458C1936.71 193.433 1935.57 192.675 1935.35 192.505C1934.65 191.953 1934.96 191.284 1934.99 191.209C1935.07 191.039 1935.23 190.8 1935.59 190.625C1935.87 190.492 1936.98 190.305 1937.2 190.256C1938.3 189.998 1939.38 189.71 1940.41 189.291C1943.57 188.012 1946.23 185.704 1946.41 182.517C1946.65 178.379 1943.34 173.883 1939.14 172.086C1937.9 171.554 1935.2 171.384 1933.76 171.405Z" fill="#293896"/>
</svg>
