<svg width="446" height="71" viewBox="0 0 446 71" fill="none" xmlns="http://www.w3.org/2000/svg">
<path d="M0.993256 69V1.8H19.6173L46.4973 45.672H36.7053L62.8173 1.8H81.4413L81.6333 69H60.9933L60.8013 32.904H64.0653L46.2093 62.952H36.2253L17.6013 32.904H21.6333V69H0.993256ZM94.507 69V1.8H117.163V69H94.507ZM155.046 70.536C149.414 70.536 143.974 69.896 138.726 68.616C133.478 67.336 129.158 65.672 125.766 63.624L133.062 47.112C136.262 48.968 139.814 50.472 143.718 51.624C147.686 52.712 151.526 53.256 155.238 53.256C157.414 53.256 159.11 53.128 160.326 52.872C161.606 52.552 162.534 52.136 163.11 51.624C163.686 51.048 163.974 50.376 163.974 49.608C163.974 48.392 163.302 47.432 161.958 46.728C160.614 46.024 158.822 45.448 156.582 45C154.406 44.488 152.006 43.976 149.382 43.464C146.758 42.888 144.102 42.152 141.414 41.256C138.79 40.36 136.358 39.176 134.118 37.704C131.942 36.232 130.182 34.312 128.838 31.944C127.494 29.512 126.822 26.504 126.822 22.92C126.822 18.76 127.974 14.984 130.278 11.592C132.646 8.136 136.134 5.384 140.742 3.336C145.414 1.288 151.206 0.263998 158.118 0.263998C162.662 0.263998 167.142 0.743998 171.558 1.704C175.974 2.664 179.942 4.136 183.462 6.12L176.646 22.536C173.318 20.872 170.086 19.624 166.95 18.792C163.878 17.96 160.87 17.544 157.926 17.544C155.75 17.544 154.022 17.736 152.742 18.12C151.462 18.504 150.534 19.016 149.958 19.656C149.446 20.296 149.19 21 149.19 21.768C149.19 22.92 149.862 23.848 151.206 24.552C152.55 25.192 154.31 25.736 156.486 26.184C158.726 26.632 161.158 27.112 163.782 27.624C166.47 28.136 169.126 28.84 171.75 29.736C174.374 30.632 176.774 31.816 178.95 33.288C181.19 34.76 182.982 36.68 184.326 39.048C185.67 41.416 186.342 44.36 186.342 47.88C186.342 51.976 185.158 55.752 182.79 59.208C180.486 62.6 177.03 65.352 172.422 67.464C167.814 69.512 162.022 70.536 155.046 70.536ZM220.059 70.536C214.427 70.536 208.987 69.896 203.739 68.616C198.491 67.336 194.171 65.672 190.779 63.624L198.075 47.112C201.275 48.968 204.827 50.472 208.731 51.624C212.699 52.712 216.539 53.256 220.251 53.256C222.427 53.256 224.123 53.128 225.339 52.872C226.619 52.552 227.547 52.136 228.123 51.624C228.699 51.048 228.987 50.376 228.987 49.608C228.987 48.392 228.315 47.432 226.971 46.728C225.627 46.024 223.835 45.448 221.595 45C219.419 44.488 217.019 43.976 214.395 43.464C211.771 42.888 209.115 42.152 206.427 41.256C203.803 40.36 201.371 39.176 199.131 37.704C196.955 36.232 195.195 34.312 193.851 31.944C192.507 29.512 191.835 26.504 191.835 22.92C191.835 18.76 192.987 14.984 195.291 11.592C197.659 8.136 201.147 5.384 205.755 3.336C210.427 1.288 216.219 0.263998 223.131 0.263998C227.675 0.263998 232.155 0.743998 236.571 1.704C240.987 2.664 244.955 4.136 248.475 6.12L241.659 22.536C238.331 20.872 235.099 19.624 231.963 18.792C228.891 17.96 225.883 17.544 222.939 17.544C220.763 17.544 219.035 17.736 217.755 18.12C216.475 18.504 215.547 19.016 214.971 19.656C214.459 20.296 214.203 21 214.203 21.768C214.203 22.92 214.875 23.848 216.219 24.552C217.563 25.192 219.323 25.736 221.499 26.184C223.739 26.632 226.171 27.112 228.795 27.624C231.483 28.136 234.139 28.84 236.763 29.736C239.387 30.632 241.787 31.816 243.963 33.288C246.203 34.76 247.995 36.68 249.339 39.048C250.683 41.416 251.355 44.36 251.355 47.88C251.355 51.976 250.171 55.752 247.803 59.208C245.499 62.6 242.043 65.352 237.435 67.464C232.827 69.512 227.035 70.536 220.059 70.536ZM260.017 69V1.8H282.673V69H260.017ZM330.828 70.536C325.324 70.536 320.236 69.672 315.564 67.944C310.956 66.216 306.956 63.784 303.564 60.648C300.172 57.448 297.516 53.704 295.596 49.416C293.74 45.128 292.812 40.456 292.812 35.4C292.812 30.28 293.74 25.608 295.596 21.384C297.516 17.096 300.172 13.384 303.564 10.248C306.956 7.04799 310.956 4.584 315.564 2.856C320.236 1.128 325.292 0.263998 330.732 0.263998C336.236 0.263998 341.292 1.128 345.9 2.856C350.508 4.584 354.508 7.04799 357.9 10.248C361.292 13.384 363.916 17.096 365.772 21.384C367.692 25.608 368.652 30.28 368.652 35.4C368.652 40.456 367.692 45.128 365.772 49.416C363.916 53.704 361.292 57.448 357.9 60.648C354.508 63.784 350.508 66.216 345.9 67.944C341.292 69.672 336.268 70.536 330.828 70.536ZM330.732 52.2C332.844 52.2 334.796 51.816 336.588 51.048C338.444 50.28 340.044 49.192 341.388 47.784C342.796 46.312 343.884 44.552 344.652 42.504C345.42 40.392 345.804 38.024 345.804 35.4C345.804 32.776 345.42 30.44 344.652 28.392C343.884 26.28 342.796 24.52 341.388 23.112C340.044 21.64 338.444 20.52 336.588 19.752C334.796 18.984 332.844 18.6 330.732 18.6C328.62 18.6 326.636 18.984 324.78 19.752C322.988 20.52 321.388 21.64 319.98 23.112C318.636 24.52 317.58 26.28 316.812 28.392C316.044 30.44 315.66 32.776 315.66 35.4C315.66 38.024 316.044 40.392 316.812 42.504C317.58 44.552 318.636 46.312 319.98 47.784C321.388 49.192 322.988 50.28 324.78 51.048C326.636 51.816 328.62 52.2 330.732 52.2ZM378.795 69V1.8H397.419L431.595 42.696H422.955V1.8H445.035V69H426.411L392.235 28.104H400.875V69H378.795Z" fill="white"/>
<path d="M0.993256 69H-2.00674V72H0.993256V69ZM0.993256 1.8V-1.2H-2.00674V1.8H0.993256ZM19.6173 1.8L22.1753 0.232702L21.2975 -1.2H19.6173V1.8ZM46.4973 45.672V48.672H51.8536L49.0553 44.1047L46.4973 45.672ZM36.7053 45.672L34.1273 44.1376L31.4285 48.672H36.7053V45.672ZM62.8173 1.8V-1.2H61.1116L60.2393 0.265642L62.8173 1.8ZM81.4413 1.8L84.4413 1.79142L84.4327 -1.2H81.4413V1.8ZM81.6333 69V72H84.6418L84.6332 68.9914L81.6333 69ZM60.9933 69L57.9933 69.016L58.0092 72H60.9933V69ZM60.8013 32.904V29.904H57.7853L57.8013 32.92L60.8013 32.904ZM64.0653 32.904L66.6443 34.4366L69.3377 29.904H64.0653V32.904ZM46.2093 62.952V65.952H47.9162L48.7883 64.4846L46.2093 62.952ZM36.2253 62.952L33.6753 64.5325L34.5552 65.952H36.2253V62.952ZM17.6013 32.904V29.904H12.2123L15.0513 34.4845L17.6013 32.904ZM21.6333 32.904H24.6333V29.904H21.6333V32.904ZM21.6333 69V72H24.6333V69H21.6333ZM3.99326 69V1.8H-2.00674V69H3.99326ZM0.993256 4.8H19.6173V-1.2H0.993256V4.8ZM17.0592 3.36729L43.9392 47.2393L49.0553 44.1047L22.1753 0.232702L17.0592 3.36729ZM46.4973 42.672H36.7053V48.672H46.4973V42.672ZM39.2832 47.2064L65.3952 3.33435L60.2393 0.265642L34.1273 44.1376L39.2832 47.2064ZM62.8173 4.8H81.4413V-1.2H62.8173V4.8ZM78.4413 1.80857L78.6333 69.0086L84.6332 68.9914L84.4413 1.79142L78.4413 1.80857ZM81.6333 66H60.9933V72H81.6333V66ZM63.9932 68.984L63.8012 32.888L57.8013 32.92L57.9933 69.016L63.9932 68.984ZM60.8013 35.904H64.0653V29.904H60.8013V35.904ZM61.4863 31.3714L43.6302 61.4194L48.7883 64.4846L66.6443 34.4366L61.4863 31.3714ZM46.2093 59.952H36.2253V65.952H46.2093V59.952ZM38.7752 61.3715L20.1512 31.3235L15.0513 34.4845L33.6753 64.5325L38.7752 61.3715ZM17.6013 35.904H21.6333V29.904H17.6013V35.904ZM18.6333 32.904V69H24.6333V32.904H18.6333ZM21.6333 66H0.993256V72H21.6333V66ZM94.507 69H91.507V72H94.507V69ZM94.507 1.8V-1.2H91.507V1.8H94.507ZM117.163 1.8H120.163V-1.2H117.163V1.8ZM117.163 69V72H120.163V69H117.163ZM97.507 69V1.8H91.507V69H97.507ZM94.507 4.8H117.163V-1.2H94.507V4.8ZM114.163 1.8V69H120.163V1.8H114.163ZM117.163 66H94.507V72H117.163V66ZM138.726 68.616L139.436 65.7014L138.726 68.616ZM125.766 63.624L123.021 62.4115L121.954 64.8272L124.215 66.1922L125.766 63.624ZM133.062 47.112L134.567 44.5169L131.671 42.8372L130.317 45.8995L133.062 47.112ZM143.718 51.624L142.868 54.5013L142.896 54.5095L142.924 54.5172L143.718 51.624ZM160.326 52.872L160.944 55.8076L160.999 55.7961L161.053 55.7824L160.326 52.872ZM163.11 51.624L165.103 53.8662L165.168 53.8077L165.231 53.7453L163.11 51.624ZM161.958 46.728L160.565 49.3855L161.958 46.728ZM156.582 45L155.894 47.9202L155.944 47.9318L155.993 47.9417L156.582 45ZM149.382 43.464L148.738 46.3942L148.773 46.4018L148.807 46.4085L149.382 43.464ZM141.414 41.256L140.444 44.095L140.454 44.0986L140.465 44.1021L141.414 41.256ZM134.118 37.704L132.437 40.1889L132.453 40.2001L132.47 40.2111L134.118 37.704ZM128.838 31.944L126.212 33.3951L126.22 33.41L126.228 33.4248L128.838 31.944ZM130.278 11.592L127.803 9.89629L127.796 9.90635L130.278 11.592ZM140.742 3.336L139.537 0.58839L139.53 0.591459L139.523 0.594564L140.742 3.336ZM171.558 1.704L170.92 4.63552L171.558 1.704ZM183.462 6.12L186.232 7.27039L187.253 4.81301L184.935 3.50654L183.462 6.12ZM176.646 22.536L175.304 25.2193L178.182 26.6584L179.416 23.6864L176.646 22.536ZM166.95 18.792L166.165 21.6877L166.173 21.6897L166.18 21.6917L166.95 18.792ZM152.742 18.12L151.879 15.2465L152.742 18.12ZM149.958 19.656L147.728 17.6491L147.669 17.7139L147.615 17.7819L149.958 19.656ZM151.206 24.552L149.814 27.2095L149.864 27.236L149.916 27.2606L151.206 24.552ZM156.486 26.184L155.881 29.1224L155.889 29.1241L155.897 29.1257L156.486 26.184ZM163.782 27.624L163.207 30.5685L163.22 30.571L163.782 27.624ZM171.75 29.736L170.78 32.5751L171.75 29.736ZM178.95 33.288L177.269 35.7729L177.285 35.7841L177.302 35.7951L178.95 33.288ZM184.326 39.048L181.716 40.5288L184.326 39.048ZM182.79 59.208L180.315 57.5123L180.308 57.5223L182.79 59.208ZM172.422 67.464L173.64 70.2054L173.656 70.1984L173.671 70.1912L172.422 67.464ZM155.046 67.536C149.643 67.536 144.442 66.9223 139.436 65.7014L138.015 71.5306C143.505 72.8697 149.184 73.536 155.046 73.536V67.536ZM139.436 65.7014C134.385 64.4693 130.372 62.9009 127.316 61.0558L124.215 66.1922C127.943 68.4431 132.57 70.2027 138.015 71.5306L139.436 65.7014ZM128.51 64.8365L135.806 48.3245L130.317 45.8995L123.021 62.4115L128.51 64.8365ZM131.556 49.7071C134.983 51.6943 138.758 53.2884 142.868 54.5013L144.567 48.7467C140.869 47.6556 137.54 46.2417 134.567 44.5169L131.556 49.7071ZM142.924 54.5172C147.123 55.6685 151.23 56.256 155.238 56.256V50.256C151.821 50.256 148.248 49.7555 144.511 48.7308L142.924 54.5172ZM155.238 56.256C157.491 56.256 159.428 56.1268 160.944 55.8076L159.707 49.9363C158.791 50.1292 157.336 50.256 155.238 50.256V56.256ZM161.053 55.7824C162.512 55.4177 163.993 54.8528 165.103 53.8662L161.116 49.3818C161.117 49.3816 161.023 49.4621 160.754 49.5825C160.491 49.7007 160.114 49.8325 159.598 49.9616L161.053 55.7824ZM165.231 53.7453C166.332 52.6446 166.974 51.2237 166.974 49.608H160.974C160.974 49.6115 160.973 49.6 160.978 49.5777C160.982 49.5549 160.99 49.53 161 49.5062C161.01 49.4828 161.019 49.4692 161.021 49.4664C161.023 49.4641 161.014 49.4767 160.988 49.5027L165.231 53.7453ZM166.974 49.608C166.974 46.9821 165.391 45.14 163.35 44.0705L160.565 49.3855C160.934 49.5784 161.02 49.7081 161.012 49.6964C161.006 49.6884 160.992 49.6638 160.981 49.6292C160.971 49.5957 160.974 49.5837 160.974 49.608H166.974ZM163.35 44.0705C161.659 43.1852 159.564 42.537 157.17 42.0583L155.993 47.9417C158.079 48.359 159.568 48.8628 160.565 49.3855L163.35 44.0705ZM157.269 42.0798C155.049 41.5575 152.611 41.0375 149.956 40.5195L148.807 46.4085C151.4 46.9145 153.762 47.4185 155.894 47.9202L157.269 42.0798ZM150.025 40.5338C147.509 39.9816 144.955 39.2743 142.362 38.41L140.465 44.1021C143.248 45.0297 146.006 45.7944 148.738 46.3942L150.025 40.5338ZM142.383 38.4169C139.99 37.5998 137.787 36.5254 135.765 35.1969L132.47 40.2111C134.928 41.8266 137.589 43.1202 140.444 44.095L142.383 38.4169ZM135.798 35.2192C134.019 34.0155 132.571 32.4446 131.447 30.4632L126.228 33.4248C127.792 36.1794 129.864 38.4485 132.437 40.1889L135.798 35.2192ZM131.463 30.4929C130.426 28.6157 129.822 26.1398 129.822 22.92H123.822C123.822 26.8682 124.561 30.4083 126.212 33.3951L131.463 30.4929ZM129.822 22.92C129.822 19.3518 130.798 16.1647 132.759 13.2776L127.796 9.90635C125.149 13.8032 123.822 18.1682 123.822 22.92H129.822ZM132.752 13.2877C134.748 10.3754 137.755 7.94608 141.96 6.07743L139.523 0.594564C134.512 2.82192 130.543 5.89658 127.803 9.8963L132.752 13.2877ZM141.946 6.08361C146.129 4.24996 151.481 3.264 158.118 3.264V-2.736C150.93 -2.736 144.698 -1.67396 139.537 0.58839L141.946 6.08361ZM158.118 3.264C162.448 3.264 166.715 3.72129 170.92 4.63552L172.195 -1.22753C167.568 -2.2333 162.875 -2.736 158.118 -2.736V3.264ZM170.92 4.63552C175.078 5.53929 178.758 6.9129 181.988 8.73345L184.935 3.50654C181.125 1.35909 176.869 -0.2113 172.195 -1.22753L170.92 4.63552ZM180.691 4.9696L173.875 21.3856L179.416 23.6864L186.232 7.27039L180.691 4.9696ZM177.987 19.8527C174.502 18.1103 171.079 16.7837 167.719 15.8923L166.18 21.6917C169.092 22.4643 172.133 23.6337 175.304 25.2193L177.987 19.8527ZM167.734 15.8963C164.427 15.0007 161.155 14.544 157.926 14.544V20.544C160.584 20.544 163.328 20.9193 166.165 21.6877L167.734 15.8963ZM157.926 14.544C155.616 14.544 153.559 14.7428 151.879 15.2465L153.604 20.9935C154.484 20.7292 155.883 20.544 157.926 20.544V14.544ZM151.879 15.2465C150.34 15.7085 148.822 16.4337 147.728 17.6491L152.187 21.6629C152.246 21.5983 152.584 21.2995 153.604 20.9935L151.879 15.2465ZM147.615 17.7819C146.708 18.9155 146.19 20.2712 146.19 21.768H152.19C152.19 21.7288 152.183 21.6765 152.3 21.5301L147.615 17.7819ZM146.19 21.768C146.19 24.3954 147.846 26.1789 149.814 27.2095L152.598 21.8945C152.209 21.6908 152.114 21.5556 152.123 21.5685C152.131 21.5791 152.153 21.6138 152.17 21.6677C152.188 21.7214 152.19 21.7599 152.19 21.768H146.19ZM149.916 27.2606C151.556 28.0419 153.572 28.647 155.881 29.1224L157.09 23.2456C155.047 22.825 153.543 22.3421 152.495 21.8434L149.916 27.2606ZM155.897 29.1257C158.142 29.5748 160.579 30.0557 163.207 30.5685L164.356 24.6795C161.736 24.1683 159.309 23.6892 157.074 23.2423L155.897 29.1257ZM163.22 30.571C165.768 31.0563 168.288 31.724 170.78 32.5751L172.719 26.8969C169.963 25.956 167.171 25.2157 164.343 24.677L163.22 30.571ZM170.78 32.5751C173.166 33.3898 175.325 34.458 177.269 35.7729L180.63 30.8032C178.222 29.174 175.581 27.8742 172.719 26.8969L170.78 32.5751ZM177.302 35.7951C179.138 37.0018 180.603 38.5675 181.716 40.5288L186.935 37.5672C185.36 34.7925 183.241 32.5182 180.597 30.7809L177.302 35.7951ZM181.716 40.5288C182.74 42.3319 183.342 44.7308 183.342 47.88H189.342C189.342 43.9892 188.599 40.5001 186.935 37.5672L181.716 40.5288ZM183.342 47.88C183.342 51.3562 182.349 54.5435 180.315 57.5123L185.264 60.9037C187.966 56.9605 189.342 52.5958 189.342 47.88H183.342ZM180.308 57.5223C178.377 60.3653 175.399 62.7994 171.172 64.7368L173.671 70.1912C178.66 67.9046 182.594 64.8346 185.271 60.8936L180.308 57.5223ZM171.203 64.7226C167.096 66.548 161.753 67.536 155.046 67.536V73.536C162.291 73.536 168.531 72.476 173.64 70.2054L171.203 64.7226ZM203.739 68.616L204.45 65.7014L203.739 68.616ZM190.779 63.624L188.035 62.4115L186.968 64.8272L189.229 66.1922L190.779 63.624ZM198.075 47.112L199.58 44.5169L196.684 42.8372L195.331 45.8995L198.075 47.112ZM208.731 51.624L207.882 54.5013L207.91 54.5095L207.938 54.5172L208.731 51.624ZM225.339 52.872L225.957 55.8076L226.012 55.7961L226.067 55.7824L225.339 52.872ZM228.123 51.624L230.116 53.8662L230.182 53.8077L230.245 53.7453L228.123 51.624ZM226.971 46.728L225.579 49.3855L226.971 46.728ZM221.595 45L220.908 47.9202L220.957 47.9318L221.007 47.9417L221.595 45ZM214.395 43.464L213.752 46.3942L213.786 46.4018L213.821 46.4085L214.395 43.464ZM206.427 41.256L205.458 44.095L205.468 44.0986L205.479 44.1021L206.427 41.256ZM199.131 37.704L197.45 40.1889L197.467 40.2001L197.484 40.2111L199.131 37.704ZM193.851 31.944L191.226 33.3951L191.234 33.41L191.242 33.4248L193.851 31.944ZM195.291 11.592L192.816 9.89629L192.81 9.90635L195.291 11.592ZM205.755 3.336L204.551 0.58839L204.544 0.591459L204.537 0.594564L205.755 3.336ZM236.571 1.704L235.934 4.63552L236.571 1.704ZM248.475 6.12L251.246 7.27039L252.266 4.81301L249.948 3.50654L248.475 6.12ZM241.659 22.536L240.318 25.2193L243.196 26.6584L244.43 23.6864L241.659 22.536ZM231.963 18.792L231.179 21.6877L231.186 21.6897L231.194 21.6917L231.963 18.792ZM217.755 18.12L216.893 15.2465L217.755 18.12ZM214.971 19.656L212.741 17.6491L212.683 17.7139L212.629 17.7819L214.971 19.656ZM216.219 24.552L214.827 27.2095L214.878 27.236L214.929 27.2606L216.219 24.552ZM221.499 26.184L220.894 29.1224L220.903 29.1241L220.911 29.1257L221.499 26.184ZM228.795 27.624L228.221 30.5685L228.234 30.571L228.795 27.624ZM236.763 29.736L235.794 32.5751L236.763 29.736ZM243.963 33.288L242.282 35.7729L242.299 35.7841L242.316 35.7951L243.963 33.288ZM249.339 39.048L246.73 40.5288L249.339 39.048ZM247.803 59.208L245.328 57.5123L245.322 57.5223L247.803 59.208ZM237.435 67.464L238.654 70.2054L238.669 70.1984L238.685 70.1912L237.435 67.464ZM220.059 67.536C214.657 67.536 209.456 66.9223 204.45 65.7014L203.028 71.5306C208.519 72.8697 214.198 73.536 220.059 73.536V67.536ZM204.45 65.7014C199.398 64.4693 195.386 62.9009 192.33 61.0558L189.229 66.1922C192.957 68.4431 197.584 70.2027 203.028 71.5306L204.45 65.7014ZM193.523 64.8365L200.819 48.3245L195.331 45.8995L188.035 62.4115L193.523 64.8365ZM196.57 49.7071C199.996 51.6943 203.772 53.2884 207.882 54.5013L209.58 48.7467C205.883 47.6556 202.554 46.2417 199.58 44.5169L196.57 49.7071ZM207.938 54.5172C212.137 55.6685 216.244 56.256 220.251 56.256V50.256C216.835 50.256 213.262 49.7555 209.525 48.7308L207.938 54.5172ZM220.251 56.256C222.505 56.256 224.441 56.1268 225.957 55.8076L224.721 49.9363C223.805 50.1292 222.349 50.256 220.251 50.256V56.256ZM226.067 55.7824C227.526 55.4177 229.006 54.8528 230.116 53.8662L226.13 49.3818C226.13 49.3816 226.037 49.4621 225.768 49.5825C225.504 49.7007 225.128 49.8325 224.612 49.9616L226.067 55.7824ZM230.245 53.7453C231.345 52.6446 231.987 51.2237 231.987 49.608H225.987C225.987 49.6115 225.987 49.6 225.992 49.5777C225.996 49.5549 226.004 49.53 226.014 49.5062C226.024 49.4828 226.033 49.4692 226.035 49.4664C226.036 49.4641 226.028 49.4767 226.002 49.5027L230.245 53.7453ZM231.987 49.608C231.987 46.9821 230.405 45.14 228.363 44.0705L225.579 49.3855C225.947 49.5784 226.034 49.7081 226.026 49.6964C226.02 49.6884 226.005 49.6638 225.995 49.6292C225.984 49.5957 225.987 49.5837 225.987 49.608H231.987ZM228.363 44.0705C226.673 43.1852 224.577 42.537 222.184 42.0583L221.007 47.9417C223.093 48.359 224.581 48.8628 225.579 49.3855L228.363 44.0705ZM222.282 42.0798C220.063 41.5575 217.624 41.0375 214.97 40.5195L213.821 46.4085C216.414 46.9145 218.776 47.4185 220.908 47.9202L222.282 42.0798ZM215.038 40.5338C212.523 39.9816 209.969 39.2743 207.376 38.41L205.479 44.1021C208.261 45.0297 211.019 45.7944 213.752 46.3942L215.038 40.5338ZM207.397 38.4169C205.004 37.5998 202.8 36.5254 200.779 35.1969L197.484 40.2111C199.942 41.8266 202.603 43.1202 205.458 44.095L207.397 38.4169ZM200.812 35.2192C199.033 34.0155 197.585 32.4446 196.46 30.4632L191.242 33.4248C192.806 36.1794 194.878 38.4485 197.45 40.1889L200.812 35.2192ZM196.477 30.4929C195.44 28.6157 194.835 26.1398 194.835 22.92H188.835C188.835 26.8682 189.575 30.4083 191.226 33.3951L196.477 30.4929ZM194.835 22.92C194.835 19.3518 195.812 16.1647 197.773 13.2776L192.81 9.90635C190.163 13.8032 188.835 18.1682 188.835 22.92H194.835ZM197.766 13.2877C199.762 10.3754 202.769 7.94608 206.974 6.07743L204.537 0.594564C199.525 2.82192 195.557 5.89658 192.816 9.8963L197.766 13.2877ZM206.96 6.08361C211.143 4.24996 216.495 3.264 223.131 3.264V-2.736C215.943 -2.736 209.712 -1.67396 204.551 0.58839L206.96 6.08361ZM223.131 3.264C227.462 3.264 231.728 3.72129 235.934 4.63552L237.209 -1.22753C232.582 -2.2333 227.888 -2.736 223.131 -2.736V3.264ZM235.934 4.63552C240.091 5.53929 243.772 6.9129 247.002 8.73345L249.948 3.50654C246.138 1.35909 241.883 -0.2113 237.209 -1.22753L235.934 4.63552ZM245.705 4.9696L238.889 21.3856L244.43 23.6864L251.246 7.27039L245.705 4.9696ZM243.001 19.8527C239.516 18.1103 236.093 16.7837 232.733 15.8923L231.194 21.6917C234.106 22.4643 237.146 23.6337 240.318 25.2193L243.001 19.8527ZM232.747 15.8963C229.44 15.0007 226.169 14.544 222.939 14.544V20.544C225.598 20.544 228.342 20.9193 231.179 21.6877L232.747 15.8963ZM222.939 14.544C220.63 14.544 218.572 14.7428 216.893 15.2465L218.617 20.9935C219.498 20.7292 220.897 20.544 222.939 20.544V14.544ZM216.893 15.2465C215.353 15.7085 213.835 16.4337 212.741 17.6491L217.201 21.6629C217.259 21.5983 217.597 21.2995 218.617 20.9935L216.893 15.2465ZM212.629 17.7819C211.722 18.9155 211.203 20.2712 211.203 21.768H217.203C217.203 21.7288 217.197 21.6765 217.314 21.5301L212.629 17.7819ZM211.203 21.768C211.203 24.3954 212.86 26.1789 214.827 27.2095L217.611 21.8945C217.222 21.6908 217.128 21.5556 217.137 21.5685C217.145 21.5791 217.167 21.6138 217.184 21.6677C217.201 21.7214 217.203 21.7599 217.203 21.768H211.203ZM214.929 27.2606C216.57 28.0419 218.585 28.647 220.894 29.1224L222.104 23.2456C220.061 22.825 218.556 22.3421 217.509 21.8434L214.929 27.2606ZM220.911 29.1257C223.156 29.5748 225.593 30.0557 228.221 30.5685L229.37 24.6795C226.75 24.1683 224.322 23.6892 222.088 23.2423L220.911 29.1257ZM228.234 30.571C230.782 31.0563 233.301 31.724 235.794 32.5751L237.733 26.8969C234.977 25.956 232.185 25.2157 229.357 24.677L228.234 30.571ZM235.794 32.5751C238.18 33.3898 240.339 34.458 242.282 35.7729L245.644 30.8032C243.236 29.174 240.595 27.8742 237.733 26.8969L235.794 32.5751ZM242.316 35.7951C244.152 37.0018 245.617 38.5675 246.73 40.5288L251.948 37.5672C250.374 34.7925 248.255 32.5182 245.611 30.7809L242.316 35.7951ZM246.73 40.5288C247.754 42.3319 248.355 44.7308 248.355 47.88H254.355C254.355 43.9892 253.613 40.5001 251.948 37.5672L246.73 40.5288ZM248.355 47.88C248.355 51.3562 247.363 54.5435 245.328 57.5123L250.278 60.9037C252.98 56.9605 254.355 52.5958 254.355 47.88H248.355ZM245.322 57.5223C243.391 60.3653 240.412 62.7994 236.185 64.7368L238.685 70.1912C243.674 67.9046 247.608 64.8346 250.285 60.8936L245.322 57.5223ZM236.217 64.7226C232.11 66.548 226.766 67.536 220.059 67.536V73.536C227.304 73.536 233.545 72.476 238.654 70.2054L236.217 64.7226ZM260.017 69H257.017V72H260.017V69ZM260.017 1.8V-1.2H257.017V1.8H260.017ZM282.673 1.8H285.673V-1.2H282.673V1.8ZM282.673 69V72H285.673V69H282.673ZM263.017 69V1.8H257.017V69H263.017ZM260.017 4.8H282.673V-1.2H260.017V4.8ZM279.673 1.8V69H285.673V1.8H279.673ZM282.673 66H260.017V72H282.673V66ZM315.564 67.944L314.51 70.753L314.523 70.7577L315.564 67.944ZM303.564 60.648L301.505 62.8302L301.516 62.8406L301.527 62.8508L303.564 60.648ZM295.596 49.416L292.842 50.6077L292.85 50.6249L292.857 50.642L295.596 49.416ZM295.596 21.384L292.857 20.158L292.853 20.1676L292.849 20.1772L295.596 21.384ZM303.564 10.248L305.6 12.4508L305.611 12.4405L305.622 12.4302L303.564 10.248ZM315.564 2.856L314.523 0.0422592L314.51 0.0470104L315.564 2.856ZM345.9 2.856L344.846 5.66499L345.9 2.856ZM357.9 10.248L355.841 12.4302L355.852 12.4405L355.863 12.4508L357.9 10.248ZM365.772 21.384L363.018 22.5757L363.029 22.6006L363.04 22.6254L365.772 21.384ZM365.772 49.416L363.033 48.19L363.026 48.2071L363.018 48.2243L365.772 49.416ZM357.9 60.648L359.936 62.8508L359.947 62.8406L359.958 62.8302L357.9 60.648ZM345.9 67.944L344.846 65.135L345.9 67.944ZM336.588 51.048L335.44 48.2759L335.423 48.2831L335.406 48.2906L336.588 51.048ZM341.388 47.784L339.22 45.7103L339.217 45.7126L341.388 47.784ZM344.652 42.504L347.461 43.5574L347.466 43.5433L347.471 43.5292L344.652 42.504ZM344.652 28.392L341.832 29.4172L341.837 29.4313L341.843 29.4454L344.652 28.392ZM341.388 23.112L339.172 25.1348L339.218 25.1851L339.266 25.2333L341.388 23.112ZM336.588 19.752L335.406 22.5094L335.423 22.5168L335.44 22.5241L336.588 19.752ZM324.78 19.752L323.632 16.9799L323.615 16.9871L323.598 16.9946L324.78 19.752ZM319.98 23.112L317.812 21.0383L317.809 21.0406L319.98 23.112ZM316.812 28.392L319.621 29.4454L319.626 29.4313L319.631 29.4172L316.812 28.392ZM316.812 42.504L313.992 43.5292L313.997 43.5433L314.003 43.5574L316.812 42.504ZM319.98 47.784L317.764 49.8068L317.81 49.8571L317.858 49.9053L319.98 47.784ZM324.78 51.048L323.598 53.8054L323.615 53.8129L323.632 53.8201L324.78 51.048ZM330.828 67.536C325.642 67.536 320.91 66.7228 316.604 65.1303L314.523 70.7577C319.561 72.6212 325.005 73.536 330.828 73.536V67.536ZM316.617 65.135C312.349 63.5345 308.688 61.3004 305.6 58.4452L301.527 62.8508C305.223 66.2676 309.562 68.8975 314.51 70.753L316.617 65.135ZM305.622 58.4658C302.52 55.5388 300.093 52.1205 298.334 48.19L292.857 50.642C294.938 55.2875 297.823 59.3572 301.505 62.8302L305.622 58.4658ZM298.349 48.2243C296.669 44.3425 295.812 40.0801 295.812 35.4H289.812C289.812 40.8319 290.811 45.9135 292.842 50.6077L298.349 48.2243ZM295.812 35.4C295.812 30.6497 296.671 26.3946 298.342 22.5908L292.849 20.1772C290.808 24.8214 289.812 29.9103 289.812 35.4H295.812ZM298.334 22.61C300.091 18.6851 302.511 15.3071 305.6 12.4508L301.527 8.04518C297.832 11.4609 294.94 15.5069 292.857 20.158L298.334 22.61ZM305.622 12.4302C308.708 9.51884 312.361 7.26082 316.617 5.66499L314.51 0.0470104C309.55 1.90717 305.203 4.57715 301.505 8.06581L305.622 12.4302ZM316.604 5.66971C320.914 4.07578 325.614 3.264 330.732 3.264V-2.736C324.969 -2.736 319.557 -1.81979 314.523 0.0422878L316.604 5.66971ZM330.732 3.264C335.918 3.264 340.612 4.07736 344.846 5.66499L346.953 0.0470123C341.971 -1.82136 336.553 -2.736 330.732 -2.736V3.264ZM344.846 5.66499C349.102 7.26082 352.755 9.51884 355.841 12.4302L359.958 8.06581C356.26 4.57715 351.913 1.90717 346.953 0.0470104L344.846 5.66499ZM355.863 12.4508C358.945 15.3 361.326 18.6664 363.018 22.5757L368.525 20.1923C366.505 15.5256 363.638 11.468 359.936 8.04518L355.863 12.4508ZM363.04 22.6254C364.766 26.4208 365.652 30.6636 365.652 35.4H371.652C371.652 29.8964 370.617 24.7952 368.503 20.1426L363.04 22.6254ZM365.652 35.4C365.652 40.0661 364.768 44.3164 363.033 48.19L368.51 50.642C370.615 45.9396 371.652 40.8459 371.652 35.4H365.652ZM363.018 48.2243C361.324 52.1392 358.936 55.546 355.841 58.4658L359.958 62.8302C363.647 59.35 366.507 55.2688 368.525 50.6077L363.018 48.2243ZM355.863 58.4452C352.775 61.3004 349.114 63.5345 344.846 65.135L346.953 70.753C351.901 68.8975 356.24 66.2676 359.936 62.8508L355.863 58.4452ZM344.846 65.135C340.609 66.7241 335.946 67.536 330.828 67.536V73.536C336.589 73.536 341.974 72.6199 346.953 70.753L344.846 65.135ZM330.732 55.2C333.216 55.2 335.574 54.7464 337.769 53.8054L335.406 48.2906C334.017 48.8856 332.471 49.2 330.732 49.2V55.2ZM337.735 53.8201C339.964 52.8975 341.916 51.5754 343.558 49.8554L339.217 45.7126C338.171 46.8086 336.923 47.6625 335.44 48.2759L337.735 53.8201ZM343.555 49.8577C345.264 48.0713 346.561 45.9569 347.461 43.5574L341.843 41.4506C341.206 43.1471 340.327 44.5527 339.22 45.7103L343.555 49.8577ZM347.471 43.5292C348.377 41.0386 348.804 38.3162 348.804 35.4H342.804C342.804 37.7318 342.462 39.7454 341.832 41.4788L347.471 43.5292ZM348.804 35.4C348.804 32.4862 348.377 29.7833 347.461 27.3386L341.843 29.4454C342.462 31.0967 342.804 33.0658 342.804 35.4H348.804ZM347.471 27.3668C346.572 24.896 345.264 22.7463 343.509 20.9907L339.266 25.2333C340.327 26.2937 341.195 27.664 341.832 29.4172L347.471 27.3668ZM343.603 21.0892C341.96 19.2895 339.994 17.9149 337.735 16.9799L335.44 22.5241C336.893 23.1251 338.127 23.9905 339.172 25.1348L343.603 21.0892ZM337.769 16.9946C335.574 16.0536 333.216 15.6 330.732 15.6V21.6C332.471 21.6 334.017 21.9144 335.406 22.5094L337.769 16.9946ZM330.732 15.6C328.247 15.6 325.871 16.0538 323.632 16.9799L325.927 22.524C327.4 21.9142 328.993 21.6 330.732 21.6V15.6ZM323.598 16.9946C321.418 17.9289 319.486 19.2877 317.812 21.0383L322.147 25.1857C323.289 23.9923 324.557 23.1111 325.961 22.5094L323.598 16.9946ZM317.809 21.0406C316.138 22.7915 314.88 24.9247 313.992 27.3668L319.631 29.4172C320.279 27.6353 321.133 26.2485 322.15 25.1834L317.809 21.0406ZM314.003 27.3386C313.086 29.7833 312.66 32.4862 312.66 35.4H318.66C318.66 33.0658 319.001 31.0967 319.621 29.4454L314.003 27.3386ZM312.66 35.4C312.66 38.3162 313.086 41.0386 313.992 43.5292L319.631 41.4788C319.001 39.7454 318.66 37.7318 318.66 35.4H312.66ZM314.003 43.5574C314.892 45.9284 316.138 48.0261 317.764 49.8068L322.195 45.7612C321.133 44.5979 320.267 43.1756 319.621 41.4506L314.003 43.5574ZM317.858 49.9053C319.53 51.5773 321.447 52.8839 323.598 53.8054L325.961 48.2906C324.528 47.6761 323.245 46.8067 322.101 45.6627L317.858 49.9053ZM323.632 53.8201C325.871 54.7462 328.247 55.2 330.732 55.2V49.2C328.993 49.2 327.4 48.8858 325.927 48.2759L323.632 53.8201ZM378.794 69H375.794V72H378.794V69ZM378.794 1.8V-1.2H375.794V1.8H378.794ZM397.419 1.8L399.721 -0.123745L398.821 -1.2H397.419V1.8ZM431.595 42.696V45.696H438.011L433.897 40.7723L431.595 42.696ZM422.955 42.696H419.955V45.696H422.955V42.696ZM422.955 1.8V-1.2H419.955V1.8H422.955ZM445.034 1.8H448.034V-1.2H445.034V1.8ZM445.034 69V72H448.034V69H445.034ZM426.411 69L424.109 70.9237L425.008 72H426.411V69ZM392.234 28.104V25.104H385.818L389.932 30.0277L392.234 28.104ZM400.875 28.104H403.875V25.104H400.875V28.104ZM400.875 69V72H403.875V69H400.875ZM381.794 69V1.8H375.794V69H381.794ZM378.794 4.8H397.419V-1.2H378.794V4.8ZM395.117 3.72374L429.292 44.6197L433.897 40.7723L399.721 -0.123745L395.117 3.72374ZM431.595 39.696H422.955V45.696H431.595V39.696ZM425.955 42.696V1.8H419.955V42.696H425.955ZM422.955 4.8H445.034V-1.2H422.955V4.8ZM442.034 1.8V69H448.034V1.8H442.034ZM445.034 66H426.411V72H445.034V66ZM428.713 67.0763L394.536 26.1803L389.932 30.0277L424.109 70.9237L428.713 67.0763ZM392.234 31.104H400.875V25.104H392.234V31.104ZM397.875 28.104V69H403.875V28.104H397.875ZM400.875 66H378.794V72H400.875V66Z" fill="#EE2346"/>
</svg>
