<svg width="671" height="229" viewBox="0 0 671 229" fill="none" xmlns="http://www.w3.org/2000/svg">
<ellipse cx="117.17" cy="104.344" rx="72.3891" ry="70.108" fill="#EE2346"/>
<path d="M508.125 229H0.543457L21.5331 196.636L173.528 87.8758L219.97 13.0854L237.937 0.185547L238.11 0.328878L238.052 0.185547L317.087 72.6826L318.181 73.686L337.53 59.8115L487.135 197.037L508.125 229Z" fill="#293896"/>
<path d="M155.175 186.231L173.848 156.17L100.838 208.456L155.175 186.231Z" fill="white"/>
<path d="M306.798 100.553L267.716 84.7752L163.435 202.662L255.801 53.7441L306.798 100.553Z" fill="white"/>
<path d="M345.773 114.594L286.203 210.596L298.301 165.57L243.096 188.135L345.773 114.594Z" fill="white"/>
<path d="M671 229H163.419L184.409 196.636L336.404 87.8758L382.846 13.0854L400.812 0.185547L400.985 0.328878L400.927 0.185547L479.963 72.6826L481.057 73.686L500.405 59.8115L629.11 188.225L671 229Z" fill="#293896"/>
<path d="M316.743 94.979L336.395 88.7969L275.887 165.043L316.743 94.979Z" fill="white"/>
<path d="M469.673 100.555L430.591 84.7771L326.31 202.664L418.676 53.7461L469.673 100.555Z" fill="white"/>
<path d="M508.647 114.594L449.077 210.596L461.175 165.57L405.97 188.135L508.647 114.594Z" fill="white"/>
</svg>
