<svg width="58" height="58" viewBox="0 0 58 58" fill="none" xmlns="http://www.w3.org/2000/svg">
<circle cx="29" cy="29" r="27" fill="#F0F0F0" stroke="white" stroke-width="4"/>
<path d="M42.75 37.75C42.75 38.413 42.4866 39.0489 42.0178 39.5178C41.5489 39.9866 40.913 40.25 40.25 40.25H17.75C17.087 40.25 16.4511 39.9866 15.9822 39.5178C15.5134 39.0489 15.25 38.413 15.25 37.75V24C15.25 23.337 15.5134 22.7011 15.9822 22.2322C16.4511 21.7634 17.087 21.5 17.75 21.5H22.75L25.25 17.75H32.75L35.25 21.5H40.25C40.913 21.5 41.5489 21.7634 42.0178 22.2322C42.4866 22.7011 42.75 23.337 42.75 24V37.75Z" stroke="#293896" stroke-width="2.5" stroke-linecap="round" stroke-linejoin="round"/>
<path d="M29 35.25C31.7614 35.25 34 33.0114 34 30.25C34 27.4886 31.7614 25.25 29 25.25C26.2386 25.25 24 27.4886 24 30.25C24 33.0114 26.2386 35.25 29 35.25Z" stroke="#293896" stroke-width="2.5" stroke-linecap="round" stroke-linejoin="round"/>
</svg>
