<svg width="69" height="69" viewBox="0 0 69 69" fill="none" xmlns="http://www.w3.org/2000/svg">
<g filter="url(#filter0_d_133_3273)">
<ellipse cx="34.3661" cy="30.5" rx="30.3663" ry="30.5" transform="rotate(180 34.3661 30.5)" fill="white"/>
</g>
<path fill-rule="evenodd" clip-rule="evenodd" d="M37.714 17.5171L48.3147 28.7517C48.9652 29.4411 48.9652 30.5589 48.3147 31.2483L37.714 42.4829C37.0635 43.1724 36.0088 43.1724 35.3582 42.4829C34.7077 41.7935 34.7077 40.6758 35.3582 39.9864L43.1154 31.7654L21.5954 31.7654C20.6755 31.7654 19.9297 30.975 19.9297 30C19.9297 29.025 20.6755 28.2346 21.5954 28.2346L43.1154 28.2346L35.3582 20.0136C34.7077 19.3242 34.7077 18.2065 35.3582 17.5171C36.0088 16.8276 37.0634 16.8276 37.714 17.5171Z" fill="#293896"/>
<defs>
<filter id="filter0_d_133_3273" x="0" y="0" width="68.7324" height="69" filterUnits="userSpaceOnUse" color-interpolation-filters="sRGB">
<feFlood flood-opacity="0" result="BackgroundImageFix"/>
<feColorMatrix in="SourceAlpha" type="matrix" values="0 0 0 0 0 0 0 0 0 0 0 0 0 0 0 0 0 0 127 0" result="hardAlpha"/>
<feOffset dy="4"/>
<feGaussianBlur stdDeviation="2"/>
<feComposite in2="hardAlpha" operator="out"/>
<feColorMatrix type="matrix" values="0 0 0 0 0.160784 0 0 0 0 0.219608 0 0 0 0 0.588235 0 0 0 0.3 0"/>
<feBlend mode="normal" in2="BackgroundImageFix" result="effect1_dropShadow_133_3273"/>
<feBlend mode="normal" in="SourceGraphic" in2="effect1_dropShadow_133_3273" result="shape"/>
</filter>
</defs>
</svg>
