<svg width="23" height="23" viewBox="0 0 23 23" fill="none" xmlns="http://www.w3.org/2000/svg">
<path d="M7.25837 2.71373H7.03516C7.15793 2.71373 7.25837 2.6173 7.25837 2.49944V2.71373H15.7405V2.49944C15.7405 2.6173 15.841 2.71373 15.9637 2.71373H15.7405V4.6423H17.7494V2.49944C17.7494 1.55391 16.9487 0.785156 15.9637 0.785156H7.03516C6.05022 0.785156 5.24944 1.55391 5.24944 2.49944V4.6423H7.25837V2.71373ZM21.3209 4.6423H1.67801C1.18415 4.6423 0.785156 5.02534 0.785156 5.49944V6.35659C0.785156 6.47444 0.885603 6.57087 1.00837 6.57087H2.69364L3.38281 20.5798C3.42746 21.4932 4.21429 22.2137 5.16574 22.2137H17.8332C18.7874 22.2137 19.5714 21.4959 19.6161 20.5798L20.3052 6.57087H21.9905C22.1133 6.57087 22.2137 6.47444 22.2137 6.35659V5.49944C22.2137 5.02534 21.8147 4.6423 21.3209 4.6423ZM17.6183 20.2852H5.38058L4.70536 6.57087H18.2935L17.6183 20.2852Z" fill="#293896"/>
</svg>
