<svg width="25" height="25" viewBox="0 0 25 25" fill="none" xmlns="http://www.w3.org/2000/svg">
<path d="M21.7013 10.3524C21.4135 10.3524 21.1375 10.4668 20.934 10.6702C20.7305 10.8737 20.6162 11.1497 20.6162 11.4375V19.033C20.6162 19.3208 20.5019 19.5968 20.2984 19.8002C20.0949 20.0037 19.8189 20.1181 19.5311 20.1181H4.34017C4.05239 20.1181 3.7764 20.0037 3.57291 19.8002C3.36942 19.5968 3.2551 19.3208 3.2551 19.033V10.3524C3.2551 10.0647 3.36942 9.78866 3.57291 9.58517C3.7764 9.38168 4.05239 9.26736 4.34017 9.26736H6.51031C6.74692 9.27971 6.98108 9.21427 7.17701 9.08104C7.37294 8.94781 7.51988 8.7541 7.59538 8.52951L8.18131 6.75C8.25411 6.53448 8.39279 6.34729 8.57777 6.21489C8.76274 6.08249 8.98465 6.01157 9.21213 6.01215H15.1909C15.4786 6.01215 15.7546 5.89783 15.9581 5.69434C16.1616 5.49085 16.2759 5.21486 16.2759 4.92708C16.2759 4.6393 16.1616 4.36331 15.9581 4.15982C15.7546 3.95633 15.4786 3.84201 15.1909 3.84201H9.15788C8.47596 3.84329 7.81167 4.05868 7.25875 4.4578C6.70583 4.85691 6.29222 5.41958 6.07628 6.06641L5.72906 7.15148H4.34017C3.47683 7.15148 2.64886 7.49443 2.03839 8.1049C1.42792 8.71537 1.08496 9.54335 1.08496 10.4067V19.0872C1.08496 19.9506 1.42792 20.7785 2.03839 21.389C2.64886 21.9995 3.47683 22.3424 4.34017 22.3424H19.5311C20.3945 22.3424 21.2224 21.9995 21.8329 21.389C22.4434 20.7785 22.7863 19.9506 22.7863 19.0872V11.4918C22.7937 11.3448 22.7711 11.1978 22.7199 11.0598C22.6686 10.9219 22.5899 10.7958 22.4884 10.6892C22.3869 10.5826 22.2648 10.4978 22.1294 10.4399C21.9941 10.382 21.8485 10.3522 21.7013 10.3524ZM11.9357 9.26736C11.0772 9.26736 10.2381 9.52191 9.52433 9.99883C8.81057 10.4757 8.25427 11.1536 7.92576 11.9467C7.59726 12.7398 7.5113 13.6125 7.67877 14.4544C7.84624 15.2963 8.25962 16.0697 8.86661 16.6767C9.47361 17.2837 10.247 17.697 11.0889 17.8645C11.9308 18.032 12.8035 17.946 13.5966 17.6175C14.3897 17.289 15.0675 16.7327 15.5445 16.019C16.0214 15.3052 16.2759 14.4661 16.2759 13.6076C16.2759 12.4565 15.8187 11.3526 15.0047 10.5386C14.1907 9.72464 13.0868 9.26736 11.9357 9.26736ZM11.9357 15.7778C11.5064 15.7778 11.0869 15.6505 10.73 15.412C10.3731 15.1736 10.095 14.8347 9.93071 14.4381C9.76645 14.0416 9.72348 13.6052 9.80721 13.1843C9.89095 12.7633 10.0976 12.3766 10.4011 12.0731C10.7046 11.7696 11.0913 11.5629 11.5123 11.4792C11.9332 11.3955 12.3696 11.4384 12.7661 11.6027C13.1627 11.7669 13.5016 12.0451 13.7401 12.402C13.9785 12.7589 14.1058 13.1784 14.1058 13.6076C14.1058 14.1832 13.8772 14.7352 13.4702 15.1422C13.0632 15.5491 12.5112 15.7778 11.9357 15.7778ZM23.8714 3.84201H22.7863V2.75694C22.7863 2.46917 22.672 2.19317 22.4685 1.98968C22.265 1.78619 21.9891 1.67188 21.7013 1.67188C21.4135 1.67188 21.1375 1.78619 20.934 1.98968C20.7305 2.19317 20.6162 2.46917 20.6162 2.75694V3.84201H19.5311C19.2434 3.84201 18.9674 3.95633 18.7639 4.15982C18.5604 4.36331 18.4461 4.6393 18.4461 4.92708C18.4461 5.21486 18.5604 5.49085 18.7639 5.69434C18.9674 5.89783 19.2434 6.01215 19.5311 6.01215H20.6162V7.09722C20.6162 7.385 20.7305 7.66099 20.934 7.86448C21.1375 8.06797 21.4135 8.18229 21.7013 8.18229C21.9891 8.18229 22.265 8.06797 22.4685 7.86448C22.672 7.66099 22.7863 7.385 22.7863 7.09722V6.01215H23.8714C24.1592 6.01215 24.4352 5.89783 24.6387 5.69434C24.8422 5.49085 24.9565 5.21486 24.9565 4.92708C24.9565 4.6393 24.8422 4.36331 24.6387 4.15982C24.4352 3.95633 24.1592 3.84201 23.8714 3.84201Z" fill="#293896"/>
</svg>
