<svg width="22" height="23" viewBox="0 0 22 23" fill="none" xmlns="http://www.w3.org/2000/svg">
<path d="M20.4403 11.0509L11.2503 20.2409C10.1244 21.3667 8.59747 21.9992 7.00529 21.9992C5.41311 21.9992 3.88613 21.3667 2.76029 20.2409C1.63445 19.1151 1.00195 17.5881 1.00195 15.9959C1.00195 14.4037 1.63445 12.8767 2.76029 11.7509L11.9503 2.5609C12.7009 1.81033 13.7188 1.38867 14.7803 1.38867C15.8417 1.38867 16.8597 1.81033 17.6103 2.5609C18.3609 3.31146 18.7825 4.32944 18.7825 5.3909C18.7825 6.45235 18.3609 7.47033 17.6103 8.2209L8.41029 17.4109C8.03501 17.7862 7.52602 17.997 6.99529 17.997C6.46456 17.997 5.95557 17.7862 5.58029 17.4109C5.20501 17.0356 4.99418 16.5266 4.99418 15.9959C4.99418 15.4652 5.20501 14.9562 5.58029 14.5809L14.0703 6.1009" stroke="#293896" stroke-width="2" stroke-linecap="round" stroke-linejoin="round"/>
</svg>
