<svg width="521" height="246" viewBox="0 0 521 246" fill="none" xmlns="http://www.w3.org/2000/svg">
<ellipse cx="126.12" cy="121.5" rx="105.101" ry="101.5" fill="#EE2346"/>
<path fill-rule="evenodd" clip-rule="evenodd" d="M119.849 101.352C118.511 102.323 116.614 102.063 115.608 100.773L115.599 100.763C115.589 100.75 115.57 100.726 115.543 100.693C115.487 100.625 115.397 100.517 115.273 100.374C115.025 100.089 114.642 99.6654 114.131 99.1502C113.107 98.1172 111.581 96.7294 109.606 95.3417C105.644 92.5583 100.008 89.8642 93.0302 89.8642C86.053 89.8642 80.4162 92.5583 76.4546 95.3417C74.4796 96.7294 72.9539 98.1172 71.9292 99.1502C71.4181 99.6654 71.0353 100.089 70.7872 100.374C70.6632 100.517 70.5731 100.625 70.5178 100.693C70.4901 100.726 70.4711 100.75 70.461 100.763L70.4547 100.771L70.4558 100.769C70.4547 100.771 70.4536 100.772 70.4525 100.773C69.446 102.063 67.549 102.323 66.2118 101.352C64.8726 100.38 64.602 98.5419 65.6074 97.2469L68.0322 99.0072C65.6074 97.2469 65.6081 97.2459 65.6089 97.2449L65.6107 97.2426L65.6148 97.2373L65.6258 97.2233L65.6582 97.1824C65.6845 97.1494 65.7201 97.1052 65.7649 97.0506C65.8545 96.9412 65.9811 96.7898 66.1439 96.6023C66.4695 96.2276 66.9411 95.7075 67.5529 95.0907C68.7742 93.8596 70.5685 92.2287 72.89 90.5976C77.5215 87.3435 84.3837 84.0001 93.0302 84.0001C101.677 84.0001 108.539 87.3435 113.17 90.5976C115.492 92.2287 117.286 93.8596 118.508 95.0907C119.119 95.7075 119.591 96.2276 119.917 96.6023C120.079 96.7898 120.206 96.9412 120.296 97.0506C120.34 97.1052 120.376 97.1494 120.402 97.1824L120.435 97.2233L120.446 97.2373L120.45 97.2426L120.452 97.2449C120.452 97.2459 120.453 97.2469 118.028 99.0072L120.453 97.2469C121.458 98.5419 121.188 100.38 119.849 101.352ZM70.4558 100.769C70.4562 100.769 70.4567 100.768 70.4571 100.768L68.1888 99.1209C70.4571 100.768 70.4564 100.768 70.4558 100.769Z" fill="#293896"/>
<path fill-rule="evenodd" clip-rule="evenodd" d="M69.4844 76.4848C69.4844 74.0079 71.4787 72 73.9388 72H73.9997C76.4598 72 78.4541 74.0079 78.4541 76.4848C78.4541 78.9618 76.4598 80.9697 73.9997 80.9697H73.9388C71.4787 80.9697 69.4844 78.9618 69.4844 76.4848Z" fill="#293896"/>
<path fill-rule="evenodd" clip-rule="evenodd" d="M107.605 76.4848C107.605 74.0079 109.6 72 112.06 72H112.121C114.581 72 116.575 74.0079 116.575 76.4848C116.575 78.9618 114.581 80.9697 112.121 80.9697H112.06C109.6 80.9697 107.605 78.9618 107.605 76.4848Z" fill="#293896"/>
<path d="M521 246H0L22.807 211.205L187.962 94.2764L238.426 13.8687L257.948 0L258.135 0.154097L258.073 0L343.951 77.9421L345.14 79.0208L366.164 64.1042L521 246Z" fill="#293896"/>
<path d="M135.879 178.646L158.152 143L71.0684 205L135.879 178.646Z" fill="white"/>
<path d="M316.303 78.007L269.642 59.466L145.139 198L255.417 23L316.303 78.007Z" fill="white"/>
<path d="M362.348 94L291.498 207L305.887 154.001L240.23 180.562L362.348 94Z" fill="white"/>
</svg>
