<svg width="46" height="46" viewBox="0 0 46 46" fill="none" xmlns="http://www.w3.org/2000/svg">
<path fill-rule="evenodd" clip-rule="evenodd" d="M1.75736 7.75736C2.88258 6.63214 4.4087 6 6 6H20C21.1046 6 22 6.89543 22 8C22 9.10457 21.1046 10 20 10H6C5.46957 10 4.96086 10.2107 4.58579 10.5858C4.21071 10.9609 4 11.4696 4 12V40C4 40.5304 4.21071 41.0391 4.58579 41.4142C4.96086 41.7893 5.46957 42 6 42H34C34.5304 42 35.0391 41.7893 35.4142 41.4142C35.7893 41.0391 36 40.5304 36 40V26C36 24.8954 36.8954 24 38 24C39.1046 24 40 24.8954 40 26V40C40 41.5913 39.3679 43.1174 38.2426 44.2426C37.1174 45.3679 35.5913 46 34 46H6C4.4087 46 2.88258 45.3679 1.75736 44.2426C0.632141 43.1174 0 41.5913 0 40V12C0 10.4087 0.632141 8.88258 1.75736 7.75736Z" fill="#293896"/>
<path fill-rule="evenodd" clip-rule="evenodd" d="M38 5.75586C37.4053 5.75586 36.8348 5.99214 36.4143 6.41271L17.806 25.021L16.7488 29.2498L20.9775 28.1926L39.5858 9.58429C40.0064 9.16371 40.2427 8.59328 40.2427 7.9985C40.2427 7.40372 40.0064 6.83329 39.5858 6.41271C39.1653 5.99214 38.5948 5.75586 38 5.75586ZM33.5858 3.58429C34.7565 2.41356 36.3444 1.75586 38 1.75586C39.6557 1.75586 41.2435 2.41356 42.4143 3.58429C43.585 4.75501 44.2427 6.34285 44.2427 7.9985C44.2427 9.65415 43.585 11.242 42.4143 12.4127L23.4143 31.4127C23.1579 31.669 22.8368 31.8509 22.4851 31.9388L14.4851 33.9388C13.8036 34.1092 13.0826 33.9095 12.5858 33.4127C12.0891 32.916 11.8894 32.195 12.0598 31.5134L14.0598 23.5134C14.1477 23.1618 14.3295 22.8406 14.5858 22.5843L33.5858 3.58429Z" fill="#293896"/>
</svg>
