<svg width="420" height="146" viewBox="0 0 420 146" fill="none" xmlns="http://www.w3.org/2000/svg">
<path d="M209.797 142C247.905 142 278.797 111.108 278.797 73C278.797 34.8924 247.905 4 209.797 4C171.689 4 140.797 34.8924 140.797 73C140.797 111.108 171.689 142 209.797 142Z" stroke="#293896" stroke-width="8" stroke-linecap="round" stroke-linejoin="round"/>
<path d="M242.742 64.2969C242.742 64.2969 230.387 47.8239 209.796 47.8239C189.205 47.8239 176.85 64.2969 176.85 64.2969" stroke="#293896" stroke-width="8" stroke-linecap="round" stroke-linejoin="round"/>
<path d="M185.09 35.7031H185.172" stroke="#293896" stroke-width="12" stroke-linecap="round" stroke-linejoin="round"/>
<path d="M234.508 35.7031H234.59" stroke="#293896" stroke-width="12" stroke-linecap="round" stroke-linejoin="round"/>
<path d="M0 103.754V96.46L74.9075 4H86.1436L11.4332 96.46L5.91375 94.8829H117.486V103.754H0ZM78.6529 142V103.754L78.85 94.8829V61.1714H88.5091V142H78.6529Z" fill="#293896"/>
<path d="M302.107 103.754V96.46L377.015 4H388.251L313.541 96.46L308.021 94.8829H419.594V103.754H302.107ZM380.76 142V103.754L380.957 94.8829V61.1714H390.617V142H380.76Z" fill="#293896"/>
</svg>
