<svg width="1254" height="254" viewBox="0 0 1254 254" fill="none" xmlns="http://www.w3.org/2000/svg">
<path d="M1071.3 251.238H500.766L523.905 216.621L694.854 97.2464L747.087 15.1568L767.294 0.998047L767.488 1.15537L767.424 0.998047L856.314 80.5705L857.545 81.6717L879.306 66.4431L1047.57 217.061L1071.3 251.238Z" fill="#293896"/>
<path d="M676.081 204.838L697.462 172.879L613.867 228.466L676.081 204.838Z" fill="white"/>
<path d="M847.442 112.605L803.205 95.449L685.17 223.634L789.719 61.707L847.442 112.605Z" fill="white"/>
<path d="M889.239 126.959L822.196 230.882L835.811 182.141L773.682 206.568L889.239 126.959Z" fill="white"/>
<path d="M1254 251.238H687.205L710.691 216.796L880.764 97.3246L932.73 15.1683L952.834 0.998047L953.027 1.15549L952.963 0.998047L1041.4 80.6351L1042.62 81.7373L1064.27 66.4963L1208.28 207.556L1254 251.238Z" fill="#293896"/>
<path d="M857.845 104.62L879.406 97.957L813.021 180.129L857.845 104.62Z" fill="white"/>
<path d="M1029.39 112.605L985.148 95.449L867.113 223.634L971.663 61.707L1029.39 112.605Z" fill="white"/>
<path d="M1071.18 126.959L1004.14 230.882L1017.75 182.141L955.623 206.568L1071.18 126.959Z" fill="white"/>
<path d="M6 251.067V148.083H70.4942V168.156H29.9353V187.331H68.08V207.404H29.9353V251.067H6Z" fill="#293896"/>
<path d="M89.0134 199.678C89.0134 182.986 93.244 169.903 101.705 160.43C110.167 150.957 121.824 146.221 136.677 146.221C151.576 146.221 163.233 150.957 171.649 160.43C180.11 169.903 184.341 182.986 184.341 199.678C184.341 216.325 180.11 229.385 171.649 238.858C163.233 248.331 151.576 253.067 136.677 253.067C121.824 253.067 110.167 248.331 101.705 238.858C93.244 229.385 89.0134 216.325 89.0134 199.678ZM113.707 199.678C113.707 210.485 115.708 218.877 119.709 224.855C123.755 230.833 129.411 233.822 136.677 233.822C143.989 233.822 149.645 230.833 153.646 224.855C157.692 218.877 159.716 210.485 159.716 199.678C159.716 188.826 157.692 180.411 153.646 174.433C149.645 168.455 143.989 165.466 136.677 165.466C129.411 165.466 123.755 168.455 119.709 174.433C115.708 180.411 113.707 188.826 113.707 199.678Z" fill="#293896"/>
<path d="M203.757 251.067V148.083H240.246C252.478 148.083 261.422 150.359 267.078 154.912C272.78 159.464 275.631 166.661 275.631 176.502C275.631 183.308 274.16 188.895 271.217 193.264C268.274 197.632 263.813 200.851 257.835 202.92C261.1 203.748 264.02 205.634 266.595 208.577C269.217 211.474 271.838 215.888 274.459 221.82L287.427 251.067H261.974L250.73 225.476C248.431 220.326 246.109 216.808 243.764 214.923C241.418 213.037 238.314 212.094 234.452 212.094H227.692V251.067H203.757ZM227.692 193.746H237.763C242.729 193.746 246.293 192.712 248.454 190.642C250.661 188.573 251.765 185.17 251.765 180.434C251.765 175.743 250.661 172.386 248.454 170.363C246.293 168.34 242.729 167.328 237.763 167.328H227.692V193.746Z" fill="#293896"/>
<path d="M303.118 209.818V148.083H327.053V209.818C327.053 218.325 328.295 224.419 330.778 228.097C333.307 231.73 337.4 233.547 343.056 233.547C348.758 233.547 352.851 231.73 355.334 228.097C357.863 224.419 359.128 218.325 359.128 209.818V148.083H383.063V209.818C383.063 224.396 379.752 235.248 373.13 242.376C366.554 249.503 356.53 253.067 343.056 253.067C329.582 253.067 319.557 249.503 312.982 242.376C306.406 235.248 303.118 224.396 303.118 209.818Z" fill="#293896"/>
<path d="M407.721 251.067V148.083H438.14L459.248 203.196L480.493 148.083H510.843V251.067H488.218V175.743L466.904 231.27H451.729L430.415 175.743V251.067H407.721Z" fill="#293896"/>
<path d="M0.839844 78.2549C0.839844 62.5081 5.18001 50.1201 13.8604 41.0908C22.5843 32.0615 34.5361 27.5469 49.7158 27.5469C55.5609 27.5469 61.166 28.1576 66.5312 29.3789C71.8965 30.6003 76.9564 32.4105 81.7109 34.8096V55.0273C76.7819 51.9303 71.8965 49.6185 67.0547 48.0918C62.2129 46.5651 57.3493 45.8018 52.4639 45.8018C43.4346 45.8018 36.4772 48.6152 31.5918 54.2422C26.7064 59.8255 24.2637 67.8298 24.2637 78.2549C24.2637 88.5928 26.6191 96.5752 31.3301 102.202C36.041 107.829 42.7367 110.643 51.417 110.643C53.7725 110.643 55.9534 110.49 57.96 110.185C60.0101 109.836 61.8203 109.312 63.3906 108.614V89.6396H49.585V72.7588H84.917V119.737C79.2464 122.791 73.3577 125.081 67.251 126.607C61.1878 128.134 54.9284 128.897 48.4727 128.897C33.8164 128.897 22.2135 124.361 13.6641 115.288C5.11458 106.172 0.839844 93.8271 0.839844 78.2549Z" fill="#EE2346"/>
<path d="M106.148 127V29.3135H135.002L155.024 81.5918L175.176 29.3135H203.965V127H182.504V55.5508L162.286 108.222H147.892L127.674 55.5508V127H106.148Z" fill="#EE2346"/>
<path d="M222.448 78.2549C222.448 62.5081 226.788 50.1201 235.468 41.0908C244.192 32.0615 256.144 27.5469 271.324 27.5469C277.169 27.5469 282.774 28.1576 288.139 29.3789C293.504 30.6003 298.564 32.4105 303.319 34.8096V55.0273C298.39 51.9303 293.504 49.6185 288.662 48.0918C283.821 46.5651 278.957 45.8018 274.072 45.8018C265.042 45.8018 258.085 48.6152 253.2 54.2422C248.314 59.8255 245.871 67.8298 245.871 78.2549C245.871 88.5928 248.227 96.5752 252.938 102.202C257.649 107.829 264.344 110.643 273.025 110.643C275.38 110.643 277.561 110.49 279.568 110.185C281.618 109.836 283.428 109.312 284.998 108.614V89.6396H271.193V72.7588H306.525V119.737C300.854 122.791 294.965 125.081 288.859 126.607C282.796 128.134 276.536 128.897 270.08 128.897C255.424 128.897 243.821 124.361 235.272 115.288C226.722 106.172 222.448 93.8271 222.448 78.2549Z" fill="#EE2346"/>
<path d="M317.287 127L349.871 29.3135H376.893L409.477 127H386.642L381.146 109.203H345.683L340.056 127H317.287ZM351.31 91.0791H375.388L363.415 52.2139L351.31 91.0791Z" fill="#EE2346"/>
</svg>
