<svg width="19" height="19" viewBox="0 0 19 19" fill="none" xmlns="http://www.w3.org/2000/svg">
<g clip-path="url(#clip0_312_1644)">
<path d="M13.458 1.58203H5.54134C3.35521 1.58203 1.58301 3.35424 1.58301 5.54036V13.457C1.58301 15.6432 3.35521 17.4154 5.54134 17.4154H13.458C15.6441 17.4154 17.4163 15.6432 17.4163 13.457V5.54036C17.4163 3.35424 15.6441 1.58203 13.458 1.58203Z" stroke="#293896" stroke-width="1.5" stroke-linecap="round" stroke-linejoin="round"/>
<path d="M12.6663 9.001C12.764 9.65986 12.6514 10.3328 12.3447 10.924C12.0379 11.5152 11.5525 11.9946 10.9576 12.2941C10.3626 12.5935 9.68838 12.6978 9.03077 12.5919C8.37316 12.4861 7.76567 12.1756 7.29469 11.7047C6.82371 11.2337 6.51323 10.6262 6.40741 9.96859C6.30159 9.31098 6.40582 8.63675 6.70528 8.0418C7.00474 7.44684 7.48417 6.96146 8.07539 6.65469C8.6666 6.34792 9.33949 6.23538 9.99836 6.33308C10.6704 6.43274 11.2926 6.74591 11.773 7.22633C12.2534 7.70674 12.5666 8.32894 12.6663 9.001Z" stroke="#293896" stroke-width="1.5" stroke-linecap="round" stroke-linejoin="round"/>
<path d="M13.8545 5.14453H13.8624" stroke="#293896" stroke-width="1.5" stroke-linecap="round" stroke-linejoin="round"/>
</g>
<defs>
<clipPath id="clip0_312_1644">
<rect width="19" height="19" fill="white"/>
</clipPath>
</defs>
</svg>
