<svg width="25" height="24" viewBox="0 0 25 24" fill="none" xmlns="http://www.w3.org/2000/svg">
<path d="M21.3473 11.5C21.3508 12.8199 21.0438 14.1219 20.4515 15.3C19.7493 16.7118 18.6697 17.8992 17.3337 18.7293C15.9977 19.5594 14.458 19.9994 12.8871 20C11.5735 20.0035 10.2775 19.6951 9.10494 19.1L3.43164 21L5.32274 15.3C4.73046 14.1219 4.42353 12.8199 4.42696 11.5C4.42756 9.92179 4.8655 8.37488 5.69172 7.03258C6.51794 5.69028 7.69981 4.6056 9.10494 3.90003C10.2775 3.30496 11.5735 2.99659 12.8871 3.00003H13.3848C15.4594 3.11502 17.4189 3.99479 18.888 5.47089C20.3572 6.94699 21.2329 8.91568 21.3473 11V11.5Z" stroke="#293896" stroke-width="2" stroke-linecap="round" stroke-linejoin="round"/>
</svg>
