<svg width="21" height="20" viewBox="0 0 21 20" fill="none" xmlns="http://www.w3.org/2000/svg">
<path d="M20.0829 14.5088V17.2588C20.084 17.5141 20.0293 17.7668 19.9224 18.0007C19.8154 18.2346 19.6586 18.4446 19.462 18.6172C19.2653 18.7898 19.0331 18.9211 18.7803 19.0029C18.5274 19.0847 18.2595 19.1151 17.9937 19.0921C15.0448 18.7856 12.2121 17.8218 9.7233 16.278C7.4078 14.8706 5.44466 12.9928 3.9733 10.778C2.3537 8.38656 1.34578 5.66387 1.03122 2.83045C1.00727 2.57696 1.03876 2.32148 1.1237 2.08028C1.20863 1.83907 1.34514 1.61742 1.52453 1.42944C1.70393 1.24146 1.92228 1.09127 2.16568 0.988432C2.40909 0.885593 2.67221 0.83236 2.9383 0.83212H5.8133C6.27838 0.827742 6.72927 0.985275 7.0819 1.27536C7.43454 1.56544 7.66487 1.96828 7.72997 2.40879C7.85131 3.28885 8.07636 4.15295 8.4008 4.98462C8.52974 5.31272 8.55764 5.66929 8.48121 6.01209C8.40478 6.3549 8.22721 6.66956 7.96955 6.91879L6.75247 8.08295C8.11671 10.3779 10.1032 12.278 12.5025 13.583L13.7195 12.4188C13.9801 12.1723 14.3091 12.0025 14.6675 11.9294C15.0258 11.8563 15.3986 11.883 15.7416 12.0063C16.6111 12.3166 17.5145 12.5319 18.4345 12.648C18.9001 12.7108 19.3252 12.9351 19.6291 13.2782C19.9331 13.6213 20.0945 14.0592 20.0829 14.5088Z" stroke="#293896" stroke-width="1.5" stroke-linecap="round" stroke-linejoin="round"/>
</svg>
