<svg width="19" height="22" viewBox="0 0 19 22" fill="none" xmlns="http://www.w3.org/2000/svg">
<path d="M18.125 9.16797C18.125 15.5846 9.5 21.0846 9.5 21.0846C9.5 21.0846 0.875 15.5846 0.875 9.16797C0.875 6.97993 1.7837 4.88151 3.4012 3.33434C5.0187 1.78716 7.21251 0.917969 9.5 0.917969C11.7875 0.917969 13.9813 1.78716 15.5988 3.33434C17.2163 4.88151 18.125 6.97993 18.125 9.16797Z" stroke="#293896" stroke-width="1.5" stroke-linecap="round" stroke-linejoin="round"/>
<path d="M9.5 11.918C11.0878 11.918 12.375 10.6868 12.375 9.16797C12.375 7.64919 11.0878 6.41797 9.5 6.41797C7.91218 6.41797 6.625 7.64919 6.625 9.16797C6.625 10.6868 7.91218 11.918 9.5 11.918Z" stroke="#293896" stroke-width="1.5" stroke-linecap="round" stroke-linejoin="round"/>
</svg>
