<svg width="86" height="14" viewBox="0 0 86 14" fill="none" xmlns="http://www.w3.org/2000/svg">
<path d="M11.627 11.933C11.216 12.2581 10.7413 12.5408 10.2028 12.7811C9.67852 13.0073 9.12587 13.1769 8.54487 13.29C7.96388 13.4173 7.3758 13.4809 6.78063 13.4809C5.47694 13.4809 4.30786 13.2123 3.27341 12.6751C2.25313 12.1238 1.45249 11.3746 0.871492 10.4275C0.290497 9.48035 0 8.40601 0 7.20444C0 6.00287 0.290497 4.9356 0.871492 4.00261C1.45249 3.0555 2.24604 2.31335 3.25215 1.77618C4.27244 1.22487 5.42734 0.949219 6.71687 0.949219C7.85052 0.949219 8.84246 1.11885 9.69269 1.45812C10.5429 1.78325 11.2515 2.29215 11.8183 2.98482L10.0753 4.65994C9.63601 4.16518 9.14004 3.80471 8.58739 3.57853C8.03473 3.33822 7.4254 3.21806 6.75938 3.21806C5.98 3.21806 5.27855 3.38769 4.65504 3.72696C4.04571 4.06623 3.56391 4.53979 3.20964 5.14764C2.86955 5.74135 2.6995 6.42695 2.6995 7.20444C2.6995 7.98192 2.87663 8.67459 3.2309 9.28244C3.58516 9.8903 4.07405 10.3639 4.69756 10.7031C5.32106 11.0424 6.03668 11.212 6.8444 11.212C7.48208 11.212 8.06307 11.1131 8.58739 10.9152C9.12587 10.7173 9.62893 10.4204 10.0966 10.0246L11.627 11.933ZM9.09753 11.9542V7.09842H11.627V11.933L9.09753 11.9542Z" fill="#293896"/>
<path d="M20.6661 13.4809C19.3765 13.4809 18.2216 13.2123 17.2013 12.6751C16.1952 12.1238 15.4017 11.3746 14.8207 10.4275C14.2397 9.48035 13.9492 8.40601 13.9492 7.20444C13.9492 6.00287 14.2397 4.9356 14.8207 4.00261C15.4017 3.0555 16.1952 2.31335 17.2013 1.77618C18.2216 1.22487 19.3694 0.949219 20.6448 0.949219C21.9343 0.949219 23.0821 1.22487 24.0883 1.77618C25.1085 2.31335 25.9092 3.0555 26.4902 4.00261C27.0712 4.9356 27.3617 6.00287 27.3617 7.20444C27.3617 8.40601 27.0712 9.48035 26.4902 10.4275C25.9092 11.3746 25.1085 12.1238 24.0883 12.6751C23.0821 13.2123 21.9414 13.4809 20.6661 13.4809ZM20.6448 11.212C21.4242 11.212 22.1115 11.0424 22.7066 10.7031C23.316 10.3497 23.7907 9.86909 24.1308 9.26124C24.4709 8.65339 24.6409 7.96779 24.6409 7.20444C24.6409 6.42695 24.4638 5.74135 24.1095 5.14764C23.7694 4.53979 23.3018 4.06623 22.7066 3.72696C22.1115 3.38769 21.4313 3.21806 20.6661 3.21806C19.9008 3.21806 19.2136 3.38769 18.6042 3.72696C17.9949 4.06623 17.5131 4.53979 17.1588 5.14764C16.8187 5.74135 16.6487 6.42695 16.6487 7.20444C16.6487 7.96779 16.8187 8.65339 17.1588 9.26124C17.5131 9.86909 17.9949 10.3497 18.6042 10.7031C19.2136 11.0424 19.8938 11.212 20.6448 11.212Z" fill="#293896"/>
<path d="M41.3338 13.4809C40.1718 13.4809 39.1728 13.2688 38.3367 12.8447C37.5148 12.4065 36.8842 11.7845 36.4449 10.9788C36.0056 10.1589 35.786 9.19056 35.786 8.07381V1.14006H38.4642V7.98899C38.4642 9.03506 38.7122 9.83375 39.2082 10.3851C39.7042 10.9364 40.4198 11.212 41.355 11.212C42.2761 11.212 42.9776 10.9434 43.4594 10.4063C43.9553 9.85496 44.2033 9.0492 44.2033 7.98899V1.14006H46.839V8.07381C46.839 9.19056 46.6194 10.1589 46.1801 10.9788C45.755 11.7845 45.1315 12.4065 44.3096 12.8447C43.4877 13.2688 42.4958 13.4809 41.3338 13.4809Z" fill="#293896"/>
<path d="M50.4232 13.2688V1.14006H55.6734C56.7645 1.14006 57.7069 1.31676 58.5004 1.67016C59.294 2.00943 59.9033 2.50419 60.3284 3.15445C60.7677 3.80471 60.9873 4.58926 60.9873 5.50811C60.9873 6.42695 60.7677 7.21858 60.3284 7.88297C59.9033 8.53323 59.294 9.03506 58.5004 9.38847C57.7069 9.72773 56.7645 9.89736 55.6734 9.89736H51.9111L53.1014 8.66753V13.2688H50.4232ZM53.1014 8.98559L52.1236 7.73454H55.4821C56.4173 7.73454 57.1188 7.54371 57.5864 7.16203C58.054 6.76622 58.2878 6.21491 58.2878 5.50811C58.2878 4.8013 58.054 4.25706 57.5864 3.87539C57.1188 3.49372 56.4173 3.30288 55.4821 3.30288H52.1236L53.1014 2.07304V8.98559Z" fill="#293896"/>
<path d="M77.4944 0L85.2887 13.5H69.7002L77.4944 0Z" fill="#293896"/>
</svg>
