<svg width="521" height="246" viewBox="0 0 521 246" fill="none" xmlns="http://www.w3.org/2000/svg">
<ellipse cx="126.12" cy="121.5" rx="105.101" ry="101.5" fill="#EE2346"/>
<path d="M521 246H0L22.807 211.205L187.962 94.2764L238.426 13.8687L257.948 0L258.135 0.154097L258.073 0L343.951 77.9421L345.14 79.0208L366.164 64.1042L521 246Z" fill="#293896"/>
<path d="M135.879 178.646L158.152 143L71.0684 205L135.879 178.646Z" fill="white"/>
<path d="M316.303 78.007L269.642 59.466L145.139 198L255.417 23L316.303 78.007Z" fill="white"/>
<path d="M362.348 94L291.498 207L305.887 154.001L240.23 180.562L362.348 94Z" fill="white"/>
<path fill-rule="evenodd" clip-rule="evenodd" d="M66.2119 91.6479C67.5491 90.6772 69.4462 90.9367 70.4527 92.2267L70.4611 92.2373C70.4712 92.25 70.4902 92.2736 70.5178 92.3074C70.5732 92.3749 70.6632 92.4829 70.7872 92.6256C71.0354 92.9113 71.4182 93.3346 71.9293 93.8498C72.954 94.8828 74.4797 96.2706 76.4547 97.6583C80.4163 100.442 86.053 103.136 93.0303 103.136C100.008 103.136 105.644 100.442 109.606 97.6583C111.581 96.2706 113.107 94.8828 114.131 93.8498C114.642 93.3346 115.025 92.9113 115.273 92.6256C115.397 92.4829 115.487 92.3749 115.543 92.3074C115.57 92.2736 115.589 92.25 115.6 92.2373L115.606 92.2294L115.605 92.2308C115.606 92.2294 115.607 92.228 115.608 92.2266C116.615 90.9367 118.512 90.6772 119.849 91.6479C121.188 92.6202 121.459 94.4581 120.453 95.7531L118.028 93.9928C120.453 95.7531 120.452 95.7541 120.452 95.7551L120.45 95.7574L120.446 95.7627L120.435 95.7767L120.402 95.8176C120.376 95.8506 120.34 95.8948 120.296 95.9494C120.206 96.0588 120.079 96.2102 119.917 96.3977C119.591 96.7724 119.119 97.2925 118.508 97.9093C117.286 99.1404 115.492 100.771 113.17 102.402C108.539 105.657 101.677 109 93.0303 109C84.3838 109 77.5216 105.657 72.8901 102.402C70.5686 100.771 68.7742 99.1404 67.553 97.9093C66.9411 97.2925 66.4695 96.7724 66.144 96.3977C65.9811 96.2102 65.8545 96.0588 65.7649 95.9494C65.7201 95.8948 65.6845 95.8506 65.6583 95.8176L65.6258 95.7767L65.6149 95.7627L65.6107 95.7574L65.609 95.7551C65.6082 95.7541 65.6074 95.7531 68.0323 93.9928L65.6074 95.7531C64.6021 94.4581 64.8727 92.6202 66.2119 91.6479ZM115.605 92.2308C115.604 92.2313 115.604 92.2319 115.603 92.2325L117.872 93.8791C115.603 92.2324 115.604 92.2316 115.605 92.2308Z" fill="#293896"/>
<path fill-rule="evenodd" clip-rule="evenodd" d="M69.4844 76.4848C69.4844 74.0079 71.4787 72 73.9388 72H73.9997C76.4598 72 78.4541 74.0079 78.4541 76.4848C78.4541 78.9618 76.4598 80.9697 73.9997 80.9697H73.9388C71.4787 80.9697 69.4844 78.9618 69.4844 76.4848Z" fill="#293896"/>
<path fill-rule="evenodd" clip-rule="evenodd" d="M107.605 76.4848C107.605 74.0079 109.6 72 112.06 72H112.121C114.581 72 116.575 74.0079 116.575 76.4848C116.575 78.9618 114.581 80.9697 112.121 80.9697H112.06C109.6 80.9697 107.605 78.9618 107.605 76.4848Z" fill="#293896"/>
</svg>
