<svg width="12" height="12" viewBox="0 0 12 12" fill="none" xmlns="http://www.w3.org/2000/svg">
<g clip-path="url(#clip0_196_3639)">
<path d="M3.96457 1.60686H3.85742C3.91635 1.60686 3.96457 1.55865 3.96457 1.49972V1.60686H8.03599V1.49972C8.03599 1.55865 8.08421 1.60686 8.14314 1.60686H8.03599V2.57115H9.00028V1.49972C9.00028 1.02695 8.61591 0.642578 8.14314 0.642578H3.85742C3.38465 0.642578 3.00028 1.02695 3.00028 1.49972V2.57115H3.96457V1.60686ZM10.7146 2.57115H1.28599C1.04894 2.57115 0.857422 2.76267 0.857422 2.99972V3.42829C0.857422 3.48722 0.905636 3.53544 0.964565 3.53544H1.77349L2.1043 10.5399C2.12573 10.9966 2.5034 11.3569 2.9601 11.3569H9.04046C9.49849 11.3569 9.87483 10.9979 9.89626 10.5399L10.2271 3.53544H11.036C11.0949 3.53544 11.1431 3.48722 11.1431 3.42829V2.99972C11.1431 2.76267 10.9516 2.57115 10.7146 2.57115ZM8.93733 10.3926H3.06323L2.73912 3.53544H9.26144L8.93733 10.3926Z" fill="#293896"/>
</g>
<defs>
<clipPath id="clip0_196_3639">
<rect width="12" height="12" fill="white"/>
</clipPath>
</defs>
</svg>
