<svg width="25" height="25" viewBox="0 0 25 25" fill="none" xmlns="http://www.w3.org/2000/svg">
<path d="M19.7 2H4.3C3.42479 2 2.58542 2.33187 1.96655 2.92261C1.34768 3.51335 1 4.31457 1 5.15V19.85C1 20.6854 1.34768 21.4866 1.96655 22.0774C2.58542 22.6681 3.42479 23 4.3 23H19.7C19.8809 22.9976 20.0613 22.98 20.239 22.9475L20.569 22.874H20.646H20.701L21.108 22.727L21.251 22.6535C21.361 22.5905 21.482 22.538 21.592 22.4645C21.7389 22.3613 21.8785 22.2491 22.01 22.1285L22.087 22.034C22.195 21.9295 22.2943 21.8172 22.384 21.698L22.483 21.5615C22.5598 21.4446 22.6261 21.3217 22.681 21.194C22.7112 21.1436 22.7369 21.0909 22.758 21.0365C22.813 20.9105 22.846 20.774 22.89 20.6375V20.48C22.9524 20.2748 22.9893 20.0634 23 19.85V5.15C23 4.31457 22.6523 3.51335 22.0335 2.92261C21.4146 2.33187 20.5752 2 19.7 2ZM4.3 20.9C4.00826 20.9 3.72847 20.7894 3.52218 20.5925C3.31589 20.3955 3.2 20.1285 3.2 19.85V15.3245L6.819 11.8595C6.92126 11.7611 7.04292 11.683 7.17697 11.6297C7.31101 11.5764 7.45479 11.5489 7.6 11.5489C7.74521 11.5489 7.88899 11.5764 8.02303 11.6297C8.15708 11.683 8.27874 11.7611 8.381 11.8595L17.841 20.9H4.3ZM20.8 19.85C20.799 19.9795 20.7729 20.1076 20.723 20.228C20.6979 20.2792 20.6684 20.3283 20.635 20.375C20.6056 20.4194 20.5725 20.4616 20.536 20.501L14.651 14.8835L15.619 13.9595C15.7213 13.8611 15.8429 13.783 15.977 13.7297C16.111 13.6764 16.2548 13.6489 16.4 13.6489C16.5452 13.6489 16.689 13.6764 16.823 13.7297C16.9571 13.783 17.0787 13.8611 17.181 13.9595L20.8 17.4245V19.85ZM20.8 14.453L18.732 12.5C18.1025 11.9298 17.2678 11.612 16.4 11.612C15.5322 11.612 14.6975 11.9298 14.068 12.5L13.1 13.424L9.932 10.4C9.30249 9.82984 8.46779 9.51199 7.6 9.51199C6.73221 9.51199 5.89751 9.82984 5.268 10.4L3.2 12.353V5.15C3.2 4.87152 3.31589 4.60445 3.52218 4.40754C3.72847 4.21062 4.00826 4.1 4.3 4.1H19.7C19.9917 4.1 20.2715 4.21062 20.4778 4.40754C20.6841 4.60445 20.8 4.87152 20.8 5.15V14.453ZM13.65 6.2C13.3237 6.2 13.0047 6.29237 12.7333 6.46544C12.462 6.6385 12.2505 6.88448 12.1256 7.17227C12.0007 7.46007 11.968 7.77675 12.0317 8.08227C12.0954 8.38779 12.2525 8.66843 12.4833 8.88869C12.714 9.10896 13.008 9.25897 13.3281 9.31974C13.6482 9.38051 13.9799 9.34932 14.2814 9.23011C14.5829 9.1109 14.8406 8.90903 15.0219 8.65002C15.2032 8.39102 15.3 8.08651 15.3 7.775C15.3 7.35728 15.1262 6.95668 14.8167 6.66131C14.5073 6.36594 14.0876 6.2 13.65 6.2Z" fill="#293896"/>
</svg>
