<svg width="28" height="27" viewBox="0 0 28 27" fill="none" xmlns="http://www.w3.org/2000/svg">
<path d="M27.2584 13.1527C27.2584 20.4162 21.2716 26.3045 13.885 26.3045C11.5409 26.3045 9.33892 25.7102 7.42209 24.6695L0.0185547 27L2.43192 19.9416C1.21502 17.9607 0.514196 15.6346 0.514196 13.1518C0.515084 5.88828 6.50009 0 13.8867 0C21.2725 0.00176085 27.2584 5.88916 27.2584 13.1527ZM13.8841 2.09717C7.68501 2.09717 2.64243 7.05749 2.64243 13.1553C2.64243 15.5747 3.4383 17.8145 4.784 19.637L3.38057 23.7424L7.69922 22.3822C9.47571 23.5373 11.6013 24.2099 13.8841 24.2099C20.0831 24.2099 25.1275 19.2505 25.1275 13.1527C25.1293 7.05749 20.084 2.09717 13.8841 2.09717ZM20.6383 16.1822C20.5548 16.0493 20.3363 15.9683 20.0094 15.8063C19.6834 15.6443 18.0695 14.8651 17.7702 14.7594C17.4682 14.6512 17.2496 14.5966 17.0311 14.9197C16.8153 15.2428 16.1864 15.9683 15.9937 16.1849C15.8027 16.4006 15.6117 16.4279 15.284 16.2685C14.9562 16.1047 13.8992 15.7667 12.6468 14.6688C11.6723 13.813 11.0142 12.7591 10.8241 12.436C10.6313 12.1138 10.8045 11.9394 10.9671 11.7792C11.1136 11.6339 11.2948 11.4024 11.4592 11.2131C11.6235 11.0256 11.6777 10.8926 11.7869 10.6769C11.8944 10.4612 11.8402 10.2737 11.7594 10.1108C11.6777 9.94881 11.023 8.36404 10.7486 7.71869C10.4759 7.07422 10.2032 7.18075 10.0113 7.18075C9.82035 7.18075 9.60184 7.15434 9.38334 7.15434C9.16483 7.15434 8.80953 7.23269 8.51019 7.55581C8.21085 7.87893 7.36346 8.6581 7.36346 10.2446C7.36346 11.8329 8.53684 13.364 8.70116 13.5788C8.86637 13.7927 10.9697 17.1551 14.3016 18.4458C17.6351 19.7356 17.6351 19.3051 18.2356 19.2505C18.8378 19.1959 20.1755 18.4713 20.4473 17.7194C20.7209 16.964 20.7209 16.3169 20.6383 16.1822Z" fill="#293896"/>
</svg>
